<?xml version="1.0" encoding="UTF-8" standalone="no"?>
<!DOCTYPE svg PUBLIC "-//W3C//DTD SVG 1.1//EN" "http://www.w3.org/Graphics/SVG/1.1/DTD/svg11.dtd">
<svg width="100%" height="100%" viewBox="0 0 600 600" version="1.1" xmlns="http://www.w3.org/2000/svg" xmlns:xlink="http://www.w3.org/1999/xlink" xml:space="preserve" xmlns:serif="http://www.serif.com/" style="fill-rule:evenodd;clip-rule:evenodd;stroke-linecap:round;stroke-linejoin:round;stroke-miterlimit:1.5;">
    <g transform="matrix(1.08309,0,0,1.35071,-43.1732,-75.1705)">
        <g id="blob">
            <path d="M107.8,133.877C119.863,112.497 130.497,95.602 151.338,87.31C155.357,85.711 162.893,82.652 167.043,81.994C177.221,80.38 185.667,79.649 195.885,84.526C206.121,89.411 215.048,97.968 226.649,99.883C231.659,100.71 235.833,101.332 240.891,101.792C244.326,102.104 249.526,102.356 252.962,101.231C280.131,92.338 304.171,76.345 330.999,66.627C343.928,61.944 358.733,56.468 372.683,60.86C384.434,64.559 390.285,76.803 397.787,85.23C407.024,95.606 417.364,106.74 431.152,110.976C450.784,117.008 471.694,115.206 491.839,116.526C502.811,117.245 513.653,123.358 518.855,133.25C526.113,147.05 528.036,164.432 520.927,178.728C518.865,182.873 515.079,186.058 513.287,190.326C509.263,199.905 508.103,211.139 511.894,220.953C514.773,228.404 520.201,233.644 525.582,239.705C528.647,243.157 540.137,250.275 543.006,255.279C545.347,259.36 538.999,281.892 539.187,286.33C539.576,295.492 546.461,300.58 546.585,309.749C546.639,313.692 544.621,318.165 542.521,322.119C540.766,325.423 534.652,329.844 531.413,331.003C517.953,335.82 498.037,337.42 487.433,349.357C472.801,365.828 487.25,386.981 486.554,405.717C485.839,424.985 469.371,439.652 453.681,448.01C413.754,469.277 375.161,452.414 336.483,437.72C305.679,426.018 306.137,425.027 273.976,418.676C254.5,414.831 237.799,432.061 223.15,441.046C208.143,450.25 189.82,453.067 172.538,450.696C168.707,450.171 164.879,449.398 161.225,448.136C134.898,439.042 130.355,407.087 129.724,383.142C129.644,380.114 131.32,368.595 130.456,365.692C128.952,360.638 112.313,342.582 97.045,336.498C81.703,330.384 61.831,327.329 51.801,312.173C48.53,307.231 46.128,301.712 44.145,296.127C31.828,261.434 65.92,233.005 91.477,216.776C98.226,212.491 107.249,211.064 112.344,204.277C123.28,189.709 106.068,173.732 102.21,160.023C99.469,150.283 107.8,133.877 107.8,133.877Z" style="fill:rgb(210,131,204);fill-opacity:0.64;stroke:rgb(192,79,228);stroke-width:4.9px;"/>
        </g>
    </g>
    <g id="track" transform="matrix(0.679301,0,0,0.765783,91.444,-0.724596)">
        <g transform="matrix(1.15756,0,0,1.30652,-65.6533,-0.87365)">
            <path d="M297.216,253.364L0.696,597.216" style="fill:none;stroke:rgb(21,13,13);stroke-width:6.67px;"/>
        </g>
        <g transform="matrix(1.15756,0,0,1.30652,-65.6533,-0.87365)">
            <path d="M298.608,249.188L606.265,597.216" style="fill:none;stroke:rgb(21,13,13);stroke-width:6.67px;"/>
        </g>
        <g transform="matrix(1.15756,0,0,1.30652,-65.6533,-0.87365)">
            <path d="M242.036,282.941L355.508,282.941" style="fill:none;stroke:rgb(105,51,7);stroke-width:8.89px;"/>
        </g>
        <g transform="matrix(1.15756,0,0,1.30652,-65.6533,-0.87365)">
            <path d="M210.675,320.575L389.15,320.575" style="fill:none;stroke:rgb(105,51,7);stroke-width:8.89px;"/>
        </g>
        <g transform="matrix(1.15756,0,0,1.30652,-65.6533,-0.87365)">
            <path d="M181.024,353.076L417.661,353.076" style="fill:none;stroke:rgb(105,51,7);stroke-width:8.89px;"/>
        </g>
        <g transform="matrix(1.15756,0,0,1.30652,-65.6533,-0.87365)">
            <path d="M151.944,390.14L450.163,390.14" style="fill:none;stroke:rgb(105,51,7);stroke-width:8.89px;"/>
        </g>
        <g transform="matrix(1.15756,0,0,1.30652,-65.6533,-0.87365)">
            <path d="M113.169,433.476L487.796,433.476" style="fill:none;stroke:rgb(105,51,7);stroke-width:8.89px;"/>
        </g>
        <g transform="matrix(1.15756,0,0,1.30652,-65.6533,-0.87365)">
            <path d="M79.171,471.644L522.864,471.644" style="fill:none;stroke:rgb(105,51,7);stroke-width:8.89px;"/>
        </g>
        <g transform="matrix(1.15756,0,0,1.30652,-65.6533,-0.87365)">
            <path d="M36.405,523.319L569.194,523.319" style="fill:none;stroke:rgb(105,51,7);stroke-width:8.89px;"/>
        </g>
        <g transform="matrix(1.15756,0,0,1.30652,-65.6533,-0.87365)">
            <path d="M-14.379,583.013L605.723,583.013" style="fill:none;stroke:rgb(105,51,7);stroke-width:8.89px;"/>
        </g>
    </g>
    <g id="Layer3">
    </g>
    <g id="Layer2" transform="matrix(0.124826,-0.264266,0.29791,0.140718,108.749,335.204)">
        <g transform="matrix(-1.19233,0.0554071,-0.062461,0.966548,898.562,-159.429)">
            <path d="M375.654,355.499C375.654,355.499 301.937,344.084 304.492,267.55C307.046,191.016 368.72,191.016 384.777,231.524C400.834,272.032 375.289,331.55 375.654,355.499Z" style="fill:rgb(126,86,54);stroke:rgb(28,22,17);stroke-width:1.14px;"/>
        </g>
        <g transform="matrix(-1.19233,0.0554071,-0.062461,0.966548,898.562,-159.429)">
            <path d="M371.274,216.323C371.274,216.323 325.658,229.46 316.169,252.086" style="fill:none;stroke:rgb(160,107,65);stroke-width:1.14px;"/>
        </g>
        <g transform="matrix(-1.19233,0.0554071,-0.062461,0.966548,898.562,-159.429)">
            <path d="M379.303,227.636C379.303,227.636 323.103,250.991 316.169,272.158" style="fill:none;stroke:rgb(160,107,65);stroke-width:1.14px;"/>
        </g>
        <g transform="matrix(-1.19233,0.0554071,-0.062461,0.966548,898.562,-159.429)">
            <path d="M382.587,242.233C382.587,242.233 330.037,262.669 317.264,295.878" style="fill:none;stroke:rgb(160,107,65);stroke-width:1.14px;"/>
        </g>
        <g transform="matrix(-1.19233,0.0554071,-0.062461,0.966548,898.562,-159.429)">
            <path d="M385.872,252.816C385.872,252.816 332.227,288.58 323.103,311.205" style="fill:none;stroke:rgb(160,107,65);stroke-width:1.14px;"/>
        </g>
        <g transform="matrix(-1.19233,0.0554071,-0.062461,0.966548,898.562,-159.429)">
            <path d="M384.777,267.413C384.777,267.413 339.89,305.731 334.051,325.073" style="fill:none;stroke:rgb(160,107,65);stroke-width:1.14px;"/>
        </g>
        <g transform="matrix(-1.19233,0.0554071,-0.062461,0.966548,898.562,-159.429)">
            <path d="M381.493,289.674C381.493,289.674 353.393,314.49 347.554,337.116" style="fill:none;stroke:rgb(160,107,65);stroke-width:1.14px;"/>
        </g>
        <g transform="matrix(-1.19233,0.0554071,-0.062461,0.966548,898.562,-159.429)">
            <path d="M381.493,306.096C381.493,306.096 365.071,332.372 362.881,344.414" style="fill:none;stroke:rgb(160,107,65);stroke-width:1.14px;"/>
        </g>
        <g transform="matrix(-1.19233,0.0554071,-0.062461,0.966548,898.562,-159.429)">
            <path d="M321.279,306.826C321.279,306.826 355.217,334.561 370.909,335.656" style="fill:none;stroke:rgb(160,107,65);stroke-width:1.14px;"/>
        </g>
        <g transform="matrix(-1.19233,0.0554071,-0.062461,0.966548,898.562,-159.429)">
            <path d="M315.44,279.456C315.44,279.456 344.634,317.044 375.289,319.964" style="fill:none;stroke:rgb(160,107,65);stroke-width:1.14px;"/>
        </g>
        <g transform="matrix(-1.19233,0.0554071,-0.062461,0.966548,898.562,-159.429)">
            <path d="M315.805,253.911C315.805,253.911 337.336,298.433 380.398,305.366" style="fill:none;stroke:rgb(160,107,65);stroke-width:1.14px;"/>
        </g>
        <g transform="matrix(-1.19233,0.0554071,-0.062461,0.966548,898.562,-159.429)">
            <path d="M319.454,233.11C319.454,233.11 336.241,282.741 383.682,291.864" style="fill:none;stroke:rgb(160,107,65);stroke-width:1.14px;"/>
        </g>
        <g transform="matrix(-1.19233,0.0554071,-0.062461,0.966548,898.562,-159.429)">
            <path d="M330.037,217.782C330.037,217.782 340.62,263.034 381.128,275.077" style="fill:none;stroke:rgb(160,107,65);stroke-width:1.14px;"/>
        </g>
        <g transform="matrix(-1.19233,0.0554071,-0.062461,0.966548,898.562,-159.429)">
            <path d="M342.445,211.214C342.445,211.214 359.597,253.181 385.142,263.399" style="fill:none;stroke:rgb(160,107,65);stroke-width:1.14px;"/>
        </g>
        <g transform="matrix(-1.19233,0.0554071,-0.062461,0.966548,898.562,-159.429)">
            <path d="M359.232,210.119C359.232,210.119 368.355,239.314 387.696,249.167" style="fill:none;stroke:rgb(160,107,65);stroke-width:1.14px;"/>
        </g>
        <g transform="matrix(-1.19233,0.0554071,-0.062461,0.966548,898.562,-159.429)">
            <path d="M391.593,207.857C379.109,207.667 374.05,166.467 406.19,189.154C416.283,185.683 416.226,178.206 442.228,177.294C468.229,176.381 475.072,183.224 481.914,186.873C482.03,180.433 515.137,173.88 497.88,205.081C505.847,212.74 508.498,220.256 509.284,230.665C512.126,236.216 515.214,238.876 515.671,240.701C511.963,240.909 509.955,241.996 512.021,244.806C513.695,250.261 515.874,260.316 515.836,267.615C515.795,275.261 560.227,353.342 460.018,368.427C388.674,379.168 344.071,358.336 377.452,269.779C382.674,255.926 387.8,239.877 382.926,242.409C376.508,245.743 381.339,243.174 385.446,233.857C388.388,227.184 387.008,211.58 391.593,207.857Z" style="fill:rgb(187,135,77);stroke:rgb(28,22,17);stroke-width:1.14px;"/>
        </g>
        <g transform="matrix(-1.19233,0.0554071,-0.062461,0.966548,898.562,-159.429)">
            <path d="M391.412,189.166C391.412,189.166 397.543,190.041 399.003,194.713C400.462,199.384 404.55,189.749 404.55,189.749" style="fill:none;stroke:rgb(28,22,17);stroke-width:1.14px;"/>
        </g>
        <g transform="matrix(-1.19233,0.0554071,-0.062461,0.966548,898.562,-159.429)">
            <path d="M481.624,188.582L488.922,192.085C488.922,192.085 492.718,185.954 496.513,186.538" style="fill:none;stroke:rgb(28,22,17);stroke-width:1.14px;"/>
        </g>
        <g transform="matrix(-1.19057,0.0330278,-0.090033,0.967572,905.4,-155.539)">
            <ellipse cx="450.26" cy="262.94" rx="23.916" ry="9.71" style="fill:rgb(210,177,141);stroke:rgb(28,22,17);stroke-width:1.13px;"/>
        </g>
        <g transform="matrix(-1.19233,0.0554071,-0.062461,0.966548,898.562,-159.429)">
            <path d="M451.56,289.081C465.427,289.081 490.243,303.314 494.257,322.29C498.271,341.267 492.067,366.082 458.858,366.812C425.65,367.542 401.564,363.528 404.118,333.968C406.673,304.409 435.503,289.081 451.56,289.081Z" style="fill:rgb(210,177,141);stroke:rgb(28,22,17);stroke-width:1.14px;"/>
        </g>
        <g id="Layer31" serif:id="Layer3">
        </g>
        <g transform="matrix(-1.12749,-0.216621,-0.392834,0.943589,751.571,-107.848)">
            <path d="M179.452,328.608C179.452,328.608 217.086,325.187 225.069,325.187" style="fill:none;stroke:rgb(168,133,94);stroke-width:1.12px;"/>
        </g>
        <g transform="matrix(-1.19233,0.0554071,-0.062461,0.966548,898.562,-159.429)">
            <path d="M410.698,310.958C410.698,310.958 379.964,303.748 380.256,293.822C380.548,283.896 392.819,283.324 398.366,284.784C403.913,286.244 409.53,305.995 410.698,310.958Z" style="fill:rgb(187,135,77);stroke:rgb(187,135,77);stroke-width:1.14px;"/>
        </g>
        <g transform="matrix(-1.19233,0.0554071,-0.062461,0.966548,898.562,-159.429)">
            <path d="M395.499,277.334L400.171,274.414L401.338,278.209C401.338,278.209 403.966,272.37 413.6,277.334C405.134,284.632 406.009,286.968 406.009,286.968L410.973,289.595L410.389,297.77C416.228,302.149 424.103,301.103 426.731,307.234C427.817,309.768 391.18,321.578 375.774,288.773" style="fill:rgb(187,135,77);stroke:rgb(28,22,17);stroke-width:1.14px;"/>
        </g>
        <g transform="matrix(-1.19233,0.0554071,-0.062461,0.966548,898.562,-159.429)">
            <path d="M519.891,296.167C515.038,281.314 507.832,271.956 498.628,267.257L498.747,271.562C498.747,271.562 492.649,269.768 489.779,271.562C490.376,275.388 500.063,278.976 494.681,281.607C489.3,284.237 490.855,285.912 491.931,287.107C493.007,288.303 494.681,292.369 493.964,293.087C493.246,293.804 482.245,301.936 481.408,305.284C480.571,308.632 491.924,308.238 501.845,303.771" style="fill:rgb(187,135,77);stroke:rgb(28,22,17);stroke-width:1.14px;"/>
        </g>
        <g transform="matrix(-1.19233,0.0554071,-0.062461,0.966548,898.562,-159.429)">
            <path d="M406.397,286.808C406.615,286.646 413.673,277.492 413.953,277.36C430.24,269.68 455.673,278.806 427.484,306.719C424.743,303.697 415.621,299.988 411.535,298.524C410.592,298.186 410.889,292.633 411.073,290.204C411.166,288.975 407.154,287.125 406.397,286.808Z" style="fill:rgb(126,86,54);stroke:rgb(28,22,17);stroke-width:1.14px;"/>
        </g>
        <g transform="matrix(-1.19233,0.0554071,-0.062461,0.966548,898.562,-159.429)">
            <path d="M490.884,284.661C492.499,281.378 496.827,280.161 495.959,279.066C494.409,277.109 490.411,272.404 487.014,271.324C471.999,266.55 444.312,288.169 480.987,305.968C481.404,306.17 489.434,296.146 492.871,293.412C495.473,291.341 490.795,284.619 490.884,284.661Z" style="fill:rgb(126,86,54);stroke:rgb(28,22,17);stroke-width:1.14px;"/>
        </g>
        <g transform="matrix(-1.19233,0.0554071,-0.062461,0.966548,898.562,-159.429)">
            <path d="M450.929,257.535L451.599,275.424" style="fill:none;stroke:rgb(28,22,17);stroke-width:1.14px;"/>
        </g>
        <g transform="matrix(-1.19233,0.0554071,-0.062461,0.966548,898.562,-159.429)">
            <path d="M451.599,267.962C451.599,267.962 459.731,267.197 460.592,265.475C461.453,263.753 459.922,277.146 451.982,276.285C451.503,272.841 451.599,267.962 451.599,267.962Z" style="fill:rgb(248,244,240);stroke:rgb(28,22,17);stroke-width:1.14px;"/>
        </g>
        <g transform="matrix(-1.19233,0.0554071,-0.062461,0.966548,898.562,-159.429)">
            <path d="M451.599,267.962C451.599,267.962 442.894,267.675 441.554,266.527C440.215,265.379 444.328,278.485 451.982,276.381C451.503,272.937 451.599,267.962 451.599,267.962Z" style="fill:rgb(242,237,232);stroke:rgb(28,22,17);stroke-width:1.14px;"/>
        </g>
        <g transform="matrix(-1.19233,0.0554071,-0.062461,0.966548,898.562,-159.429)">
            <path d="M432.838,276.708C432.838,276.708 426.672,278.203 426.299,280.632" style="fill:none;stroke:rgb(28,22,17);stroke-width:1.14px;"/>
        </g>
        <g transform="matrix(-1.19233,0.0554071,-0.062461,0.966548,898.562,-159.429)">
            <path d="M440.125,284.556C440.125,284.556 432.651,286.798 431.343,289.227" style="fill:none;stroke:rgb(28,22,17);stroke-width:1.14px;"/>
        </g>
        <g transform="matrix(-1.19233,0.0554071,-0.062461,0.966548,898.562,-159.429)">
            <path d="M468.526,277.082C468.526,277.082 476,277.082 477.494,279.511" style="fill:none;stroke:rgb(28,22,17);stroke-width:1.14px;"/>
        </g>
        <g transform="matrix(-1.19233,0.0554071,-0.062461,0.966548,898.562,-159.429)">
            <path d="M463.107,286.985C463.107,286.985 470.768,286.611 473.384,287.919" style="fill:none;stroke:rgb(28,22,17);stroke-width:1.14px;"/>
        </g>
        <g transform="matrix(-1.19233,0.0554071,-0.062461,0.966548,898.562,-159.429)">
            <path d="M450.929,257.439C448.729,257.439 439.641,254.665 439.928,251.221C440.215,247.777 445.285,245.959 449.781,245.098C454.278,244.237 463.27,247.873 461.644,250.743C460.018,253.612 454.66,257.439 450.929,257.439Z" style="fill:rgb(17,11,4);stroke:rgb(28,22,17);stroke-width:1.14px;"/>
        </g>
        <g transform="matrix(-1.19233,0.0554071,-0.062461,0.966548,898.562,-159.429)">
            <ellipse cx="424.813" cy="241.941" rx="2.487" ry="4.688" style="fill:rgb(17,11,4);stroke:rgb(28,22,17);stroke-width:1.14px;"/>
        </g>
        <g transform="matrix(-1.19233,0.0554071,-0.062461,0.966548,839.302,-159.256)">
            <ellipse cx="424.813" cy="241.941" rx="2.487" ry="4.688" style="fill:rgb(20,13,5);stroke:rgb(28,22,17);stroke-width:1.14px;"/>
        </g>
        <g transform="matrix(-1.19233,0.0554071,-0.062461,0.966548,898.562,-159.429)">
            <path d="M383.682,310.247C395.969,304.104 417.256,315.721 423.46,335.793C429.664,355.864 423.46,376.3 409.227,375.571C394.995,374.841 384.412,378.125 373.829,354.769C363.246,331.414 374.194,314.992 383.682,310.247Z" style="fill:rgb(126,86,54);stroke:rgb(28,22,17);stroke-width:1.14px;"/>
        </g>
        <g transform="matrix(-1.04825,0.55367,0.571593,0.794188,492.287,-295.641)">
            <path d="M383.682,310.247C395.969,304.104 417.256,315.721 423.46,335.793C429.664,355.864 423.46,376.3 409.227,375.571C394.995,374.841 384.412,378.125 373.829,354.769C363.246,331.414 374.194,314.992 383.682,310.247Z" style="fill:rgb(126,86,54);stroke:black;stroke-width:1.22px;"/>
        </g>
        <g transform="matrix(1.80786,-0.0840106,-0.094706,1.46552,41.5602,-471.895)">
            <path d="M139.265,446.998C139.265,446.998 140.819,450.226 141.178,453.216" style="fill:none;stroke:rgb(8,7,6);stroke-width:0.84px;"/>
        </g>
        <g transform="matrix(1.80786,-0.0840106,-0.094706,1.46552,41.5602,-471.895)">
            <path d="M145.483,442.812C145.483,442.812 147.994,446.639 147.994,449.15" style="fill:none;stroke:rgb(8,7,6);stroke-width:0.84px;"/>
        </g>
        <g transform="matrix(1.80786,-0.0840106,-0.094706,1.46552,41.5602,-471.895)">
            <path d="M153.376,442.573C153.376,442.573 154.452,446.4 154.452,448.552" style="fill:none;stroke:rgb(8,7,6);stroke-width:0.84px;"/>
        </g>
        <g transform="matrix(1.80786,-0.0840106,-0.094706,1.46552,41.5602,-471.895)">
            <path d="M225.005,445.443C225.005,445.443 223.091,448.313 222.972,450.585" style="fill:none;stroke:rgb(8,7,6);stroke-width:0.84px;"/>
        </g>
        <g transform="matrix(1.80786,-0.0840106,-0.094706,1.46552,41.5602,-471.895)">
            <path d="M232.18,444.845C232.18,444.845 229.788,448.791 229.668,450.705" style="fill:none;stroke:rgb(8,7,6);stroke-width:0.84px;"/>
        </g>
        <g transform="matrix(1.80786,-0.0840106,-0.094706,1.46552,41.5602,-471.895)">
            <path d="M236.963,448.193C236.963,448.193 235.169,451.063 234.81,453.335" style="fill:none;stroke:rgb(8,7,6);stroke-width:0.84px;"/>
        </g>
        <g transform="matrix(0.727313,0.349095,-0.596532,0.734356,377.286,-257.976)">
            <ellipse cx="264.895" cy="300.394" rx="19.957" ry="18.532" style="fill:rgb(239,124,77);stroke:black;stroke-width:1.58px;"/>
        </g>
        <g transform="matrix(0.727313,0.349095,-0.596532,0.734356,372.291,-247.569)">
            <path d="M279.72,276.731C279.72,276.731 300.818,253.352 312.793,260.194C324.767,267.037 309.941,274.45 317.354,292.126C324.767,309.803 296.256,304.671 280.291,295.547C281.664,292.104 282.881,281.984 279.72,276.731Z" style="fill:rgb(239,124,77);stroke:black;stroke-width:1.58px;"/>
        </g>
        <g transform="matrix(-0.727313,-0.349095,-0.596532,0.734356,752.095,-63.6027)">
            <path d="M279.72,276.731C279.72,276.731 300.818,253.352 312.793,260.194C324.767,267.037 309.941,274.45 317.354,292.126C324.767,309.803 296.256,304.671 280.291,295.547C281.664,292.104 282.881,281.984 279.72,276.731Z" style="fill:rgb(239,124,77);stroke:black;stroke-width:1.39px;"/>
        </g>
        <g transform="matrix(0.727313,0.349095,-0.596532,0.734356,372.291,-247.569)">
            <path d="M282.56,283.669C282.56,283.669 291.678,281.427 294.967,276.942" style="fill:rgb(239,124,77);stroke:black;stroke-width:1.58px;"/>
        </g>
        <g transform="matrix(0.727313,0.349095,-0.596532,0.734356,372.291,-247.569)">
            <path d="M282.112,289.349C282.112,289.349 292.127,288.303 294.967,291.292" style="fill:rgb(239,124,77);stroke:black;stroke-width:1.58px;"/>
        </g>
        <g transform="matrix(0.727313,0.349095,-0.596532,0.734356,372.291,-247.569)">
            <path d="M282.859,286.359L286.746,285.612" style="fill:none;stroke:black;stroke-width:1.58px;"/>
        </g>
        <g transform="matrix(0.727313,0.349095,-0.596532,0.734356,372.291,-247.569)">
            <path d="M241.753,283.519C241.753,283.519 230.841,279.484 228.898,274.252" style="fill:rgb(239,124,77);stroke:black;stroke-width:1.58px;"/>
        </g>
        <g transform="matrix(0.727313,0.349095,-0.596532,0.734356,372.291,-247.569)">
            <path d="M241.604,289.947C241.604,289.947 231.738,288.901 225.909,292.787" style="fill:rgb(239,124,77);stroke:black;stroke-width:1.58px;"/>
        </g>
        <g transform="matrix(0.727313,0.349095,-0.596532,0.734356,372.291,-247.569)">
            <path d="M241.155,286.808C241.155,286.808 234.279,285.313 232.785,284.267" style="fill:rgb(239,124,77);stroke:black;stroke-width:1.58px;"/>
        </g>
        <g transform="matrix(0.727313,0.349095,-0.596532,0.734356,372.291,-247.569)">
            <path d="M262.093,274.649C266.578,273.752 271.959,277.041 273.603,279.881" style="fill:rgb(239,124,77);stroke:black;stroke-width:1.58px;"/>
        </g>
    </g>
    <g transform="matrix(0.563651,0.321901,-0.252991,0.717178,216.74,-73.049)">
        <g id="Layer1">
            <path d="M439.159,286.853C439.159,286.853 445.727,300.356 444.633,304.37C443.538,308.384 439.159,304.005 439.159,304.005C439.159,304.005 438.429,311.304 432.955,316.778C427.481,322.252 404.49,328.09 396.462,308.749C388.433,289.408 386.243,271.526 439.159,286.853Z" style="fill:rgb(200,120,51);stroke:rgb(28,22,17);stroke-width:0.65px;"/>
        </g>
    </g>
    <g id="train" transform="matrix(0.679301,0,0,0.765783,91.444,-0.724596)">
        <g transform="matrix(1.15756,0,0,1.50113,-51.7923,-77.9017)">
            <path d="M269.82,224.139L270.018,166.896C270.018,166.896 240.58,153.674 242.196,139.332C244.616,117.849 328.904,115.843 328.267,143.597C327.796,164.094 308.309,160.445 302.607,166.86C296.905,173.275 299.043,224.851 299.043,224.851L269.82,224.139Z" style="fill:rgb(94,49,0);stroke:rgb(94,49,0);stroke-width:4.06px;"/>
        </g>
        <g transform="matrix(1.19117,0,0,1.50113,-71.4838,-78.7576)">
            <rect x="183.796" y="224.139" width="220.998" height="133.991" style="fill:rgb(142,210,131);stroke:rgb(118,228,79);stroke-width:6.04px;"/>
        </g>
        <g transform="matrix(1.19117,0,0,1.50113,-71.4838,-78.7576)">
            <path d="M177.988,233.404C177.988,233.404 304.86,213.447 413.199,235.543C415.337,212.734 418.901,202.043 418.901,202.043C418.901,202.043 287.867,161.416 173.712,199.905C172.172,228.415 177.988,233.404 177.988,233.404Z" style="fill:rgb(210,206,131);stroke:rgb(228,206,79);stroke-width:6.04px;"/>
        </g>
        <g transform="matrix(1.19117,0,0,1.50113,-79.974,-78.7576)">
            <path d="M369.607,267.082C369.607,260.297 361.78,254.787 352.14,254.787L245.234,254.787C235.594,254.787 227.767,260.297 227.767,267.082L227.767,291.673C227.767,298.458 235.594,303.968 245.234,303.968L352.14,303.968C361.78,303.968 369.607,298.458 369.607,291.673L369.607,267.082Z" style="fill:rgb(163,227,244);stroke:rgb(119,118,109);stroke-width:4.02px;"/>
        </g>
        <g transform="matrix(1.15756,0,0,1.50113,-65.6533,-78.7576)">
            <rect x="162.193" y="331.765" width="17.819" height="68.425" style="fill:rgb(14,27,31);stroke:rgb(15,15,8);stroke-width:4.06px;"/>
        </g>
        <g transform="matrix(1.15756,0,0,1.50113,228.068,-79.8276)">
            <rect x="162.193" y="331.765" width="17.819" height="68.425" style="fill:rgb(14,27,31);stroke:rgb(15,15,8);stroke-width:4.06px;"/>
        </g>
        <g transform="matrix(1.15756,0,0,1.30652,-63.075,-21.2444)">
            <path d="M294.448,100C292.187,101.13 289.84,102.113 287.429,102.873C275.834,106.523 276.18,91.281 269.39,86.079C264.087,82.017 252.384,85.778 247.125,85.519C242.133,85.274 238.17,77.058 237.149,73.651C233.9,62.805 236.948,49.076 245.724,41.531C251.834,36.278 257.395,46.995 263.821,42.923C269.863,39.096 270.387,31.228 275.603,26.797C286.888,17.211 295.386,30.69 306.98,28.889C315.682,27.537 321.733,20.034 330.311,18.701C333.52,18.203 338.878,18.179 341.713,20.879C347.974,26.841 338.942,36.79 339.515,43.168C340.155,50.288 353.24,48.477 356.002,55.317C358.379,61.202 357.151,74.56 351.524,79.118C349.162,81.032 341.042,83.491 338.995,86.079C333.808,92.637 338.114,95.321 332.035,101.392C330.076,103.348 324.407,101.526 322.636,101.2C315.251,99.839 301.812,97.216 294.448,97.216L294.448,100Z" style="fill:rgb(131,195,210);stroke:rgb(104,156,168);stroke-width:2.22px;"/>
        </g>
        <g transform="matrix(1.15756,0,0,1.30652,-184.256,-19.0618)">
            <path d="M403.032,80.51C403.032,69.003 404.808,56.506 418.345,55.452C420.196,55.308 422.14,54.907 423.914,55.452C426.936,56.38 427.338,60.171 430.874,59.629C433.539,59.22 436.125,58.405 438.734,57.727C439.753,57.462 443.691,55.833 444.796,56.844C445.832,57.794 445.713,59.514 445.951,60.9C447.086,67.522 446.745,74.506 449.051,80.816C451.092,86.399 458.38,87.257 462.257,91.633C463.067,92.548 463.75,94.727 463.166,95.939C459.689,103.159 451.177,104.885 443.997,103.956C439.91,103.427 435.481,101.724 431.261,102.202C424.674,102.948 422.187,112.694 414.83,110.874C409.296,109.505 408.885,102.606 406.942,98.494C405.768,96.008 405.198,93.903 402.39,93.855C400.434,93.822 397.206,96.046 396.072,93.039C393.64,86.595 400.248,83.513 400.248,77.726L403.032,80.51Z" style="fill:rgb(131,195,210);stroke:rgb(104,156,168);stroke-width:2.22px;"/>
        </g>
        <g transform="matrix(1.15756,0,0,1.30652,-166.53,-145.651)">
            <path d="M411.151,210.21C410.812,208.419 404.395,197.713 412.201,191.552C417.636,187.262 424.432,190.993 430.04,187.741C435.048,184.837 438.098,172.421 445.608,176.255C451.192,179.106 445.862,189.126 451.665,191.433C456.201,193.237 464.869,190.27 467.069,196.055C467.898,198.235 468.651,200.454 469.167,202.728C469.929,206.085 467.061,208.707 464.246,209.888C457.466,212.731 450.158,208.391 443.403,211.369C441.973,211.999 439.356,216.238 436.997,214.968C431.836,212.191 434.111,209.071 427.963,207.752C423.222,206.734 421.259,210.1 418.693,212.394C417.657,213.321 411.491,212.011 411.151,210.21Z" style="fill:rgb(131,195,210);stroke:rgb(104,156,168);stroke-width:2.22px;"/>
        </g>
    </g>
    <g id="Layer21" serif:id="Layer2" transform="matrix(0.679301,0,0,0.765783,90.6693,-8.58438)">
        <g transform="matrix(0.829753,0.420355,-0.372429,0.936529,185.59,-84.1814)">
            <path d="M440.123,219.891C440.123,219.891 447.597,201.674 462.778,204.009C466.327,207.569 463.946,211.249 464.647,215.921C465.348,220.592 456.706,234.372 445.729,230.868C434.752,227.365 440.123,219.891 440.123,219.891Z" style="fill:rgb(200,120,51);stroke:rgb(3,3,3);stroke-width:0.65px;"/>
        </g>
        <g transform="matrix(0.829753,0.420355,-0.372429,0.936529,185.59,-84.1814)">
            <path d="M460.223,209.186C460.223,209.186 448.162,216.349 447.672,223.084" style="fill:none;stroke:rgb(3,3,3);stroke-width:0.65px;"/>
        </g>
        <g transform="matrix(0.829753,0.420355,-0.372429,0.936529,185.59,-84.1814)">
            <path d="M392.719,275.831C392.719,275.831 391.598,304.636 427.285,300.308C462.973,295.979 462.226,276.361 460.357,261.413C457.368,251.884 454.378,249.642 452.136,244.41C450.267,234.694 439.804,206.854 423.362,207.041C420.389,206.052 418.69,204.799 419.438,201.809C420.185,198.82 414.767,203.678 414.206,206.48L413.646,209.283C413.646,209.283 411.03,201.809 412.151,197.885C413.272,193.962 404.677,203.117 404.49,206.48C404.303,209.844 402.622,205.546 401.688,203.491C400.753,201.436 399.445,205.546 398.885,208.909C398.324,212.273 377.771,216.383 378.706,228.528C373.661,226.286 356.097,223.483 351.613,231.518C347.129,239.552 366.934,248.707 374.782,247.4C372.353,254.126 379.335,279.966 392.906,284.769C393.452,281.885 392.719,275.831 392.719,275.831Z" style="fill:rgb(200,120,51);stroke:rgb(3,3,3);stroke-width:0.65px;"/>
        </g>
        <g transform="matrix(0.829753,0.420355,-0.372429,0.936529,185.59,-84.1814)">
            <circle cx="405.75" cy="250.316" r="4.664" style="fill:rgb(3,3,3);"/>
        </g>
        <g transform="matrix(0.829753,0.420355,-0.372429,0.936529,210.895,-79.1658)">
            <circle cx="405.75" cy="250.316" r="4.664" style="fill:rgb(3,3,3);"/>
        </g>
        <g transform="matrix(0.829753,0.420355,-0.372429,0.936529,185.59,-84.1814)">
            <path d="M357.882,234.288C357.882,234.288 366.991,231.952 373.53,236.623" style="fill:none;stroke:rgb(3,3,3);stroke-width:0.65px;"/>
        </g>
        <g transform="matrix(0.829753,0.420355,-0.372429,0.936529,185.59,-84.1814)">
            <path d="M403,249.359C403,249.359 402.641,247.685 404.674,247.685" style="fill:none;stroke:rgb(233,227,222);stroke-width:0.65px;"/>
        </g>
        <g transform="matrix(0.829753,0.420355,-0.372429,0.936529,185.59,-84.1814)">
            <path d="M430.264,243.26C430.264,243.26 430.145,241.347 431.819,241.108" style="fill:none;stroke:rgb(233,227,222);stroke-width:0.65px;"/>
        </g>
        <g transform="matrix(0.829753,0.420355,-0.372429,0.936529,185.59,-84.1814)">
            <path d="M411.638,269.404C411.638,269.404 408.672,269.499 408.385,272.082" style="fill:none;stroke:rgb(28,22,17);stroke-width:0.65px;"/>
        </g>
        <g transform="matrix(0.829753,0.420355,-0.372429,0.936529,185.59,-84.1814)">
            <path d="M446.077,262.133C446.077,262.133 444.164,260.316 441.581,261.177" style="fill:none;stroke:rgb(28,22,17);stroke-width:0.65px;"/>
        </g>
        <g transform="matrix(0.829753,0.420355,-0.372429,0.936529,185.59,-84.1814)">
            <path d="M438.823,213.746C438.823,213.746 436.955,188.288 441.626,189.222C446.297,190.157 449.567,192.025 451.902,195.295C454.238,198.565 438.123,166.801 446.297,165.166C454.472,163.531 460.311,176.143 461.478,178.712C462.646,181.282 460.077,149.751 465.682,152.788C471.288,155.824 480.396,164.465 483.433,175.676C486.469,186.887 471.988,206.506 438.823,213.746Z" style="fill:rgb(246,179,101);stroke:rgb(28,22,17);stroke-width:0.65px;"/>
        </g>
        <g transform="matrix(0.829753,0.420355,-0.372429,0.936529,185.59,-84.1814)">
            <path d="M429.247,210.864C429.247,210.864 448.166,208.061 448.166,202.456C448.166,196.85 448.399,184.005 453.304,185.406C458.209,186.808 459.376,198.252 463.814,194.515C468.251,190.778 461.011,166.488 470.821,168.357C480.63,170.225 476.192,182.603 479.462,184.238C482.732,185.873 479.696,152.942 488.104,157.146C496.512,161.35 494.176,181.202 493.008,188.91C491.841,196.617 480.864,216.623 438.59,220.44C396.316,224.256 429.247,210.864 429.247,210.864Z" style="fill:rgb(246,179,101);stroke:rgb(28,22,17);stroke-width:0.65px;"/>
        </g>
        <g transform="matrix(0.829753,0.420355,-0.372429,0.936529,185.59,-84.1814)">
            <path d="M374.362,224.256C374.362,224.256 374.139,214.182 367.4,202.738C361.592,192.874 357.078,206.039 358.48,213.746C359.881,221.453 356.378,223.789 354.976,222.154C353.575,220.519 354.509,190.39 347.97,187.12C341.43,183.851 339.562,209.775 337.226,214.68C334.891,219.585 337.693,178.712 329.052,176.844C320.41,174.976 317.14,191.091 316.44,202.302C315.739,213.512 351.473,231.73 374.362,224.256Z" style="fill:rgb(246,179,101);stroke:rgb(28,22,17);stroke-width:0.65px;"/>
        </g>
        <g transform="matrix(0.829753,0.420355,-0.372429,0.936529,185.59,-84.1814)">
            <path d="M385.572,222.621C385.572,222.621 376.697,224.49 370.858,218.884C365.019,213.279 364.786,205.104 359.414,203.937C354.042,202.769 354.276,211.41 352.641,214.914C351.006,218.417 345.167,192.025 337.927,192.492C330.686,192.959 333.179,210.76 330.219,210.476C323.454,209.828 322.278,177.078 312.936,175.676C303.594,174.275 299.39,214.914 316.44,226.592C333.489,238.269 373.427,237.102 383.704,234.533C393.98,231.963 385.572,222.621 385.572,222.621Z" style="fill:rgb(246,179,101);stroke:rgb(28,22,17);stroke-width:0.65px;"/>
        </g>
    </g>
</svg>
