<?xml version="1.0" encoding="UTF-8" standalone="no"?>
<!DOCTYPE svg PUBLIC "-//W3C//DTD SVG 1.1//EN" "http://www.w3.org/Graphics/SVG/1.1/DTD/svg11.dtd">
<svg width="100%" height="100%" viewBox="0 0 600 400" version="1.1" xmlns="http://www.w3.org/2000/svg" xmlns:xlink="http://www.w3.org/1999/xlink" xml:space="preserve" xmlns:serif="http://www.serif.com/" style="fill-rule:evenodd;clip-rule:evenodd;stroke-linecap:round;stroke-linejoin:round;stroke-miterlimit:1.5;">
    <g transform="matrix(0.997392,0,0,0.901021,7.33604,-46.8747)">
        <g id="blob">
            <path d="M107.8,133.877C119.863,112.497 130.497,95.602 151.338,87.31C155.357,85.711 162.893,82.652 167.043,81.994C177.221,80.38 185.667,79.649 195.885,84.526C206.121,89.411 215.048,97.968 226.649,99.883C231.659,100.71 235.833,101.332 240.891,101.792C244.326,102.104 249.526,102.356 252.962,101.231C280.131,92.338 304.171,76.345 330.999,66.627C343.928,61.944 358.733,56.468 372.683,60.86C384.434,64.559 390.285,76.803 397.787,85.23C407.024,95.606 417.364,106.74 431.152,110.976C450.784,117.008 471.694,115.206 491.839,116.526C502.811,117.245 513.653,123.358 518.855,133.25C526.113,147.05 528.036,164.432 520.927,178.728C518.865,182.873 515.079,186.058 513.287,190.326C509.263,199.905 508.103,211.139 511.894,220.953C514.773,228.404 520.201,233.644 525.582,239.705C528.647,243.157 540.137,250.275 543.006,255.279C545.347,259.36 538.999,281.892 539.187,286.33C539.576,295.492 546.461,300.58 546.585,309.749C546.639,313.692 544.621,318.165 542.521,322.119C540.766,325.423 534.652,329.844 531.413,331.003C517.953,335.82 498.037,337.42 487.433,349.357C472.801,365.828 487.25,386.981 486.554,405.717C485.839,424.985 469.371,439.652 453.681,448.01C413.754,469.277 375.161,452.414 336.483,437.72C305.679,426.018 306.137,425.027 273.976,418.676C254.5,414.831 237.799,432.061 223.15,441.046C208.143,450.25 189.82,453.067 172.538,450.696C168.707,450.171 164.879,449.398 161.225,448.136C134.898,439.042 130.355,407.087 129.724,383.142C129.644,380.114 131.32,368.595 130.456,365.692C128.952,360.638 112.313,342.582 97.045,336.498C81.703,330.384 61.831,327.329 51.801,312.173C48.53,307.231 46.128,301.712 44.145,296.127C31.828,261.434 65.92,233.005 91.477,216.776C98.226,212.491 107.249,211.064 112.344,204.277C123.28,189.709 106.068,173.732 102.21,160.023C99.469,150.283 107.8,133.877 107.8,133.877Z" style="fill:rgb(210,131,204);fill-opacity:0.64;stroke:rgb(192,79,228);stroke-width:6.31px;"/>
        </g>
    </g>
    <g id="track" transform="matrix(0.679301,0,0,0.765783,89.5878,-20.2142)">
        <g transform="matrix(1.06596,0,0,0.871542,0.948524,29.4523)">
            <path d="M297.216,253.364L0.696,597.216" style="fill:none;stroke:rgb(21,13,13);stroke-width:8.62px;"/>
        </g>
        <g transform="matrix(1.06596,0,0,0.871542,0.948524,29.4523)">
            <path d="M298.608,249.188L606.265,597.216" style="fill:none;stroke:rgb(21,13,13);stroke-width:8.62px;"/>
        </g>
        <g transform="matrix(1.06596,0,0,0.871542,0.948524,29.4523)">
            <path d="M242.036,282.941L355.508,282.941" style="fill:none;stroke:rgb(105,51,7);stroke-width:11.49px;"/>
        </g>
        <g transform="matrix(1.06596,0,0,0.871542,0.948524,29.4523)">
            <path d="M210.675,320.575L389.15,320.575" style="fill:none;stroke:rgb(105,51,7);stroke-width:11.49px;"/>
        </g>
        <g transform="matrix(1.06596,0,0,0.871542,0.948524,29.4523)">
            <path d="M181.024,353.076L417.661,353.076" style="fill:none;stroke:rgb(105,51,7);stroke-width:11.49px;"/>
        </g>
        <g transform="matrix(1.06596,0,0,0.871542,0.948524,29.4523)">
            <path d="M151.944,390.14L450.163,390.14" style="fill:none;stroke:rgb(105,51,7);stroke-width:11.49px;"/>
        </g>
        <g transform="matrix(1.06596,0,0,0.871542,0.948524,29.4523)">
            <path d="M113.169,433.476L487.796,433.476" style="fill:none;stroke:rgb(105,51,7);stroke-width:11.49px;"/>
        </g>
        <g transform="matrix(1.06596,0,0,0.871542,0.948524,29.4523)">
            <path d="M79.171,471.644L522.864,471.644" style="fill:none;stroke:rgb(105,51,7);stroke-width:11.49px;"/>
        </g>
        <g transform="matrix(1.06596,0,0,0.871542,0.948524,29.4523)">
            <path d="M36.405,523.319L569.194,523.319" style="fill:none;stroke:rgb(105,51,7);stroke-width:11.49px;"/>
        </g>
        <g transform="matrix(1.06596,0,0,0.871542,0.948524,29.4523)">
            <path d="M-14.379,583.013L605.723,583.013" style="fill:none;stroke:rgb(105,51,7);stroke-width:11.49px;"/>
        </g>
    </g>
    <g id="Layer1" transform="matrix(0.672074,0.111401,-0.0988198,0.757637,115.383,-17.3688)">
        <g transform="matrix(1.06185,-0.0279824,-0.0279824,0.875656,7.63174,28.1644)">
            <path d="M189.346,256.379C189.346,256.379 184.558,247.832 178.825,250.989C167.8,257.061 154.644,251.144 152.468,240.524C149.995,228.45 156.118,219.997 169.346,219.541C182.575,219.084 200.822,221.821 208.577,229.12C216.332,236.419 224.086,250.104 225.455,262.876C226.823,275.649 223.63,286.597 233.21,292.983C242.789,299.37 187.521,297.434 189.346,256.379Z" style="fill:rgb(138,90,27);"/>
        </g>
        <g transform="matrix(0.892386,-0.0235166,-0.0214635,0.67166,33.8951,73.3192)">
            <ellipse cx="166.621" cy="228.203" rx="2.99" ry="3.27" style="fill:rgb(226,218,208);"/>
        </g>
        <g transform="matrix(1.00973,-0.0266089,-0.0258191,0.80796,14.5781,42.7682)">
            <ellipse cx="166.381" cy="228.208" rx="1.597" ry="1.825" style="fill:rgb(31,22,11);"/>
        </g>
        <g transform="matrix(1.06185,-0.0279824,-0.0279824,0.875656,6.81491,28.2171)">
            <circle cx="166.21" cy="227.889" r="0.276" style="fill:rgb(226,218,208);"/>
        </g>
        <g transform="matrix(1.06185,-0.0279824,-0.0279824,0.875656,7.63174,28.1644)">
            <path d="M152.522,236.121C152.522,236.121 151.837,241.607 153.894,244.056C155.951,246.505 165.851,235.142 152.522,236.121Z" style="fill:rgb(245,211,167);stroke:rgb(94,61,17);stroke-width:0.73px;"/>
        </g>
        <g transform="matrix(1.20103,-0.0316501,-0.0279824,0.875656,-13.9462,28.733)">
            <ellipse cx="153.543" cy="238.427" rx="1.495" ry="2.631" style="fill:rgb(19,14,6);"/>
        </g>
        <g transform="matrix(1.06185,-0.0279824,-0.0279824,0.875656,7.63174,28.1644)">
            <path d="M173.214,220.968C173.214,220.968 170.823,214.152 173.932,213.793C177.041,213.434 177.519,220.609 176.084,221.805C174.649,223.001 173.214,220.968 173.214,220.968Z" style="fill:rgb(138,90,27);"/>
        </g>
        <g transform="matrix(1.06185,-0.0279824,-0.0279824,0.875656,7.63174,28.1644)">
            <path d="M174.051,215.467C174.051,215.467 175.725,218.696 175.008,220.37" style="fill:rgb(20,11,0);"/>
        </g>
        <g transform="matrix(1.06185,-0.0279824,-0.0279824,0.875656,7.63174,28.1644)">
            <path d="M153.483,241.058L154.44,243.33" style="fill:none;stroke:rgb(16,10,3);stroke-width:0.73px;"/>
        </g>
        <g transform="matrix(1.02379,-0.282307,0.283116,0.829373,-61.6712,78.2599)">
            <path d="M153.108,243.84L154.636,243.801L154.832,245.917L153.265,246.152L153.108,243.84Z" style="fill:rgb(255,251,247);stroke:rgb(16,10,3);stroke-width:0.71px;"/>
        </g>
        <g transform="matrix(1.02379,-0.282307,0.283116,0.829373,-62.6195,78.576)">
            <path d="M154.872,243.644L155.93,243.409L156.909,245.485L155.146,245.956L154.872,243.644Z" style="fill:rgb(255,251,247);stroke:rgb(16,10,3);stroke-width:0.71px;"/>
        </g>
        <g transform="matrix(1.05463,-0.155069,0.126786,0.86227,-32.8866,30.8489)">
            <path d="M168.57,250.4C168.57,250.4 171.125,249.556 171.79,252.474" style="fill:none;stroke:rgb(3,3,3);stroke-width:0.72px;"/>
        </g>
        <g transform="matrix(0.796762,0.166269,-0.248431,0.667979,185.896,-64.4104)">
            <path d="M439.159,286.853C439.159,286.853 445.727,300.356 444.633,304.37C443.538,308.384 439.159,304.005 439.159,304.005C439.159,304.005 438.429,311.304 432.955,316.778C427.481,322.252 404.49,328.09 396.462,308.749C388.433,289.408 386.243,271.526 439.159,286.853Z" style="fill:rgb(200,120,51);stroke:rgb(28,22,17);stroke-width:0.94px;"/>
        </g>
    </g>
    <g id="train" transform="matrix(0.679301,0,0,0.765783,89.5878,-20.2142)">
        <g transform="matrix(1.06596,0,0,1.00137,13.7128,-21.931)">
            <path d="M269.82,224.139L270.018,166.896C270.018,166.896 240.58,153.674 242.196,139.332C244.616,117.849 328.904,115.843 328.267,143.597C327.796,164.094 308.309,160.445 302.607,166.86C296.905,173.275 299.043,224.851 299.043,224.851L269.82,224.139Z" style="fill:rgb(94,49,0);stroke:rgb(94,49,0);stroke-width:5.36px;"/>
        </g>
        <g transform="matrix(1.09692,0,0,1.00137,-4.42062,-22.502)">
            <rect x="183.796" y="224.139" width="220.998" height="133.991" style="fill:rgb(142,210,131);stroke:rgb(118,228,79);stroke-width:7.94px;"/>
        </g>
        <g transform="matrix(1.09692,0,0,1.00137,-4.42062,-22.502)">
            <path d="M177.988,233.404C177.988,233.404 304.86,213.447 413.199,235.543C415.337,212.734 418.901,202.043 418.901,202.043C418.901,202.043 287.867,161.416 173.712,199.905C172.172,228.415 177.988,233.404 177.988,233.404Z" style="fill:rgb(210,206,131);stroke:rgb(228,206,79);stroke-width:7.94px;"/>
        </g>
        <g transform="matrix(1.09692,0,0,1.00137,-12.239,-22.502)">
            <path d="M369.607,267.082C369.607,260.297 363.937,254.787 356.954,254.787L240.42,254.787C233.437,254.787 227.767,260.297 227.767,267.082L227.767,291.673C227.767,298.458 233.437,303.968 240.42,303.968L356.954,303.968C363.937,303.968 369.607,298.458 369.607,291.673L369.607,267.082Z" style="fill:rgb(163,227,244);stroke:rgb(119,118,109);stroke-width:5.29px;"/>
        </g>
        <g transform="matrix(1.06596,0,0,1.00137,0.948524,-22.502)">
            <rect x="162.193" y="331.765" width="17.819" height="68.425" style="fill:rgb(14,27,31);stroke:rgb(15,15,8);stroke-width:5.36px;"/>
        </g>
        <g transform="matrix(1.06596,0,0,1.00137,271.429,-23.2157)">
            <rect x="162.193" y="331.765" width="17.819" height="68.425" style="fill:rgb(14,27,31);stroke:rgb(15,15,8);stroke-width:5.36px;"/>
        </g>
        <g transform="matrix(1.06596,0,0,0.871542,3.32283,15.8635)">
            <path d="M294.448,100C292.187,101.13 289.84,102.113 287.429,102.873C275.834,106.523 276.18,91.281 269.39,86.079C264.087,82.017 252.384,85.778 247.125,85.519C242.133,85.274 238.17,77.058 237.149,73.651C233.9,62.805 236.948,49.076 245.724,41.531C251.834,36.278 257.395,46.995 263.821,42.923C269.863,39.096 270.387,31.228 275.603,26.797C286.888,17.211 295.386,30.69 306.98,28.889C315.682,27.537 321.733,20.034 330.311,18.701C333.52,18.203 338.878,18.179 341.713,20.879C347.974,26.841 338.942,36.79 339.515,43.168C340.155,50.288 353.24,48.477 356.002,55.317C358.379,61.202 357.151,74.56 351.524,79.118C349.162,81.032 341.042,83.491 338.995,86.079C333.808,92.637 338.114,95.321 332.035,101.392C330.076,103.348 324.407,101.526 322.636,101.2C315.251,99.839 301.812,97.216 294.448,97.216L294.448,100Z" style="fill:rgb(131,195,210);stroke:rgb(104,156,168);stroke-width:2.87px;"/>
        </g>
        <g transform="matrix(1.06596,0,0,0.871542,-108.27,17.3195)">
            <path d="M403.032,80.51C403.032,69.003 404.808,56.506 418.345,55.452C420.196,55.308 422.14,54.907 423.914,55.452C426.936,56.38 427.338,60.171 430.874,59.629C433.539,59.22 436.125,58.405 438.734,57.727C439.753,57.462 443.691,55.833 444.796,56.844C445.832,57.794 445.713,59.514 445.951,60.9C447.086,67.522 446.745,74.506 449.051,80.816C451.092,86.399 458.38,87.257 462.257,91.633C463.067,92.548 463.75,94.727 463.166,95.939C459.689,103.159 451.177,104.885 443.997,103.956C439.91,103.427 435.481,101.724 431.261,102.202C424.674,102.948 422.187,112.694 414.83,110.874C409.296,109.505 408.885,102.606 406.942,98.494C405.768,96.008 405.198,93.903 402.39,93.855C400.434,93.822 397.206,96.046 396.072,93.039C393.64,86.595 400.248,83.513 400.248,77.726L403.032,80.51Z" style="fill:rgb(131,195,210);stroke:rgb(104,156,168);stroke-width:2.87px;"/>
        </g>
        <g transform="matrix(1.06596,0,0,0.871542,-91.9462,-67.1249)">
            <path d="M411.151,210.21C410.812,208.419 404.395,197.713 412.201,191.552C417.636,187.262 424.432,190.993 430.04,187.741C435.048,184.837 438.098,172.421 445.608,176.255C451.192,179.106 445.862,189.126 451.665,191.433C456.201,193.237 464.869,190.27 467.069,196.055C467.898,198.235 468.651,200.454 469.167,202.728C469.929,206.085 467.061,208.707 464.246,209.888C457.466,212.731 450.158,208.391 443.403,211.369C441.973,211.999 439.356,216.238 436.997,214.968C431.836,212.191 434.111,209.071 427.963,207.752C423.222,206.734 421.259,210.1 418.693,212.394C417.657,213.321 411.491,212.011 411.151,210.21Z" style="fill:rgb(131,195,210);stroke:rgb(104,156,168);stroke-width:2.87px;"/>
        </g>
    </g>
    <g id="Layer2" transform="matrix(0.679301,0,0,0.765783,88.8131,-28.0739)">
        <g transform="matrix(0.764098,0.280408,-0.342961,0.624733,232.402,-22.703)">
            <path d="M440.123,219.891C440.123,219.891 447.597,201.674 462.778,204.009C466.327,207.569 463.946,211.249 464.647,215.921C465.348,220.592 456.706,234.372 445.729,230.868C434.752,227.365 440.123,219.891 440.123,219.891Z" style="fill:rgb(200,120,51);stroke:rgb(3,3,3);stroke-width:0.94px;"/>
        </g>
        <g transform="matrix(0.764098,0.280408,-0.342961,0.624733,232.402,-22.703)">
            <path d="M460.223,209.186C460.223,209.186 448.162,216.349 447.672,223.084" style="fill:none;stroke:rgb(3,3,3);stroke-width:0.94px;"/>
        </g>
        <g transform="matrix(0.764098,0.280408,-0.342961,0.624733,232.402,-22.703)">
            <path d="M392.719,275.831C392.719,275.831 391.598,304.636 427.285,300.308C462.973,295.979 462.226,276.361 460.357,261.413C457.368,251.884 454.378,249.642 452.136,244.41C450.267,234.694 439.804,206.854 423.362,207.041C420.389,206.052 418.69,204.799 419.438,201.809C420.185,198.82 414.767,203.678 414.206,206.48L413.646,209.283C413.646,209.283 411.03,201.809 412.151,197.885C413.272,193.962 404.677,203.117 404.49,206.48C404.303,209.844 402.622,205.546 401.688,203.491C400.753,201.436 399.445,205.546 398.885,208.909C398.324,212.273 377.771,216.383 378.706,228.528C373.661,226.286 356.097,223.483 351.613,231.518C347.129,239.552 366.934,248.707 374.782,247.4C372.353,254.126 379.335,279.966 392.906,284.769C393.452,281.885 392.719,275.831 392.719,275.831Z" style="fill:rgb(200,120,51);stroke:rgb(3,3,3);stroke-width:0.94px;"/>
        </g>
        <g transform="matrix(0.764098,0.280408,-0.342961,0.624733,232.402,-22.703)">
            <circle cx="405.75" cy="250.316" r="4.664" style="fill:rgb(3,3,3);"/>
        </g>
        <g transform="matrix(0.764098,0.280408,-0.342961,0.624733,255.705,-19.3572)">
            <circle cx="405.75" cy="250.316" r="4.664" style="fill:rgb(3,3,3);"/>
        </g>
        <g transform="matrix(0.764098,0.280408,-0.342961,0.624733,232.402,-22.703)">
            <path d="M357.882,234.288C357.882,234.288 366.991,231.952 373.53,236.623" style="fill:none;stroke:rgb(3,3,3);stroke-width:0.94px;"/>
        </g>
        <g transform="matrix(0.764098,0.280408,-0.342961,0.624733,232.402,-22.703)">
            <path d="M403,249.359C403,249.359 402.641,247.685 404.674,247.685" style="fill:none;stroke:rgb(233,227,222);stroke-width:0.94px;"/>
        </g>
        <g transform="matrix(0.764098,0.280408,-0.342961,0.624733,232.402,-22.703)">
            <path d="M430.264,243.26C430.264,243.26 430.145,241.347 431.819,241.108" style="fill:none;stroke:rgb(233,227,222);stroke-width:0.94px;"/>
        </g>
        <g transform="matrix(0.764098,0.280408,-0.342961,0.624733,232.402,-22.703)">
            <path d="M411.638,269.404C411.638,269.404 408.672,269.499 408.385,272.082" style="fill:none;stroke:rgb(28,22,17);stroke-width:0.94px;"/>
        </g>
        <g transform="matrix(0.764098,0.280408,-0.342961,0.624733,232.402,-22.703)">
            <path d="M446.077,262.133C446.077,262.133 444.164,260.316 441.581,261.177" style="fill:none;stroke:rgb(28,22,17);stroke-width:0.94px;"/>
        </g>
        <g transform="matrix(0.764098,0.280408,-0.342961,0.624733,232.402,-22.703)">
            <path d="M438.823,213.746C438.823,213.746 436.955,188.288 441.626,189.222C446.297,190.157 449.567,192.025 451.902,195.295C454.238,198.565 438.123,166.801 446.297,165.166C454.472,163.531 460.311,176.143 461.478,178.712C462.646,181.282 460.077,149.751 465.682,152.788C471.288,155.824 480.396,164.465 483.433,175.676C486.469,186.887 471.988,206.506 438.823,213.746Z" style="fill:rgb(246,179,101);stroke:rgb(28,22,17);stroke-width:0.94px;"/>
        </g>
        <g transform="matrix(0.764098,0.280408,-0.342961,0.624733,232.402,-22.703)">
            <path d="M429.247,210.864C429.247,210.864 448.166,208.061 448.166,202.456C448.166,196.85 448.399,184.005 453.304,185.406C458.209,186.808 459.376,198.252 463.814,194.515C468.251,190.778 461.011,166.488 470.821,168.357C480.63,170.225 476.192,182.603 479.462,184.238C482.732,185.873 479.696,152.942 488.104,157.146C496.512,161.35 494.176,181.202 493.008,188.91C491.841,196.617 480.864,216.623 438.59,220.44C396.316,224.256 429.247,210.864 429.247,210.864Z" style="fill:rgb(246,179,101);stroke:rgb(28,22,17);stroke-width:0.94px;"/>
        </g>
        <g transform="matrix(0.764098,0.280408,-0.342961,0.624733,232.402,-22.703)">
            <path d="M374.362,224.256C374.362,224.256 374.139,214.182 367.4,202.738C361.592,192.874 357.078,206.039 358.48,213.746C359.881,221.453 356.378,223.789 354.976,222.154C353.575,220.519 354.509,190.39 347.97,187.12C341.43,183.851 339.562,209.775 337.226,214.68C334.891,219.585 337.693,178.712 329.052,176.844C320.41,174.976 317.14,191.091 316.44,202.302C315.739,213.512 351.473,231.73 374.362,224.256Z" style="fill:rgb(246,179,101);stroke:rgb(28,22,17);stroke-width:0.94px;"/>
        </g>
        <g transform="matrix(0.764098,0.280408,-0.342961,0.624733,232.402,-22.703)">
            <path d="M385.572,222.621C385.572,222.621 376.697,224.49 370.858,218.884C365.019,213.279 364.786,205.104 359.414,203.937C354.042,202.769 354.276,211.41 352.641,214.914C351.006,218.417 345.167,192.025 337.927,192.492C330.686,192.959 333.179,210.76 330.219,210.476C323.454,209.828 322.278,177.078 312.936,175.676C303.594,174.275 299.39,214.914 316.44,226.592C333.489,238.269 373.427,237.102 383.704,234.533C393.98,231.963 385.572,222.621 385.572,222.621Z" style="fill:rgb(246,179,101);stroke:rgb(28,22,17);stroke-width:0.94px;"/>
        </g>
    </g>
</svg>
