<?xml version="1.0" encoding="UTF-8" standalone="no"?>
<!DOCTYPE svg PUBLIC "-//W3C//DTD SVG 1.1//EN" "http://www.w3.org/Graphics/SVG/1.1/DTD/svg11.dtd">
<svg width="100%" height="100%" viewBox="0 0 600 600" version="1.1" xmlns="http://www.w3.org/2000/svg" xmlns:xlink="http://www.w3.org/1999/xlink" xml:space="preserve" xmlns:serif="http://www.serif.com/" style="fill-rule:evenodd;clip-rule:evenodd;stroke-linecap:round;stroke-linejoin:round;stroke-miterlimit:1.5;">
    <g transform="matrix(3.71821,0,0,3.03033,-880.563,-1220.16)">
        <g id="waving">
            <path d="M237.091,402.67L311.337,402.761L332.538,601.322L236.691,600.5L237.091,402.67Z" style="fill:rgb(75,94,114);stroke:rgb(9,17,25);stroke-width:1.18px;"/>
        </g>
    </g>
    <g id="tools" transform="matrix(1.4708,0,0,1.44094,-66.9532,-146.647)">
        <path d="M138.421,365.286L214.601,339.741L215.97,406.341L140.702,434.167L138.421,365.286Z" style="fill:rgb(131,69,9);stroke:rgb(24,34,45);stroke-width:0.69px;"/>
        <path d="M141.158,433.711L131.123,430.518L131.123,363.461L138.878,366.654L141.158,433.711Z" style="fill:rgb(131,69,9);stroke:rgb(24,34,45);stroke-width:0.69px;"/>
        <path d="M215.057,340.197L376.54,372.128L371.979,438.729L216.882,405.428L215.057,340.197Z" style="fill:rgb(131,69,9);stroke:rgb(24,34,45);stroke-width:0.69px;"/>
        <path d="M215.057,339.284L386.12,364.83L372.705,371.048L209.127,341.565L215.057,339.284Z" style="fill:rgb(131,69,9);stroke:rgb(24,34,45);stroke-width:0.69px;"/>
        <path d="M273.445,392.242L244.25,339.692C244.25,339.692 243.674,320.658 227.201,324.044C216.048,326.336 215.578,344.634 222.993,348.084C230.402,351.532 250.089,392.709 250.089,392.709L273.445,392.242Z" style="fill:rgb(199,16,42);stroke:rgb(24,34,45);stroke-width:0.69px;"/>
        <path d="M224.895,344.883C224.895,344.883 238.647,341.893 243.579,334.868" style="fill:none;stroke:rgb(24,34,45);stroke-width:0.69px;"/>
        <path d="M230.575,346.228C230.575,346.228 240.889,342.491 244.028,339.203" style="fill:none;stroke:rgb(24,34,45);stroke-width:0.69px;"/>
        <path d="M244.327,375.376C244.327,375.376 227.735,352.058 233.415,350.414C239.095,348.769 249.708,374.18 253.295,379.562" style="fill:none;stroke:rgb(24,34,45);stroke-width:0.69px;"/>
        <path d="M257.182,379.412C257.182,379.412 237.301,349.517 241.487,347.275C245.672,345.032 262.114,374.031 262.114,374.031" style="fill:none;stroke:rgb(24,34,45);stroke-width:0.69px;"/>
        <path d="M251.081,322.184C251.081,322.184 243.421,336.01 264.347,343.297C285.274,350.584 265.282,337.879 265.282,337.879C265.282,337.879 250.708,324.613 251.081,322.184Z" style="fill:rgb(132,132,132);stroke:rgb(24,34,45);stroke-width:0.69px;"/>
        <path d="M264.955,394.023L262.924,341.249C262.924,341.249 236.308,322.862 258.356,308.558C259.281,316.755 259.723,325.16 259.723,325.16C259.723,325.16 265.141,332.447 275.792,326.095C275.88,318.9 275.792,309.652 275.792,309.652C275.792,309.652 297.466,322.521 280.836,337.492C279.437,354.147 282.892,395.812 282.892,395.812L264.955,394.023Z" style="fill:rgb(159,159,159);stroke:rgb(24,34,45);stroke-width:0.69px;"/>
        <path d="M170.809,267.294C170.809,267.294 153.019,254.066 153.019,299.226C153.019,344.387 133.404,362.177 133.404,362.177L152.563,361.265L170.809,267.294Z" style="fill:rgb(131,69,9);stroke:rgb(24,34,45);stroke-width:0.69px;"/>
        <path d="M201.372,341.65L178.108,293.752C178.108,293.752 180.389,266.838 168.072,266.838C155.756,266.838 160.774,283.716 161.23,291.927C161.686,300.138 143.895,350.773 142.983,360.352C142.071,369.932 201.372,341.65 201.372,341.65Z" style="fill:rgb(131,69,9);stroke:rgb(24,34,45);stroke-width:0.69px;"/>
        <path d="M271.074,385.525C271.074,385.525 265.842,346.287 271.634,346.1C277.427,345.913 276.679,379.349 276.492,387.206C276.305,395.063 271.447,388.505 271.074,385.525Z" style="fill:rgb(132,132,132);stroke:rgb(24,34,45);stroke-width:0.69px;"/>
        <path d="M186.795,359.311L200.575,350.436L232.806,383.601L215.289,390.607L186.795,359.311Z" style="fill:rgb(120,71,7);stroke:rgb(24,34,45);stroke-width:0.69px;"/>
        <path d="M131.579,363.461L209.127,336.091L215.514,339.741L139.79,366.654L131.579,363.461Z" style="fill:rgb(131,69,9);stroke:rgb(24,34,45);stroke-width:0.69px;"/>
        <path d="M175.647,302.463C175.647,302.463 128.352,334.286 134.191,358.225C140.412,358.67 138.516,346.162 141.489,343.92C142.473,345.734 135.65,362.313 142.657,369.319C149.664,376.326 139.154,329.323 186.741,361.145C193.456,362.838 200.202,358.56 201.63,351.219C200.992,343.418 183.595,334.98 192.872,323.192C203.724,309.401 178.858,316.477 175.647,302.463Z" style="fill:rgb(159,159,159);stroke:rgb(24,34,45);stroke-width:0.69px;"/>
        <g transform="matrix(1.22892,0,0,1.09278,-49.6702,-29.403)">
            <ellipse cx="195.937" cy="309.032" rx="12.116" ry="14.159" style="fill:rgb(128,128,128);stroke:rgb(24,34,45);stroke-width:0.59px;"/>
        </g>
        <path d="M184.697,297.5C184.697,297.5 182.654,313.849 199.003,317.353" style="fill:none;stroke:rgb(24,34,45);stroke-width:0.69px;"/>
        <path d="M139.334,365.286L299.448,399.042L299.448,488.451L140.702,432.798L139.334,365.286Z" style="fill:rgb(131,69,9);stroke:rgb(24,34,45);stroke-width:0.69px;"/>
        <path d="M295.799,371.757L401.173,290.559L419.42,311.543L414.402,311.999L414.402,317.473L408.472,317.017L408.472,322.947L403.91,322.947L404.823,328.877L398.436,329.333L399.349,335.263L392.05,334.807L392.506,343.018L385.664,342.106L387.032,348.492L381.102,347.58L380.19,353.966L372.435,354.878L326.231,418.769L295.799,371.757Z" style="fill:rgb(132,132,132);stroke:rgb(24,34,45);stroke-width:0.69px;"/>
        <path d="M316.057,327.051L334.742,335.693L351.791,311.87L355.295,315.84L340.58,341.765C340.58,341.765 318.86,344.101 314.188,331.722C309.517,319.344 316.057,327.051 316.057,327.051Z" style="fill:rgb(132,132,132);stroke:rgb(24,34,45);stroke-width:0.69px;"/>
        <path d="M173.09,270.031C173.09,270.031 158.037,279.155 174.459,291.927C192.983,293.723 348.258,310.63 348.258,310.63L352.82,286.91L173.09,270.031Z" style="fill:rgb(107,104,93);stroke:rgb(24,34,45);stroke-width:0.69px;"/>
        <path d="M319.794,301.593L324.932,306.965C324.932,306.965 298.307,311.636 304.846,344.801C311.386,377.967 276.586,309.768 319.794,301.593Z" style="fill:rgb(132,132,132);stroke:rgb(24,34,45);stroke-width:0.69px;"/>
        <path d="M324.796,307.335L314.188,331.022C314.188,331.022 316.29,343.867 341.048,342.232C346.791,333.662 355.289,315.396 355.289,315.396C355.289,315.396 364.403,355.312 331.705,356.012C322.363,368.391 307.649,399.22 307.649,399.22L280.79,390.812L304.145,347.371C304.145,347.371 297.236,313.174 324.796,307.335Z" style="fill:rgb(159,159,159);stroke:rgb(24,34,45);stroke-width:0.69px;"/>
        <path d="M294.336,390.112C294.336,390.112 309.751,360.917 314.188,363.019C318.626,365.121 303.912,390.781 299.474,394.316C295.037,397.851 292.935,395.919 294.336,390.112Z" style="fill:rgb(132,132,132);stroke:rgb(24,34,45);stroke-width:0.69px;"/>
        <path d="M299.448,398.586L386.12,365.286L395.499,366.888L309.028,401.323L299.448,398.586Z" style="fill:rgb(131,69,9);stroke:rgb(24,34,45);stroke-width:0.69px;"/>
        <path d="M299.448,398.586L300.361,489.363L312.498,493.68L308.115,402.235L299.448,398.586Z" style="fill:rgb(131,69,9);stroke:rgb(24,34,45);stroke-width:0.69px;"/>
        <path d="M308.572,401.779L394.331,368.023L395.699,458.344L312.221,494.381L308.572,401.779Z" style="fill:rgb(131,69,9);stroke:rgb(24,34,45);stroke-width:0.69px;"/>
        <path d="M360.732,289.836C360.732,289.836 335.989,269.674 338.679,316.104C341.621,366.902 307.203,422.847 340.503,417.829C372.402,406.272 351.451,399.583 354.644,372.669C357.838,345.755 360.732,289.836 360.732,289.836Z" style="fill:rgb(131,69,9);stroke:rgb(24,34,45);stroke-width:0.69px;"/>
        <path d="M342.784,417.373L385.208,397.758C385.208,397.758 394.331,391.912 366.961,311.999C359.21,295.146 365.552,291.653 356.925,287.281C336.854,284.544 350.083,301.423 348.258,314.195C346.433,326.968 322.713,416.545 342.784,417.373Z" style="fill:rgb(131,69,9);stroke:rgb(24,34,45);stroke-width:0.69px;"/>
        <path d="M139.334,368.023L299.715,398.776L304.499,396.083L147.089,363.005L139.334,368.023Z" style="fill:rgb(131,69,9);stroke:rgb(24,34,45);stroke-width:0.69px;"/>
        <ellipse cx="355.705" cy="298.978" rx="5.021" ry="8.992" style="fill:rgb(107,104,93);stroke:rgb(24,34,45);stroke-width:0.69px;"/>
        <g transform="matrix(1,0,0,1,-0.934229,-2.80269)">
            <ellipse cx="348.815" cy="405.714" rx="5.372" ry="5.489" style="fill:rgb(107,104,93);stroke:rgb(24,34,45);stroke-width:0.69px;"/>
        </g>
        <g transform="matrix(1,0,0,1,-2.33557,-2.80269)">
            <ellipse cx="381.746" cy="393.919" rx="4.671" ry="4.905" style="fill:rgb(107,104,93);stroke:rgb(24,34,45);stroke-width:0.69px;"/>
        </g>
        <g transform="matrix(1,0,0,1,-1.05232,0.956651)">
            <ellipse cx="350.45" cy="402.094" rx="4.438" ry="5.138" style="fill:rgb(107,104,93);stroke:rgb(24,34,45);stroke-width:0.69px;"/>
        </g>
        <g transform="matrix(1,0,0,0.953455,30.5435,7.57066)">
            <ellipse cx="350.45" cy="402.094" rx="4.438" ry="5.138" style="fill:rgb(107,104,93);stroke:rgb(24,34,45);stroke-width:0.7px;"/>
        </g>
    </g>
    <g id="hand">
        <g transform="matrix(2.84763,-0.279619,0.353466,2.2527,-1136.03,-834.327)">
            <path d="M417.236,516.011C417.236,516.011 405.037,511.151 404.837,526.437C404.565,547.23 425.068,581.393 447.051,569.231C462.22,560.838 458.604,550.444 456.879,544.332C453.496,532.345 454.58,536.528 458.673,541.422C465.948,542.335 472.177,545.257 472.29,543.985C470.415,528.261 461.484,515.555 451.449,509.168C441.413,502.782 419.061,513.73 417.236,516.011Z" style="fill:rgb(229,206,122);stroke:black;stroke-width:1.5px;"/>
        </g>
        <g transform="matrix(2.16656,-1.4884,-1.88148,-1.71391,391.35,535.628)">
            <path d="M100.869,224.672C99.895,219.791 100.283,217.93 98.122,209.135C91.206,180.99 82.976,149.735 85.649,139.641C88.322,129.546 45.307,137.672 38.179,144.799C31.052,151.927 39.366,211.134 47.873,232.861C56.15,254.002 53.425,248.579 59.141,261.044C70.83,249.52 92.589,232.742 100.869,224.672Z" style="fill:rgb(180,203,227);stroke:black;stroke-width:1.76px;"/>
        </g>
    </g>
</svg>
