<?xml version="1.0" encoding="UTF-8" standalone="no"?>
<!DOCTYPE svg PUBLIC "-//W3C//DTD SVG 1.1//EN" "http://www.w3.org/Graphics/SVG/1.1/DTD/svg11.dtd">
<svg width="100%" height="100%" viewBox="0 0 600 600" version="1.1" xmlns="http://www.w3.org/2000/svg" xmlns:xlink="http://www.w3.org/1999/xlink" xml:space="preserve" xmlns:serif="http://www.serif.com/" style="fill-rule:evenodd;clip-rule:evenodd;stroke-linecap:round;stroke-linejoin:round;stroke-miterlimit:1.5;">
    <g id="track" transform="matrix(0.757401,0,0,1.34543,53.4257,-143.682)">
        <g transform="matrix(1.32501,0,0,0.743258,-71.4805,99.9061)">
            <path d="M0.273,200.978L600.417,200.978" style="fill:none;stroke:rgb(28,22,17);stroke-width:3.99px;"/>
        </g>
        <g transform="matrix(1.06596,0,0,0.871542,0.948524,29.4523)">
            <path d="M297.216,253.364L0.696,597.216" style="fill:none;stroke:rgb(21,13,13);stroke-width:5.96px;"/>
        </g>
        <g transform="matrix(1.05344,0,0,0.862189,8.54433,35.0377)">
            <path d="M298.608,249.188L606.265,597.216" style="fill:none;stroke:rgb(21,13,13);stroke-width:6.03px;"/>
        </g>
        <g transform="matrix(1.06596,0,0,0.871542,0.948524,29.4523)">
            <path d="M242.036,282.941L355.508,282.941" style="fill:none;stroke:rgb(105,51,7);stroke-width:7.95px;"/>
        </g>
        <g transform="matrix(1.06596,0,0,0.871542,0.948524,29.4523)">
            <path d="M210.675,320.575L389.15,320.575" style="fill:none;stroke:rgb(105,51,7);stroke-width:7.95px;"/>
        </g>
        <g transform="matrix(1.06596,0,0,0.871542,0.948524,29.4523)">
            <path d="M181.024,353.076L417.661,353.076" style="fill:none;stroke:rgb(105,51,7);stroke-width:7.95px;"/>
        </g>
        <g transform="matrix(1.06596,0,0,0.871542,0.948524,29.4523)">
            <path d="M151.944,390.14L450.163,390.14" style="fill:none;stroke:rgb(105,51,7);stroke-width:7.95px;"/>
        </g>
        <g transform="matrix(1.06596,0,0,0.871542,0.948524,29.4523)">
            <path d="M113.169,433.476L487.796,433.476" style="fill:none;stroke:rgb(105,51,7);stroke-width:7.95px;"/>
        </g>
        <g transform="matrix(1.06596,0,0,0.871542,0.948524,29.4523)">
            <path d="M79.171,471.644L522.864,471.644" style="fill:none;stroke:rgb(105,51,7);stroke-width:7.95px;"/>
        </g>
        <g transform="matrix(1.06596,0,0,0.871542,0.948524,29.4523)">
            <path d="M36.405,523.319L569.194,523.319" style="fill:none;stroke:rgb(105,51,7);stroke-width:7.95px;"/>
        </g>
        <g transform="matrix(1.06596,0,0,0.871542,0.948524,29.4523)">
            <path d="M-14.379,583.013L605.723,583.013" style="fill:none;stroke:rgb(105,51,7);stroke-width:7.95px;"/>
        </g>
    </g>
    <g id="tools" transform="matrix(0.338227,0,0,0.331361,-19.689,269.353)">
        <path d="M138.421,365.286L214.601,339.741L215.97,406.341L140.702,434.167L138.421,365.286Z" style="fill:rgb(131,69,9);stroke:rgb(24,34,45);stroke-width:2.99px;"/>
        <path d="M141.158,433.711L131.123,430.518L131.123,363.461L138.878,366.654L141.158,433.711Z" style="fill:rgb(131,69,9);stroke:rgb(24,34,45);stroke-width:2.99px;"/>
        <path d="M215.057,340.197L376.54,372.128L371.979,438.729L216.882,405.428L215.057,340.197Z" style="fill:rgb(131,69,9);stroke:rgb(24,34,45);stroke-width:2.99px;"/>
        <path d="M215.057,339.284L386.12,364.83L372.705,371.048L209.127,341.565L215.057,339.284Z" style="fill:rgb(131,69,9);stroke:rgb(24,34,45);stroke-width:2.99px;"/>
        <path d="M273.445,392.242L244.25,339.692C244.25,339.692 243.674,320.658 227.201,324.044C216.048,326.336 215.578,344.634 222.993,348.084C230.402,351.532 250.089,392.709 250.089,392.709L273.445,392.242Z" style="fill:rgb(199,16,42);stroke:rgb(24,34,45);stroke-width:2.99px;"/>
        <path d="M224.895,344.883C224.895,344.883 238.647,341.893 243.579,334.868" style="fill:none;stroke:rgb(24,34,45);stroke-width:2.99px;"/>
        <path d="M230.575,346.228C230.575,346.228 240.889,342.491 244.028,339.203" style="fill:none;stroke:rgb(24,34,45);stroke-width:2.99px;"/>
        <path d="M244.327,375.376C244.327,375.376 227.735,352.058 233.415,350.414C239.095,348.769 249.708,374.18 253.295,379.562" style="fill:none;stroke:rgb(24,34,45);stroke-width:2.99px;"/>
        <path d="M257.182,379.412C257.182,379.412 237.301,349.517 241.487,347.275C245.672,345.032 262.114,374.031 262.114,374.031" style="fill:none;stroke:rgb(24,34,45);stroke-width:2.99px;"/>
        <path d="M251.081,322.184C251.081,322.184 243.421,336.01 264.347,343.297C285.274,350.584 265.282,337.879 265.282,337.879C265.282,337.879 250.708,324.613 251.081,322.184Z" style="fill:rgb(132,132,132);stroke:rgb(24,34,45);stroke-width:2.99px;"/>
        <path d="M264.955,394.023L262.924,341.249C262.924,341.249 236.308,322.862 258.356,308.558C259.281,316.755 259.723,325.16 259.723,325.16C259.723,325.16 265.141,332.447 275.792,326.095C275.88,318.9 275.792,309.652 275.792,309.652C275.792,309.652 297.466,322.521 280.836,337.492C279.437,354.147 282.892,395.812 282.892,395.812L264.955,394.023Z" style="fill:rgb(159,159,159);stroke:rgb(24,34,45);stroke-width:2.99px;"/>
        <path d="M170.809,267.294C170.809,267.294 153.019,254.066 153.019,299.226C153.019,344.387 133.404,362.177 133.404,362.177L152.563,361.265L170.809,267.294Z" style="fill:rgb(131,69,9);stroke:rgb(24,34,45);stroke-width:2.99px;"/>
        <path d="M201.372,341.65L178.108,293.752C178.108,293.752 180.389,266.838 168.072,266.838C155.756,266.838 160.774,283.716 161.23,291.927C161.686,300.138 143.895,350.773 142.983,360.352C142.071,369.932 201.372,341.65 201.372,341.65Z" style="fill:rgb(131,69,9);stroke:rgb(24,34,45);stroke-width:2.99px;"/>
        <path d="M271.074,385.525C271.074,385.525 265.842,346.287 271.634,346.1C277.427,345.913 276.679,379.349 276.492,387.206C276.305,395.063 271.447,388.505 271.074,385.525Z" style="fill:rgb(132,132,132);stroke:rgb(24,34,45);stroke-width:2.99px;"/>
        <path d="M186.795,359.311L200.575,350.436L232.806,383.601L215.289,390.607L186.795,359.311Z" style="fill:rgb(120,71,7);stroke:rgb(24,34,45);stroke-width:2.99px;"/>
        <path d="M131.579,363.461L209.127,336.091L215.514,339.741L139.79,366.654L131.579,363.461Z" style="fill:rgb(131,69,9);stroke:rgb(24,34,45);stroke-width:2.99px;"/>
        <path d="M175.647,302.463C175.647,302.463 128.352,334.286 134.191,358.225C140.412,358.67 138.516,346.162 141.489,343.92C142.473,345.734 135.65,362.313 142.657,369.319C149.664,376.326 139.154,329.323 186.741,361.145C193.456,362.838 200.202,358.56 201.63,351.219C200.992,343.418 183.595,334.98 192.872,323.192C203.724,309.401 178.858,316.477 175.647,302.463Z" style="fill:rgb(159,159,159);stroke:rgb(24,34,45);stroke-width:2.99px;"/>
        <g transform="matrix(1.22892,0,0,1.09278,-49.6702,-29.403)">
            <ellipse cx="195.937" cy="309.032" rx="12.116" ry="14.159" style="fill:rgb(128,128,128);stroke:rgb(24,34,45);stroke-width:2.57px;"/>
        </g>
        <path d="M184.697,297.5C184.697,297.5 182.654,313.849 199.003,317.353" style="fill:none;stroke:rgb(24,34,45);stroke-width:2.99px;"/>
        <path d="M139.334,365.286L299.448,399.042L299.448,488.451L140.702,432.798L139.334,365.286Z" style="fill:rgb(131,69,9);stroke:rgb(24,34,45);stroke-width:2.99px;"/>
        <path d="M295.799,371.757L401.173,290.559L419.42,311.543L414.402,311.999L414.402,317.473L408.472,317.017L408.472,322.947L403.91,322.947L404.823,328.877L398.436,329.333L399.349,335.263L392.05,334.807L392.506,343.018L385.664,342.106L387.032,348.492L381.102,347.58L380.19,353.966L372.435,354.878L326.231,418.769L295.799,371.757Z" style="fill:rgb(132,132,132);stroke:rgb(24,34,45);stroke-width:2.99px;"/>
        <path d="M316.057,327.051L334.742,335.693L351.791,311.87L355.295,315.84L340.58,341.765C340.58,341.765 318.86,344.101 314.188,331.722C309.517,319.344 316.057,327.051 316.057,327.051Z" style="fill:rgb(132,132,132);stroke:rgb(24,34,45);stroke-width:2.99px;"/>
        <path d="M173.09,270.031C173.09,270.031 158.037,279.155 174.459,291.927C192.983,293.723 348.258,310.63 348.258,310.63L352.82,286.91L173.09,270.031Z" style="fill:rgb(107,104,93);stroke:rgb(24,34,45);stroke-width:2.99px;"/>
        <path d="M319.794,301.593L324.932,306.965C324.932,306.965 298.307,311.636 304.846,344.801C311.386,377.967 276.586,309.768 319.794,301.593Z" style="fill:rgb(132,132,132);stroke:rgb(24,34,45);stroke-width:2.99px;"/>
        <path d="M324.796,307.335L314.188,331.022C314.188,331.022 316.29,343.867 341.048,342.232C346.791,333.662 355.289,315.396 355.289,315.396C355.289,315.396 364.403,355.312 331.705,356.012C322.363,368.391 307.649,399.22 307.649,399.22L280.79,390.812L304.145,347.371C304.145,347.371 297.236,313.174 324.796,307.335Z" style="fill:rgb(159,159,159);stroke:rgb(24,34,45);stroke-width:2.99px;"/>
        <path d="M294.336,390.112C294.336,390.112 309.751,360.917 314.188,363.019C318.626,365.121 303.912,390.781 299.474,394.316C295.037,397.851 292.935,395.919 294.336,390.112Z" style="fill:rgb(132,132,132);stroke:rgb(24,34,45);stroke-width:2.99px;"/>
        <path d="M299.448,398.586L386.12,365.286L395.499,366.888L309.028,401.323L299.448,398.586Z" style="fill:rgb(131,69,9);stroke:rgb(24,34,45);stroke-width:2.99px;"/>
        <path d="M299.448,398.586L300.361,489.363L312.498,493.68L308.115,402.235L299.448,398.586Z" style="fill:rgb(131,69,9);stroke:rgb(24,34,45);stroke-width:2.99px;"/>
        <path d="M308.572,401.779L394.331,368.023L395.699,458.344L312.221,494.381L308.572,401.779Z" style="fill:rgb(131,69,9);stroke:rgb(24,34,45);stroke-width:2.99px;"/>
        <path d="M360.732,289.836C360.732,289.836 335.989,269.674 338.679,316.104C341.621,366.902 307.203,422.847 340.503,417.829C372.402,406.272 351.451,399.583 354.644,372.669C357.838,345.755 360.732,289.836 360.732,289.836Z" style="fill:rgb(131,69,9);stroke:rgb(24,34,45);stroke-width:2.99px;"/>
        <path d="M342.784,417.373L385.208,397.758C385.208,397.758 394.331,391.912 366.961,311.999C359.21,295.146 365.552,291.653 356.925,287.281C336.854,284.544 350.083,301.423 348.258,314.195C346.433,326.968 322.713,416.545 342.784,417.373Z" style="fill:rgb(131,69,9);stroke:rgb(24,34,45);stroke-width:2.99px;"/>
        <path d="M139.334,368.023L299.715,398.776L304.499,396.083L147.089,363.005L139.334,368.023Z" style="fill:rgb(131,69,9);stroke:rgb(24,34,45);stroke-width:2.99px;"/>
        <ellipse cx="355.705" cy="298.978" rx="5.021" ry="8.992" style="fill:rgb(107,104,93);stroke:rgb(24,34,45);stroke-width:2.99px;"/>
        <g transform="matrix(1,0,0,1,-0.934229,-2.80269)">
            <ellipse cx="348.815" cy="405.714" rx="5.372" ry="5.489" style="fill:rgb(107,104,93);stroke:rgb(24,34,45);stroke-width:2.99px;"/>
        </g>
        <g transform="matrix(1,0,0,1,-2.33557,-2.80269)">
            <ellipse cx="381.746" cy="393.919" rx="4.671" ry="4.905" style="fill:rgb(107,104,93);stroke:rgb(24,34,45);stroke-width:2.99px;"/>
        </g>
        <g transform="matrix(1,0,0,1,-1.05232,0.956651)">
            <ellipse cx="350.45" cy="402.094" rx="4.438" ry="5.138" style="fill:rgb(107,104,93);stroke:rgb(24,34,45);stroke-width:2.99px;"/>
        </g>
        <g transform="matrix(1,0,0,0.953455,30.5435,7.57066)">
            <ellipse cx="350.45" cy="402.094" rx="4.438" ry="5.138" style="fill:rgb(107,104,93);stroke:rgb(24,34,45);stroke-width:3.06px;"/>
        </g>
        <g transform="matrix(0.631539,-0.280387,-0.275436,-0.642891,1345.67,-39.4087)">
            <path d="M148.015,289.32C126.457,279.745 104.136,240.986 98.122,209.135C92.81,180.997 82.976,149.735 85.649,139.641C88.322,129.546 45.307,137.672 38.179,144.799C31.052,151.927 40.283,210.975 47.873,232.861C63.197,277.052 89.569,336.068 151.579,341.592C190.637,345.072 158.707,294.069 148.015,289.32Z" style="fill:rgb(180,203,227);stroke:black;stroke-width:4.3px;"/>
        </g>
        <g transform="matrix(-0.531847,0.445875,0.438002,0.541407,1542.68,-612.525)">
            <path d="M417.236,516.011C417.236,516.011 405.037,511.151 404.837,526.437C404.565,547.23 425.068,581.393 447.051,569.231C462.22,560.838 458.604,550.444 456.879,544.332C453.496,532.345 454.378,536.041 457.599,541.886C463.769,553.079 475.613,552.933 474.257,541.556C472.382,525.832 461.484,515.555 451.449,509.168C441.413,502.782 419.061,513.73 417.236,516.011Z" style="fill:rgb(229,206,122);stroke:black;stroke-width:4.3px;"/>
        </g>
        <g transform="matrix(0.688989,-3.89341e-17,3.82466e-17,0.701374,1247.01,-504.738)">
            <path d="M188.123,275.65C179.139,267.712 162.189,280.33 147.723,288.705C146.173,289.603 150.757,331.695 152.984,348.4C155.211,365.105 191.963,380.697 247.647,377.356C303.332,374.015 364.585,383.815 371.267,362.655C377.949,341.495 389.086,367.333 397.995,427.472C406.905,487.611 405.791,483.156 404.678,521.022C421.875,528.244 432.52,527.704 449.225,509.885C465.93,492.066 421.787,290.69 392.427,278.238C378.979,272.534 363.031,270.756 353.448,272.669C334.188,276.513 210.073,295.041 188.123,275.65Z" style="fill:rgb(180,203,227);stroke:black;stroke-width:4.3px;"/>
        </g>
        <g transform="matrix(0.655121,0.217195,-0.21336,0.666897,1287.81,-556.258)">
            <path d="M167.933,185.063C159.906,207.94 190.028,309.083 309.772,262.041C429.516,214.999 387.463,98.106 361.804,85.989C336.144,73.872 196.443,103.808 167.933,185.063Z" style="fill:rgb(229,206,122);stroke:black;stroke-width:4.3px;"/>
        </g>
        <g transform="matrix(0.655121,0.217195,-0.21336,0.666897,1287.81,-556.258)">
            <path d="M162.943,177.935C155.734,181.54 153.689,190.743 150.826,196.467C150.203,197.715 147.228,202.847 148.688,204.307C150.502,206.121 161.04,195.276 163.656,197.893C170.274,204.51 163.114,220.329 167.22,228.541C170.13,234.362 176.983,221.63 177.199,221.414C177.574,221.038 177.911,219.988 177.911,219.988L177.911,221.414C177.911,223.487 177.004,228.153 177.911,229.967C178.711,231.566 182.557,237.438 185.752,234.243C186.94,233.055 186.702,230.442 187.89,229.254C189.016,228.128 189.58,234.692 191.454,232.818C193.366,230.906 189.579,216.874 192.879,213.573C195.339,211.114 198.815,219.515 203.571,217.137C208.231,214.807 204.666,208.531 206.422,205.02C207.611,202.642 212.811,205.758 214.262,204.307C215.419,203.15 214.975,199.395 214.975,197.18C214.975,196.47 212.942,175.902 212.837,175.797C210.66,173.621 203.471,175.698 201.433,173.659C197.816,170.042 189.723,170.095 182.901,170.095C181.88,170.095 177.136,169.445 176.486,170.095C173.867,172.713 168.935,175.084 163.656,175.084" style="fill:rgb(96,59,44);stroke:black;stroke-width:4.3px;"/>
        </g>
        <g transform="matrix(0.655121,0.217195,-0.21336,0.666897,1287.81,-556.258)">
            <path d="M162.629,185.721C162.629,185.721 61.224,97.065 224.996,39.827C335.251,1.294 339.706,49.182 345.274,69.229C350.843,89.275 306.295,169.684 162.629,185.721Z" style="fill:rgb(180,203,227);stroke:black;stroke-width:4.3px;"/>
        </g>
        <g transform="matrix(0.655121,0.217195,-0.21336,0.666897,1287.81,-556.258)">
            <path d="M345.41,105.234C345.41,112.928 346.796,120.162 350.4,123.765C352.26,125.625 357.369,123.608 358.953,125.191C361.136,127.375 359.625,131.585 362.516,133.031C367.83,135.688 369.298,126.596 370.357,124.478C370.688,123.816 373.55,119.831 374.633,120.914C378.524,124.805 378.753,132.874 382.474,136.595C382.585,136.706 383.717,138.203 384.612,137.308C387.023,134.896 384.643,128.724 386.75,126.616C388.527,124.84 387.463,117.02 387.463,113.787C387.463,103.111 371.688,93.829 361.091,93.829C354.951,93.829 352.63,94.45 349.687,97.393C348.674,98.406 347.846,103.095 346.836,103.095" style="fill:rgb(96,59,44);stroke:black;stroke-width:4.3px;"/>
        </g>
        <g transform="matrix(0.655121,0.217195,-0.21336,0.666897,1287.81,-556.258)">
            <path d="M186.017,130.482C186.017,130.482 163.743,175.029 167.084,186.166C170.425,197.303 312.193,149.735 382.026,81.479C382.832,76.294 376.533,69.285 365.32,65.888C349.086,60.968 263.888,122.3 238.36,128.254C226.248,131.079 207.712,136.088 186.017,130.482Z" style="fill:rgb(180,203,227);stroke:black;stroke-width:4.3px;"/>
        </g>
        <g transform="matrix(0.655121,0.217195,-0.21336,0.666897,1287.81,-556.258)">
            <path d="M207.135,73.159C207.135,73.159 236.358,76.01 232.794,115.925" style="fill:none;stroke:black;stroke-width:4.3px;"/>
        </g>
        <g transform="matrix(0.655121,0.217195,-0.21336,0.666897,1287.81,-556.258)">
            <path d="M291.24,47.5C291.24,47.5 315.474,63.893 315.474,80.287" style="fill:none;stroke:black;stroke-width:4.3px;"/>
        </g>
        <g transform="matrix(0.688989,-3.89341e-17,3.82466e-17,0.701374,1247.01,-504.738)">
            <path d="M239.273,273.222L196.555,257.842L186.81,275.94L247.441,304.419L239.273,273.222Z" style="fill:rgb(180,203,227);stroke:black;stroke-width:4.3px;"/>
        </g>
        <g transform="matrix(0.688989,-3.89341e-17,3.82466e-17,0.701374,1247.01,-504.738)">
            <path d="M284.282,273.309L336.171,255.063L352.137,272.739L274.589,306.381L284.282,273.309Z" style="fill:rgb(180,203,227);stroke:black;stroke-width:4.3px;"/>
        </g>
        <g transform="matrix(0.688989,-7.78682e-17,7.64932e-17,0.701374,1244.65,-513.537)">
            <ellipse cx="264.895" cy="300.394" rx="19.957" ry="18.532" style="fill:rgb(178,139,123);stroke:black;stroke-width:4.3px;"/>
        </g>
        <g transform="matrix(0.688989,-3.89341e-17,3.82466e-17,0.701374,1247.01,-504.738)">
            <path d="M279.72,276.731C279.72,276.731 300.818,253.352 312.793,260.194C324.767,267.037 309.941,274.45 317.354,292.126C324.767,309.803 296.256,304.671 280.291,295.547C281.664,292.104 282.881,281.984 279.72,276.731Z" style="fill:rgb(178,139,123);stroke:black;stroke-width:4.3px;"/>
        </g>
        <g transform="matrix(-0.688989,0,0,0.701374,1607.73,-503.592)">
            <path d="M279.72,276.731C279.72,276.731 300.818,253.352 312.793,260.194C324.767,267.037 309.941,274.45 317.354,292.126C324.767,309.803 296.256,304.671 280.291,295.547C281.664,292.104 282.881,281.984 279.72,276.731Z" style="fill:rgb(178,139,123);stroke:black;stroke-width:4.3px;"/>
        </g>
        <g transform="matrix(2.42449,0,0,2.46807,264.759,-733.15)">
            <path d="M457.889,305.985L455.553,318.539C455.553,318.539 445.919,312.7 435.409,317.663C424.899,322.626 441.54,332.553 452.926,333.428C464.312,334.304 472.486,338.392 472.486,321.751C472.486,305.11 469.859,305.11 469.859,305.11L457.889,305.985Z" style="fill:rgb(108,61,0);stroke:rgb(28,22,17);stroke-width:1.22px;"/>
        </g>
        <g transform="matrix(2.42449,0,0,2.46807,264.759,-733.15)">
            <path d="M495.842,305.402L508.396,302.774L514.818,316.787C514.818,316.787 525.037,309.197 533.503,316.204C541.969,323.21 517.154,338.392 502.557,331.969C487.959,325.546 495.842,305.402 495.842,305.402Z" style="fill:rgb(108,61,0);stroke:rgb(28,22,17);stroke-width:1.22px;"/>
        </g>
        <g transform="matrix(0.688989,-3.89341e-17,3.82466e-17,0.701374,1247.01,-504.738)">
            <path d="M146.248,286.716L171.45,273.585L203.1,342.275L326.719,344.502L366.166,269.543L392.193,273.71L376.835,352.298C376.835,352.298 353.448,459.212 357.903,493.736C362.367,528.331 391.769,778.65 391.769,778.65L298.003,799.651L253.216,539.398L251.995,793.498L152.198,771.213L170.803,492.623C170.803,492.623 165.331,400.15 158.552,382.367C149.535,358.709 146.248,286.716 146.248,286.716Z" style="fill:rgb(47,74,102);stroke:rgb(28,22,17);stroke-width:4.3px;"/>
        </g>
        <g transform="matrix(0.677817,0.125797,-0.123576,0.690001,1120.13,-554.997)">
            <path d="M417.236,516.011C417.236,516.011 405.037,511.151 404.837,526.437C404.565,547.23 425.068,581.393 447.051,569.231C462.22,560.838 458.604,550.444 456.879,544.332C453.496,532.345 454.378,536.041 457.599,541.886C463.769,553.079 475.613,552.933 474.257,541.556C472.382,525.832 461.484,515.555 451.449,509.168C441.413,502.782 419.061,513.73 417.236,516.011Z" style="fill:rgb(229,206,122);stroke:black;stroke-width:4.3px;"/>
        </g>
        <g transform="matrix(0.688989,-3.89341e-17,3.82466e-17,0.701374,1247.01,-504.738)">
            <path d="M226.487,378.47L293.309,378.47L292.195,412.994L268.808,430.813L245.42,417.449L226.487,378.47Z" style="fill:rgb(47,74,102);stroke:black;stroke-width:4.3px;"/>
        </g>
        <g transform="matrix(0.688989,-3.89341e-17,3.82466e-17,0.701374,1247.01,-504.738)">
            <path d="M282.56,283.669C282.56,283.669 291.678,281.427 294.967,276.942" style="fill:none;stroke:black;stroke-width:4.3px;"/>
        </g>
        <g transform="matrix(0.688989,-3.89341e-17,3.82466e-17,0.701374,1247.01,-504.738)">
            <path d="M282.112,289.349C282.112,289.349 292.127,288.303 294.967,291.292" style="fill:none;stroke:black;stroke-width:4.3px;"/>
        </g>
        <g transform="matrix(0.688989,-3.89341e-17,3.82466e-17,0.701374,1247.01,-504.738)">
            <path d="M282.859,286.359L286.746,285.612" style="fill:none;stroke:black;stroke-width:4.3px;"/>
        </g>
        <g transform="matrix(0.688989,-3.89341e-17,3.82466e-17,0.701374,1247.01,-504.738)">
            <path d="M241.753,283.519C241.753,283.519 230.841,279.484 228.898,274.252" style="fill:none;stroke:black;stroke-width:4.3px;"/>
        </g>
        <g transform="matrix(0.688989,-3.89341e-17,3.82466e-17,0.701374,1247.01,-504.738)">
            <path d="M241.604,289.947C241.604,289.947 231.738,288.901 225.909,292.787" style="fill:none;stroke:black;stroke-width:4.3px;"/>
        </g>
        <g transform="matrix(0.688989,-3.89341e-17,3.82466e-17,0.701374,1247.01,-504.738)">
            <path d="M241.155,286.808C241.155,286.808 234.279,285.313 232.785,284.267" style="fill:none;stroke:black;stroke-width:4.3px;"/>
        </g>
        <g transform="matrix(0.688989,-3.89341e-17,3.82466e-17,0.701374,1247.01,-504.738)">
            <path d="M262.093,274.649C266.578,273.752 271.959,277.041 273.603,279.881" style="fill:none;stroke:black;stroke-width:4.3px;"/>
        </g>
        <g transform="matrix(0.688989,-3.89341e-17,3.82466e-17,0.701374,1247.01,-504.738)">
            <ellipse cx="243.507" cy="193.626" rx="7.239" ry="12.251" style="stroke:rgb(28,22,17);stroke-width:4.3px;"/>
        </g>
        <g transform="matrix(0.688989,-1.16802e-16,1.1474e-16,0.701374,1289.75,-509.538)">
            <ellipse cx="243.507" cy="193.626" rx="7.239" ry="12.251" style="stroke:rgb(28,22,17);stroke-width:4.3px;"/>
        </g>
        <g transform="matrix(-0.0482546,-0.699652,0.687298,-0.049122,1316.56,-169.856)">
            <ellipse cx="243.507" cy="193.626" rx="7.239" ry="12.251" style="fill:rgb(229,206,122);stroke:black;stroke-width:4.3px;"/>
        </g>
        <g transform="matrix(0.688989,-3.89341e-17,3.82466e-17,0.701374,1247.01,-504.738)">
            <path d="M253.429,242.916C257.742,247.38 281.918,262.439 299.411,236.712" style="fill:none;stroke:black;stroke-width:4.3px;"/>
        </g>
        <g transform="matrix(0.997657,0,0,1.10836,1151.1,-592.407)">
            <ellipse cx="309.752" cy="214.513" rx="0.957" ry="0.897" style="fill:rgb(96,59,44);stroke:rgb(28,22,17);stroke-width:2.84px;"/>
        </g>
        <g transform="matrix(0.997657,-3.89341e-17,7.64932e-17,1.10836,1157.18,-591.548)">
            <ellipse cx="309.752" cy="214.513" rx="0.957" ry="0.897" style="fill:rgb(96,59,44);stroke:rgb(28,22,17);stroke-width:2.84px;"/>
        </g>
        <g transform="matrix(0.997657,-3.89341e-17,7.64932e-17,1.10836,1153.8,-588.886)">
            <ellipse cx="309.752" cy="214.513" rx="0.957" ry="0.897" style="fill:rgb(96,59,44);stroke:rgb(28,22,17);stroke-width:2.84px;"/>
        </g>
        <g transform="matrix(-0.893238,0.452335,-0.484936,-0.992353,1799,-276.18)">
            <ellipse cx="309.752" cy="214.513" rx="0.957" ry="0.897" style="fill:rgb(96,59,44);stroke:rgb(28,22,17);stroke-width:2.83px;"/>
        </g>
        <g transform="matrix(-0.893238,0.452335,-0.484936,-0.992353,1798.67,-272.993)">
            <ellipse cx="309.752" cy="214.513" rx="0.957" ry="0.897" style="fill:rgb(96,59,44);stroke:rgb(28,22,17);stroke-width:2.83px;"/>
        </g>
        <g transform="matrix(-0.893238,0.452335,-0.484936,-0.992353,1792.11,-274.782)">
            <ellipse cx="309.752" cy="214.513" rx="0.957" ry="0.897" style="fill:rgb(96,59,44);stroke:rgb(28,22,17);stroke-width:2.83px;"/>
        </g>
        <g transform="matrix(-0.893238,0.452335,-0.484936,-0.992353,1794.58,-278.172)">
            <ellipse cx="309.752" cy="214.513" rx="0.957" ry="0.897" style="fill:rgb(96,59,44);stroke:rgb(28,22,17);stroke-width:2.83px;"/>
        </g>
        <g transform="matrix(1.93271,0,0,1.97277,135.167,-727.595)">
            <ellipse cx="66.387" cy="48.246" rx="64.037" ry="61.949" style="fill:rgb(255,232,11);stroke:rgb(28,22,17);stroke-width:1.53px;"/>
        </g>
        <g transform="matrix(1.2192,-0.109127,0.114024,1.32725,229.293,-718.216)">
            <path d="M133.904,108.803L149.914,135.253L117.895,135.253L133.904,108.803Z" style="fill:rgb(255,149,11);stroke:rgb(28,22,17);stroke-width:2.34px;"/>
        </g>
        <g transform="matrix(-1.27219,0.159173,-0.152926,-1.27345,479.387,-342.971)">
            <path d="M133.904,108.803L149.914,135.253L117.895,135.253L133.904,108.803Z" style="fill:rgb(255,149,11);stroke:rgb(28,22,17);stroke-width:2.33px;"/>
        </g>
        <g transform="matrix(0.616301,-1.0981,1.26009,0.736832,164.36,-660.347)">
            <path d="M133.904,108.803L149.914,135.253L117.895,135.253L133.904,108.803Z" style="fill:rgb(255,149,11);stroke:rgb(28,22,17);stroke-width:2.19px;"/>
        </g>
        <g transform="matrix(1.48441,0.0191508,-0.0152445,1.2311,77.8591,-936.529)">
            <path d="M133.904,108.803L149.914,135.253L117.895,135.253L133.904,108.803Z" style="fill:rgb(255,149,11);stroke:rgb(28,22,17);stroke-width:2.19px;"/>
        </g>
        <g transform="matrix(0.834244,1.08841,-1.17982,0.94217,158.209,-960.136)">
            <path d="M133.904,108.803L149.914,135.253L117.895,135.253L133.904,108.803Z" style="fill:rgb(255,149,11);stroke:rgb(28,22,17);stroke-width:2.07px;"/>
        </g>
        <g transform="matrix(1.30067,-0.116419,0.125019,1.45524,-45.3127,-698.259)">
            <path d="M133.904,108.803L149.914,135.253L117.895,135.253L133.904,108.803Z" style="fill:rgb(255,149,11);stroke:rgb(28,22,17);stroke-width:2.16px;"/>
        </g>
        <g transform="matrix(1.50186,-1.24168,1.21647,1.53298,70.821,-670.304)">
            <path d="M133.904,108.803L149.914,135.253L117.895,135.253L133.904,108.803Z" style="fill:rgb(255,232,11);stroke:rgb(28,22,17);stroke-width:1.53px;"/>
        </g>
        <g transform="matrix(-1.45901,1.29382,-1.26755,-1.48924,710.466,-496.979)">
            <path d="M133.904,108.803L149.914,135.253L117.895,135.253L133.904,108.803Z" style="fill:rgb(255,232,11);stroke:rgb(28,22,17);stroke-width:1.53px;"/>
        </g>
        <g transform="matrix(-0.14114,-1.9675,1.92755,-0.144065,129.275,-486.926)">
            <path d="M133.904,108.803L149.914,135.253L117.895,135.253L133.904,108.803Z" style="fill:rgb(255,232,11);stroke:rgb(28,22,17);stroke-width:1.53px;"/>
        </g>
        <g transform="matrix(1.61591,-1.08226,1.06029,1.6494,-167.714,-826.26)">
            <path d="M133.904,108.803L149.914,135.253L117.895,135.253L133.904,108.803Z" style="fill:rgb(255,232,11);stroke:rgb(28,22,17);stroke-width:1.53px;"/>
        </g>
        <g transform="matrix(1.8221,0.65781,-0.644456,1.85986,-57.3071,-922.126)">
            <path d="M133.904,108.803L149.914,135.253L117.895,135.253L133.904,108.803Z" style="fill:rgb(255,232,11);stroke:rgb(28,22,17);stroke-width:1.53px;"/>
        </g>
        <g transform="matrix(1.50186,-1.24168,1.21647,1.53298,-142.281,-510.089)">
            <path d="M133.904,108.803L149.914,135.253L117.895,135.253L133.904,108.803Z" style="fill:rgb(255,232,11);stroke:rgb(28,22,17);stroke-width:1.53px;"/>
        </g>
    </g>
</svg>
