<?xml version="1.0" encoding="UTF-8" standalone="no"?>
<!DOCTYPE svg PUBLIC "-//W3C//DTD SVG 1.1//EN" "http://www.w3.org/Graphics/SVG/1.1/DTD/svg11.dtd">
<svg width="100%" height="100%" viewBox="0 0 600 600" version="1.1" xmlns="http://www.w3.org/2000/svg" xmlns:xlink="http://www.w3.org/1999/xlink" xml:space="preserve" xmlns:serif="http://www.serif.com/" style="fill-rule:evenodd;clip-rule:evenodd;stroke-linecap:round;stroke-linejoin:round;stroke-miterlimit:1.5;">
    <rect x="-6.265" y="-5.568" width="605.568" height="606.961" style="fill:white;"/>
    <g id="waving" transform="matrix(0.584008,0,0,0.584008,73.3306,155.11)">
        <g transform="matrix(0.485358,-0.326099,-0.326099,-0.485358,169.425,547.284)">
            <path d="M417.236,516.011C417.236,516.011 405.037,511.151 404.837,526.437C404.565,547.23 425.068,581.393 447.051,569.231C462.22,560.838 458.604,550.444 456.879,544.332C453.496,532.345 454.378,536.041 457.599,541.886C463.769,553.079 475.613,552.933 474.257,541.556C472.382,525.832 461.484,515.555 451.449,509.168C441.413,502.782 419.061,513.73 417.236,516.011Z" style="fill:rgb(229,206,122);stroke:black;stroke-width:11.71px;"/>
        </g>
        <g transform="matrix(0.584733,0,0,0.584733,173.038,76.7613)">
            <path d="M148.015,289.32C126.457,279.745 104.136,240.986 98.122,209.135C92.81,180.997 82.976,149.735 85.649,139.641C88.322,129.546 45.307,137.672 38.179,144.799C31.052,151.927 40.283,210.975 47.873,232.861C63.197,277.052 89.569,336.068 151.579,341.592C190.637,345.072 158.707,294.069 148.015,289.32Z" style="fill:rgb(180,203,227);stroke:black;stroke-width:11.71px;"/>
        </g>
    </g>
    <g id="trainConductor" transform="matrix(0.5553,0.18085,-0.18085,0.5553,107.917,112.212)">
        <g transform="matrix(-0.314069,0.493228,0.493228,0.314069,365.504,-55.5617)">
            <path d="M417.236,516.011C417.236,516.011 405.037,511.151 404.837,526.437C404.565,547.23 425.068,581.393 447.051,569.231C462.22,560.838 458.604,550.444 456.879,544.332C453.496,532.345 454.378,536.041 457.599,541.886C463.769,553.079 475.613,552.933 474.257,541.556C472.382,525.832 461.484,515.555 451.449,509.168C441.413,502.782 419.061,513.73 417.236,516.011Z" style="fill:rgb(229,206,122);stroke:black;stroke-width:11.71px;"/>
        </g>
        <g transform="matrix(0.55599,-0.181075,0.181075,0.55599,154.738,107.587)">
            <path d="M188.123,275.65C179.139,267.712 162.189,280.33 147.723,288.705C146.173,289.603 150.757,331.695 152.984,348.4C155.211,365.105 191.963,380.697 247.647,377.356C303.332,374.015 364.585,383.815 371.267,362.655C377.949,341.495 389.086,367.333 397.995,427.472C406.905,487.611 405.791,483.156 404.678,521.022C421.875,528.244 432.52,527.704 449.225,509.885C465.93,492.066 421.787,290.69 392.427,278.238C378.979,272.534 363.031,270.756 353.448,272.669C334.188,276.513 210.073,295.041 188.123,275.65Z" style="fill:rgb(180,203,227);stroke:black;stroke-width:11.71px;"/>
        </g>
        <g transform="matrix(0.584733,-6.02148e-17,6.02148e-17,0.584733,174.364,56.0232)">
            <path d="M167.933,185.063C159.906,207.94 190.028,309.083 309.772,262.041C429.516,214.999 387.463,98.106 361.804,85.989C336.144,73.872 196.443,103.808 167.933,185.063Z" style="fill:rgb(229,206,122);stroke:black;stroke-width:11.71px;"/>
        </g>
        <g transform="matrix(0.584733,-6.02148e-17,6.02148e-17,0.584733,174.364,56.0232)">
            <path d="M162.943,177.935C155.734,181.54 153.689,190.743 150.826,196.467C150.203,197.715 147.228,202.847 148.688,204.307C150.502,206.121 161.04,195.276 163.656,197.893C170.274,204.51 163.114,220.329 167.22,228.541C170.13,234.362 176.983,221.63 177.199,221.414C177.574,221.038 177.911,219.988 177.911,219.988L177.911,221.414C177.911,223.487 177.004,228.153 177.911,229.967C178.711,231.566 182.557,237.438 185.752,234.243C186.94,233.055 186.702,230.442 187.89,229.254C189.016,228.128 189.58,234.692 191.454,232.818C193.366,230.906 189.579,216.874 192.879,213.573C195.339,211.114 198.815,219.515 203.571,217.137C208.231,214.807 204.666,208.531 206.422,205.02C207.611,202.642 212.811,205.758 214.262,204.307C215.419,203.15 214.975,199.395 214.975,197.18C214.975,196.47 212.942,175.902 212.837,175.797C210.66,173.621 203.471,175.698 201.433,173.659C197.816,170.042 189.723,170.095 182.901,170.095C181.88,170.095 177.136,169.445 176.486,170.095C173.867,172.713 168.935,175.084 163.656,175.084" style="fill:rgb(96,59,44);stroke:black;stroke-width:11.71px;"/>
        </g>
        <g transform="matrix(0.584733,-6.02148e-17,6.02148e-17,0.584733,174.364,56.0232)">
            <path d="M162.629,185.721C162.629,185.721 61.224,97.065 224.996,39.827C335.251,1.294 339.706,49.182 345.274,69.229C350.843,89.275 306.295,169.684 162.629,185.721Z" style="fill:rgb(180,203,227);stroke:black;stroke-width:11.71px;"/>
        </g>
        <g transform="matrix(0.584733,-6.02148e-17,6.02148e-17,0.584733,174.364,56.0232)">
            <path d="M345.41,105.234C345.41,112.928 346.796,120.162 350.4,123.765C352.26,125.625 357.369,123.608 358.953,125.191C361.136,127.375 359.625,131.585 362.516,133.031C367.83,135.688 369.298,126.596 370.357,124.478C370.688,123.816 373.55,119.831 374.633,120.914C378.524,124.805 378.753,132.874 382.474,136.595C382.585,136.706 383.717,138.203 384.612,137.308C387.023,134.896 384.643,128.724 386.75,126.616C388.527,124.84 387.463,117.02 387.463,113.787C387.463,103.111 371.688,93.829 361.091,93.829C354.951,93.829 352.63,94.45 349.687,97.393C348.674,98.406 347.846,103.095 346.836,103.095" style="fill:rgb(96,59,44);stroke:black;stroke-width:11.71px;"/>
        </g>
        <g transform="matrix(0.584733,-6.02148e-17,6.02148e-17,0.584733,174.364,56.0232)">
            <path d="M186.017,130.482C186.017,130.482 163.743,175.029 167.084,186.166C170.425,197.303 312.193,149.735 382.026,81.479C382.832,76.294 376.533,69.285 365.32,65.888C349.086,60.968 263.888,122.3 238.36,128.254C226.248,131.079 207.712,136.088 186.017,130.482Z" style="fill:rgb(180,203,227);stroke:black;stroke-width:11.71px;"/>
        </g>
        <g transform="matrix(0.584733,-6.02148e-17,6.02148e-17,0.584733,174.364,56.0232)">
            <path d="M207.135,73.159C207.135,73.159 236.358,76.01 232.794,115.925" style="fill:none;stroke:black;stroke-width:11.71px;"/>
        </g>
        <g transform="matrix(0.584733,-6.02148e-17,6.02148e-17,0.584733,174.364,56.0232)">
            <path d="M291.24,47.5C291.24,47.5 315.474,63.893 315.474,80.287" style="fill:none;stroke:black;stroke-width:11.71px;"/>
        </g>
        <g transform="matrix(0.55599,-0.181075,0.181075,0.55599,154.738,107.587)">
            <path d="M239.273,273.222L196.555,257.842L186.81,275.94L247.441,304.419L239.273,273.222Z" style="fill:rgb(180,203,227);stroke:black;stroke-width:11.71px;"/>
        </g>
        <g transform="matrix(0.55599,-0.181075,0.181075,0.55599,154.738,107.587)">
            <path d="M284.282,273.309L336.171,255.063L352.137,272.739L274.589,306.381L284.282,273.309Z" style="fill:rgb(180,203,227);stroke:black;stroke-width:11.71px;"/>
        </g>
        <g transform="matrix(0.55599,-0.181075,0.181075,0.55599,150.564,101.232)">
            <ellipse cx="264.895" cy="300.394" rx="19.957" ry="18.532" style="fill:rgb(178,139,123);stroke:black;stroke-width:11.71px;"/>
        </g>
        <g transform="matrix(0.55599,-0.181075,0.181075,0.55599,154.738,107.587)">
            <path d="M279.72,276.731C279.72,276.731 300.818,253.352 312.793,260.194C324.767,267.037 309.941,274.45 317.354,292.126C324.767,309.803 296.256,304.671 280.291,295.547C281.664,292.104 282.881,281.984 279.72,276.731Z" style="fill:rgb(178,139,123);stroke:black;stroke-width:11.71px;"/>
        </g>
        <g transform="matrix(-0.55599,0.181075,0.181075,0.55599,446.118,13.6958)">
            <path d="M279.72,276.731C279.72,276.731 300.818,253.352 312.793,260.194C324.767,267.037 309.941,274.45 317.354,292.126C324.767,309.803 296.256,304.671 280.291,295.547C281.664,292.104 282.881,281.984 279.72,276.731Z" style="fill:rgb(178,139,123);stroke:black;stroke-width:11.71px;"/>
        </g>
        <g transform="matrix(0.55599,-0.181075,0.181075,0.55599,154.738,107.587)">
            <path d="M146.248,286.716L171.45,273.585L203.1,342.275L326.719,344.502L366.166,269.543L392.193,273.71L376.835,352.298C376.835,352.298 353.448,459.212 357.903,493.736C362.367,528.331 371.704,600.07 371.704,600.07L279.944,601.007L253.216,539.398L223.904,600.873L154.205,600.659L170.803,492.623C170.803,492.623 165.331,400.15 158.552,382.367C149.535,358.709 146.248,286.716 146.248,286.716Z" style="fill:rgb(47,74,102);"/>
        </g>
        <g transform="matrix(0.55599,-0.181075,0.181075,0.55599,154.738,107.587)">
            <path d="M226.487,378.47L293.309,378.47L292.195,412.994L268.808,430.813L245.42,417.449L226.487,378.47Z" style="fill:rgb(47,74,102);stroke:black;stroke-width:5.86px;"/>
        </g>
        <g transform="matrix(0.55599,-0.181075,0.181075,0.55599,154.738,107.587)">
            <path d="M282.56,283.669C282.56,283.669 291.678,281.427 294.967,276.942" style="fill:none;stroke:black;stroke-width:5.86px;"/>
        </g>
        <g transform="matrix(0.55599,-0.181075,0.181075,0.55599,154.738,107.587)">
            <path d="M282.112,289.349C282.112,289.349 292.127,288.303 294.967,291.292" style="fill:none;stroke:black;stroke-width:5.86px;"/>
        </g>
        <g transform="matrix(0.55599,-0.181075,0.181075,0.55599,154.738,107.587)">
            <path d="M282.859,286.359L286.746,285.612" style="fill:none;stroke:black;stroke-width:5.86px;"/>
        </g>
        <g transform="matrix(0.55599,-0.181075,0.181075,0.55599,154.738,107.587)">
            <path d="M241.753,283.519C241.753,283.519 230.841,279.484 228.898,274.252" style="fill:none;stroke:black;stroke-width:5.86px;"/>
        </g>
        <g transform="matrix(0.55599,-0.181075,0.181075,0.55599,154.738,107.587)">
            <path d="M241.604,289.947C241.604,289.947 231.738,288.901 225.909,292.787" style="fill:none;stroke:black;stroke-width:5.86px;"/>
        </g>
        <g transform="matrix(0.55599,-0.181075,0.181075,0.55599,154.738,107.587)">
            <path d="M241.155,286.808C241.155,286.808 234.279,285.313 232.785,284.267" style="fill:none;stroke:black;stroke-width:5.86px;"/>
        </g>
        <g transform="matrix(0.55599,-0.181075,0.181075,0.55599,154.738,107.587)">
            <path d="M262.093,274.649C266.578,273.752 271.959,277.041 273.603,279.881" style="fill:none;stroke:black;stroke-width:5.86px;"/>
        </g>
        <g transform="matrix(0.55599,-0.181075,0.181075,0.55599,154.738,107.587)">
            <ellipse cx="243.507" cy="193.626" rx="7.239" ry="12.251"/>
        </g>
        <g transform="matrix(0.55599,-0.181075,0.181075,0.55599,187.991,92.5492)">
            <ellipse cx="243.507" cy="193.626" rx="7.239" ry="12.251"/>
        </g>
        <g transform="matrix(-0.21957,-0.541943,0.541943,-0.21957,297.316,354.776)">
            <ellipse cx="243.507" cy="193.626" rx="7.239" ry="12.251" style="fill:rgb(229,206,122);stroke:black;stroke-width:5.86px;"/>
        </g>
        <g transform="matrix(0.55599,-0.181075,0.181075,0.55599,154.738,107.587)">
            <path d="M253.429,242.916C257.742,247.38 281.918,262.439 299.411,236.712" style="fill:none;stroke:black;stroke-width:5.86px;"/>
        </g>
        <g transform="matrix(0.805074,-0.262196,0.286146,0.878613,54.7116,63.2962)">
            <ellipse cx="309.752" cy="214.513" rx="0.957" ry="0.897" style="fill:rgb(96,59,44);"/>
        </g>
        <g transform="matrix(0.805074,-0.262196,0.286146,0.878613,59.8352,62.3806)">
            <ellipse cx="309.752" cy="214.513" rx="0.957" ry="0.897" style="fill:rgb(96,59,44);"/>
        </g>
        <g transform="matrix(0.805074,-0.262196,0.286146,0.878613,57.7993,65.378)">
            <ellipse cx="309.752" cy="214.513" rx="0.957" ry="0.897" style="fill:rgb(96,59,44);"/>
        </g>
        <g transform="matrix(-0.604032,0.593326,-0.647523,-0.659207,659.179,143.7)">
            <ellipse cx="309.752" cy="214.513" rx="0.957" ry="0.897" style="fill:rgb(96,59,44);"/>
        </g>
        <g transform="matrix(-0.604032,0.593326,-0.647523,-0.659207,659.735,146.313)">
            <ellipse cx="309.752" cy="214.513" rx="0.957" ry="0.897" style="fill:rgb(96,59,44);"/>
        </g>
        <g transform="matrix(-0.604032,0.593326,-0.647523,-0.659207,653.983,146.618)">
            <ellipse cx="309.752" cy="214.513" rx="0.957" ry="0.897" style="fill:rgb(96,59,44);"/>
        </g>
        <g transform="matrix(-0.604032,0.593326,-0.647523,-0.659207,655.099,143.282)">
            <ellipse cx="309.752" cy="214.513" rx="0.957" ry="0.897" style="fill:rgb(96,59,44);"/>
        </g>
    </g>
    <g id="train" transform="matrix(1,0,0,1,20.8817,33.4106)">
        <path d="M416.937,275.638L415.545,187.935C415.545,187.935 370.998,126.682 379.35,111.369C387.703,96.056 504.64,90.487 517.169,111.369C529.698,132.251 483.759,186.543 483.759,186.543L480.974,271.462L416.937,275.638Z" style="fill:rgb(203,98,0);stroke:rgb(242,45,0);stroke-width:4px;"/>
        <path d="M390.487,275.638L390.487,247.796C390.487,247.796 409.315,237.456 395.393,226.32C379.648,224.306 359.861,225.522 359.861,225.522C359.861,225.522 351.516,242.669 365.429,245.012C369.065,255.595 368.213,274.246 368.213,274.246L390.487,275.638Z" style="fill:rgb(203,98,0);stroke:rgb(242,45,0);stroke-width:4px;"/>
        <path d="M116.241,155.916C130.458,132.222 287.471,125.29 327.842,157.309C330.626,193.503 318.097,268.677 318.097,268.677C318.097,268.677 504.64,271.462 522.738,272.854C540.835,274.246 592.343,368.91 526.914,445.476C422.506,459.397 156.613,441.299 156.613,441.299C156.613,441.299 112.065,162.877 116.241,155.916ZM293.039,203.248C293.039,190.955 283.059,180.974 270.766,180.974L180.278,180.974C167.985,180.974 158.005,190.955 158.005,203.248L158.005,247.796C158.005,260.089 167.985,270.07 180.278,270.07L270.766,270.07C283.059,270.07 293.039,260.089 293.039,247.796L293.039,203.248Z" style="fill:rgb(203,47,0);stroke:rgb(242,45,0);stroke-width:4px;"/>
        <g transform="matrix(1.03529,0,0,1,-6.71342,-7.98292)">
            <path d="M174.085,446.308C174.085,443.426 171.825,441.087 169.042,441.087L66.018,441.087C63.235,441.087 60.976,443.426 60.976,446.308L60.976,456.748C60.976,459.63 63.235,461.969 66.018,461.969L169.042,461.969C171.825,461.969 174.085,459.63 174.085,456.748L174.085,446.308Z" style="fill:rgb(178,150,32);stroke:rgb(185,145,33);stroke-width:3.93px;"/>
        </g>
        <path d="M-24.744,336.891C-29.326,310.543 -27.015,284.632 -27.984,277.852C-27.984,277.852 39.675,274.246 60.557,281.206C81.439,288.167 70.302,360.557 59.165,442.691C45.244,480.278 4.872,462.181 -25.754,459.397C-40.145,458.088 -38.245,422.353 -32.476,382.815C-30.368,384.563 -27.661,385.615 -24.71,385.615L5.22,385.615C11.943,385.615 17.401,380.157 17.401,373.434L17.401,349.072C17.401,342.349 11.943,336.891 5.22,336.891L-24.71,336.891L-24.744,336.891Z" style="fill:rgb(71,203,0);stroke:rgb(124,255,0);stroke-width:4px;"/>
        <path d="M391.587,150.061C412.079,157.188 483.355,166.098 509.193,148.279" style="fill:none;stroke:rgb(242,45,0);stroke-width:4px;"/>
        <g transform="matrix(1,0,0,1,-1.7819,13.3643)">
            <path d="M400.696,150.061C421.188,157.188 477.283,167.032 503.12,149.213" style="fill:none;stroke:rgb(242,45,0);stroke-width:2px;"/>
        </g>
        <ellipse cx="532.594" cy="360.865" rx="28.538" ry="87.007" style="fill:rgb(203,98,0);stroke:rgb(242,45,0);stroke-width:4px;"/>
        <path d="M501.271,272.466C485.44,313.222 464.241,369.635 502.664,447.872" style="fill:none;stroke:rgb(242,45,0);stroke-width:4px;"/>
        <g transform="matrix(1,0,0,1,10.8449,0.0540986)">
            <path d="M501.271,272.466C485.44,313.222 464.241,369.635 502.664,447.872" style="fill:none;stroke:rgb(242,45,0);stroke-width:2px;"/>
        </g>
        <g transform="matrix(0.965047,0,0,1.44719,13.2229,-59.0721)">
            <ellipse cx="451.396" cy="120.264" rx="73.086" ry="11.833" style="fill:rgb(163,81,5);stroke:rgb(242,45,0);stroke-width:1.63px;"/>
        </g>
        <path d="M104.228,176.28L95.876,148.438C95.876,148.438 230.911,95.537 350.632,149.83C346.734,176.28 345.064,177.672 345.064,177.672C345.064,177.672 278.242,133.124 104.228,176.28Z" style="fill:rgb(255,245,0);stroke:rgb(242,201,0);stroke-width:2px;"/>
        <g transform="matrix(1,0,0,1,-20.8817,-33.4106)">
            <path d="M152.849,213.211C152.849,213.211 252.864,181.329 331.324,211.5C333.035,250.845 312.051,469.049 311.481,471.971C310.911,474.894 196.185,467.025 196.185,467.025L152.849,213.211Z" style="fill:none;stroke:rgb(185,145,33);stroke-width:4px;"/>
        </g>
        <path d="M150.372,397.069C150.372,397.069 260.822,381.49 253.945,479.481C249.49,542.962 228.33,546.303 186.01,557.44C143.69,568.577 101.37,520.688 101.37,488.391C101.37,456.094 114.734,408.205 150.372,397.069Z" style="fill:rgb(255,181,0);stroke:rgb(20,19,13);stroke-width:8px;"/>
        <path d="M434.967,426.99C434.967,426.99 497.968,423.834 501.184,496.187C503.411,546.303 471.114,551.871 445.5,555.212C419.885,558.553 379.792,537.393 379.792,496.187C379.792,454.98 409.352,430.331 434.967,426.99Z" style="fill:rgb(255,181,0);stroke:rgb(49,43,15);stroke-width:8px;"/>
        <path d="M0.024,447.185C0.024,447.185 46.429,457.1 45.685,506.21C45.081,546.089 19.212,552.167 -3.317,552.985C-25.183,553.779 -50.186,539.633 -45.69,501.003C-41.456,464.615 -24.477,450.526 0.024,447.185Z" style="fill:rgb(255,181,0);stroke:rgb(43,39,20);stroke-width:8px;"/>
        <g transform="matrix(0.548726,0,0,0.514667,78.2558,232.363)">
            <path d="M150.372,397.069C150.372,397.069 260.822,381.49 253.945,479.481C249.49,542.962 228.33,546.303 186.01,557.44C143.69,568.577 101.37,520.688 101.37,488.391C101.37,456.094 114.734,408.205 150.372,397.069Z" style="fill:rgb(232,215,174);stroke:rgb(20,19,13);stroke-width:7.52px;"/>
        </g>
        <g transform="matrix(0.530826,0,0,0.545622,207.351,228.024)">
            <path d="M434.967,426.99C434.967,426.99 497.968,423.834 501.184,496.187C503.411,546.303 471.114,551.871 445.5,555.212C419.885,558.553 379.792,537.393 379.792,496.187C379.792,454.98 409.352,430.331 434.967,426.99Z" style="fill:rgb(232,215,174);stroke:rgb(49,43,15);stroke-width:5.57px;"/>
        </g>
        <g transform="matrix(0.67263,0,0,0.565114,-3.76138,217.783)">
            <path d="M0.024,447.185C0.024,447.185 46.429,457.1 45.685,506.21C45.081,546.089 19.212,552.167 -3.317,552.985C-25.183,553.779 -50.186,539.633 -45.69,501.003C-41.456,464.615 -24.477,450.526 0.024,447.185Z" style="fill:rgb(232,215,174);stroke:rgb(43,39,20);stroke-width:3.22px;"/>
        </g>
        <g transform="matrix(1.71902,0,0,1.86882,-316.459,-433.404)">
            <circle cx="440.773" cy="496.826" r="3.898" style="fill:rgb(174,203,232);stroke:rgb(64,145,227);stroke-width:1.11px;"/>
        </g>
        <g transform="matrix(2.01862,0,0,1.86882,-718.513,-449.398)">
            <circle cx="440.773" cy="496.826" r="3.898" style="fill:rgb(174,203,232);stroke:rgb(64,145,227);stroke-width:1.03px;"/>
        </g>
        <g transform="matrix(1.46811,0,0,1.58514,-654.083,-285.298)">
            <circle cx="440.773" cy="496.826" r="3.898" style="fill:rgb(174,203,232);stroke:rgb(64,145,227);stroke-width:1.31px;"/>
        </g>
        <path d="M171.075,478.728L440.142,495.656" style="fill:none;stroke:rgb(64,145,227);stroke-width:8px;"/>
        <path d="M331.478,-16.087C312.922,-6.51 315.512,4.795 315.512,4.795C315.512,4.795 327.005,34.947 361.808,40.168C396.61,45.388 390.79,51.778 390.79,76.14C390.79,100.502 402.883,127.057 428.985,127.057C455.087,127.057 497.754,123.458 513.416,107.797C529.077,92.136 456.768,62.219 493.311,29.157C529.854,-3.906 595.979,-14.347 561.176,-47.409C526.373,-80.472 495.051,-101.354 437.626,-83.952C380.202,-66.551 385.422,-43.929 331.478,-16.087Z" style="fill:rgb(174,203,232);stroke:rgb(64,145,227);stroke-width:4px;"/>
        <path d="M267.093,37.857C264.858,73.619 239.251,93.542 197.487,76.14C155.724,58.739 157.464,91.802 136.583,77.881C115.701,63.959 75.678,36.117 107,23.936C138.323,11.755 159.204,-16.087 185.306,3.055C211.408,22.196 268.833,10.015 267.093,37.857Z" style="fill:rgb(174,203,232);stroke:rgb(64,145,227);stroke-width:4px;"/>
        <path d="M35.655,3.055C47.549,11.975 58.276,55.259 37.395,56.999C16.513,58.739 -33.951,63.959 -33.951,39.598C-33.951,15.236 -26.99,22.196 -4.369,1.314C18.253,-19.567 28.694,-2.166 35.655,3.055Z" style="fill:rgb(174,203,232);stroke:rgb(64,145,227);stroke-width:4px;"/>
        <g transform="matrix(1,0,0,1,-20.8817,-33.4106)">
            <path d="M195.502,333.422C193.677,326.123 213.749,326.579 216.942,333.422C220.135,340.264 196.871,338.896 195.502,333.422Z" style="fill:rgb(180,153,33);"/>
        </g>
        <g transform="matrix(1,0,0,1,-20.8817,-33.4106)">
            <ellipse cx="559.188" cy="391.239" rx="6.842" ry="23.379" style="fill:rgb(203,47,0);"/>
        </g>
        <g transform="matrix(1,0,0,1,-20.8817,-33.4106)">
            <path d="M13.604,535.626L-15.956,535.991" style="fill:none;stroke:rgb(64,145,227);stroke-width:8px;"/>
        </g>
    </g>
</svg>
