<?xml version="1.0" encoding="UTF-8" standalone="no"?>
<!DOCTYPE svg PUBLIC "-//W3C//DTD SVG 1.1//EN" "http://www.w3.org/Graphics/SVG/1.1/DTD/svg11.dtd">
<svg width="100%" height="100%" viewBox="0 0 600 600" version="1.1" xmlns="http://www.w3.org/2000/svg" xmlns:xlink="http://www.w3.org/1999/xlink" xml:space="preserve" xmlns:serif="http://www.serif.com/" style="fill-rule:evenodd;clip-rule:evenodd;stroke-linecap:round;stroke-linejoin:round;stroke-miterlimit:1.5;">
    <g id="Layer1">
        <path d="M159.731,225.577C176.276,218.809 450.537,303.268 466.93,318.949C483.324,334.629 327.942,441.543 290.879,438.692C253.815,435.841 9.338,374.544 12.902,320.374C16.466,266.204 128.369,238.407 159.731,225.577Z" style="fill:rgb(222,184,4);stroke:rgb(28,22,17);stroke-width:4px;"/>
        <path d="M180.401,304.266C194.517,299.288 455.526,380.531 467.643,400.488C479.76,420.446 316.538,539.762 292.304,532.349C268.07,524.936 29.296,468.628 19.317,428.714C9.338,388.799 153.316,313.817 180.401,304.266Z" style="fill:rgb(223,167,1);stroke:rgb(28,22,17);stroke-width:4px;"/>
        <path d="M12.902,325.363C8.324,306.987 7.913,425.863 22.168,437.267C36.423,448.671 235.283,536.447 273.772,537.766C312.261,539.085 464.079,432.883 474.058,395.82C484.037,358.756 465.505,335.235 469.069,318.842C472.632,302.448 418.44,396.349 303.708,435.734C255.953,452.128 20.742,356.832 12.902,325.363Z" style="fill:rgb(192,110,0);stroke:rgb(28,22,17);stroke-width:4px;"/>
        <path d="M164.152,220.208C155.284,207.929 249.683,62.51 282.648,54.491C315.614,46.473 557.952,108.839 575.771,132.004C593.59,155.169 491.131,311.085 470.639,311.085C450.147,311.085 175.734,236.245 164.152,220.208Z" style="fill:rgb(222,184,4);stroke:rgb(28,22,17);stroke-width:4px;"/>
        <path d="M287.103,74.983C312.375,67.401 553.497,129.331 567.752,146.259C582.008,163.187 486.676,302.175 472.421,308.412C458.166,314.649 174.843,230.899 173.062,223.772C171.28,216.644 269.284,80.329 287.103,74.983Z" style="fill:rgb(223,167,1);stroke:rgb(28,22,17);stroke-width:4px;"/>
        <path d="M573.989,128.048C573.989,123.095 591.666,140.022 591.666,148.576C591.666,157.129 501.573,321.919 485.607,321.349C469.641,320.778 466.22,315.647 463.369,312.225C460.518,308.804 470.781,312.225 476.484,307.664C482.186,303.102 573.242,186.755 579.121,144.584C580.152,137.189 573.989,133.18 573.989,128.048Z" style="fill:rgb(192,110,0);stroke:rgb(28,22,17);stroke-width:4px;"/>
        <g transform="matrix(1.09414,0.216377,-0.158641,0.802193,56.5456,59.8103)">
            <path d="M127.285,414.538C127.285,409.251 124.138,404.959 120.262,404.959L105.57,404.959C101.694,404.959 98.547,409.251 98.547,414.538L98.547,433.697C98.547,438.985 101.694,443.277 105.57,443.277L120.262,443.277C124.138,443.277 127.285,438.985 127.285,433.697L127.285,414.538Z" style="fill:rgb(152,148,134);stroke:rgb(28,22,17);stroke-width:4.09px;"/>
        </g>
        <g transform="matrix(1.09414,0.216377,-0.158641,0.802193,114.935,85.3556)">
            <path d="M127.285,414.538C127.285,409.251 124.138,404.959 120.262,404.959L105.57,404.959C101.694,404.959 98.547,409.251 98.547,414.538L98.547,433.697C98.547,438.985 101.694,443.277 105.57,443.277L120.262,443.277C124.138,443.277 127.285,438.985 127.285,433.697L127.285,414.538Z" style="fill:rgb(152,148,134);stroke:rgb(28,22,17);stroke-width:4.09px;"/>
        </g>
        <path d="M104.021,418.644C109.146,416.722 116.337,419.556 118.162,424.574C119.987,429.592 110.407,433.241 111.776,439.171C113.144,445.102 143.251,459.243 152.374,456.962C161.498,454.681 159.217,445.558 163.779,444.189C168.34,442.821 178.832,447.839 178.832,450.576C178.832,453.313 168.34,472.015 156.024,471.559C143.707,471.103 100.828,453.313 98.091,446.014C95.354,438.715 96.722,421.381 104.021,418.644Z" style="fill:rgb(129,83,21);stroke:rgb(28,22,17);stroke-width:4px;"/>
        <path d="M291.692,450.119C290.579,440.096 287.238,513.6 277.214,524.737" style="fill:none;stroke:rgb(28,22,17);stroke-width:4px;"/>
        <path d="M168.073,237.405C168.073,237.405 182.551,281.953 182.551,294.203" style="fill:none;stroke:rgb(28,22,17);stroke-width:4px;"/>
    </g>
    <g id="train" transform="matrix(0.0550085,-0.0207993,0.0207993,0.0550085,333.911,449.525)">
        <g transform="matrix(11.8228,0,0,11.8228,-3627.69,-5293.09)">
            <rect x="297.496" y="434.844" width="67.285" height="67.285" style="fill:white;stroke:rgb(28,22,17);stroke-width:1.44px;"/>
        </g>
        <path d="M416.937,275.638L415.545,187.935C415.545,187.935 370.998,126.682 379.35,111.369C387.703,96.056 504.64,90.487 517.169,111.369C529.698,132.251 483.759,186.543 483.759,186.543L480.974,271.462L416.937,275.638Z" style="fill:rgb(203,98,0);stroke:rgb(242,45,0);stroke-width:8.5px;"/>
        <path d="M390.487,275.638L390.487,247.796C390.487,247.796 409.315,237.456 395.393,226.32C379.648,224.306 359.861,225.522 359.861,225.522C359.861,225.522 351.516,242.669 365.429,245.012C369.065,255.595 368.213,274.246 368.213,274.246L390.487,275.638Z" style="fill:rgb(203,98,0);stroke:rgb(242,45,0);stroke-width:8.5px;"/>
        <path d="M116.241,155.916C130.458,132.222 287.471,125.29 327.842,157.309C330.626,193.503 318.097,268.677 318.097,268.677C318.097,268.677 504.64,271.462 522.738,272.854C540.835,274.246 592.343,368.91 526.914,445.476C422.506,459.397 156.613,441.299 156.613,441.299C156.613,441.299 112.065,162.877 116.241,155.916ZM293.039,203.248C293.039,190.955 283.059,180.974 270.766,180.974L180.278,180.974C167.985,180.974 158.005,190.955 158.005,203.248L158.005,247.796C158.005,260.089 167.985,270.07 180.278,270.07L270.766,270.07C283.059,270.07 293.039,260.089 293.039,247.796L293.039,203.248Z" style="fill:rgb(203,47,0);stroke:rgb(242,45,0);stroke-width:8.5px;"/>
        <g transform="matrix(1.03529,0,0,1,-6.71342,-7.98292)">
            <path d="M174.085,446.308C174.085,443.426 171.825,441.087 169.042,441.087L66.018,441.087C63.235,441.087 60.976,443.426 60.976,446.308L60.976,456.748C60.976,459.63 63.235,461.969 66.018,461.969L169.042,461.969C171.825,461.969 174.085,459.63 174.085,456.748L174.085,446.308Z" style="fill:rgb(178,150,32);stroke:rgb(185,145,33);stroke-width:8.35px;"/>
        </g>
        <path d="M391.587,150.061C412.079,157.188 483.355,166.098 509.193,148.279" style="fill:none;stroke:rgb(242,45,0);stroke-width:8.5px;"/>
        <g transform="matrix(1,0,0,1,-1.7819,13.3643)">
            <path d="M400.696,150.061C421.188,157.188 477.283,167.032 503.12,149.213" style="fill:none;stroke:rgb(242,45,0);stroke-width:8.5px;"/>
        </g>
        <ellipse cx="532.594" cy="360.865" rx="28.538" ry="87.007" style="fill:rgb(203,98,0);stroke:rgb(242,45,0);stroke-width:8.5px;"/>
        <path d="M501.271,272.466C485.44,313.222 464.241,369.635 502.664,447.872" style="fill:none;stroke:rgb(242,45,0);stroke-width:8.5px;"/>
        <g transform="matrix(1,0,0,1,10.8449,0.0540986)">
            <path d="M501.271,272.466C485.44,313.222 464.241,369.635 502.664,447.872" style="fill:none;stroke:rgb(242,45,0);stroke-width:8.5px;"/>
        </g>
        <g transform="matrix(0.965047,0,0,1.44719,13.2229,-59.0721)">
            <ellipse cx="451.396" cy="120.264" rx="73.086" ry="11.833" style="fill:rgb(163,81,5);stroke:rgb(242,45,0);stroke-width:6.91px;"/>
        </g>
        <path d="M104.228,176.28L95.876,148.438C95.876,148.438 230.911,95.537 350.632,149.83C346.734,176.28 345.064,177.672 345.064,177.672C345.064,177.672 278.242,133.124 104.228,176.28Z" style="fill:rgb(255,245,0);stroke:rgb(242,201,0);stroke-width:8.5px;"/>
        <g transform="matrix(1,0,0,1,-20.8817,-33.4106)">
            <path d="M152.849,213.211C152.849,213.211 252.864,181.329 331.324,211.5C333.035,250.845 312.051,469.049 311.481,471.971C310.911,474.894 196.185,467.025 196.185,467.025L152.849,213.211Z" style="fill:none;stroke:rgb(185,145,33);stroke-width:8.5px;"/>
        </g>
        <path d="M150.372,397.069C150.372,397.069 260.822,381.49 253.945,479.481C249.49,542.962 228.33,546.303 186.01,557.44C143.69,568.577 101.37,520.688 101.37,488.391C101.37,456.094 114.734,408.205 150.372,397.069Z" style="fill:rgb(255,181,0);stroke:rgb(20,19,13);stroke-width:8.5px;"/>
        <path d="M434.967,426.99C434.967,426.99 497.968,423.834 501.184,496.187C503.411,546.303 471.114,551.871 445.5,555.212C419.885,558.553 379.792,537.393 379.792,496.187C379.792,454.98 409.352,430.331 434.967,426.99Z" style="fill:rgb(255,181,0);stroke:rgb(49,43,15);stroke-width:8.5px;"/>
        <g transform="matrix(0.548726,0,0,0.514667,78.2558,232.363)">
            <path d="M150.372,397.069C150.372,397.069 260.822,381.49 253.945,479.481C249.49,542.962 228.33,546.303 186.01,557.44C143.69,568.577 101.37,520.688 101.37,488.391C101.37,456.094 114.734,408.205 150.372,397.069Z" style="fill:rgb(232,215,174);stroke:rgb(20,19,13);stroke-width:15.98px;"/>
        </g>
        <g transform="matrix(0.530826,0,0,0.545622,207.351,228.024)">
            <path d="M434.967,426.99C434.967,426.99 497.968,423.834 501.184,496.187C503.411,546.303 471.114,551.871 445.5,555.212C419.885,558.553 379.792,537.393 379.792,496.187C379.792,454.98 409.352,430.331 434.967,426.99Z" style="fill:rgb(232,215,174);stroke:rgb(49,43,15);stroke-width:15.79px;"/>
        </g>
        <g transform="matrix(1.71902,0,0,1.86882,-316.459,-433.404)">
            <circle cx="440.773" cy="496.826" r="3.898" style="fill:rgb(174,203,232);stroke:rgb(64,145,227);stroke-width:4.74px;"/>
        </g>
        <g transform="matrix(2.01862,0,0,1.86882,-718.513,-449.398)">
            <circle cx="440.773" cy="496.826" r="3.898" style="fill:rgb(174,203,232);stroke:rgb(64,145,227);stroke-width:4.37px;"/>
        </g>
        <path d="M171.075,478.728L440.142,495.656" style="fill:none;stroke:rgb(64,145,227);stroke-width:8.5px;"/>
        <path d="M331.478,-16.087C312.922,-6.51 315.512,4.795 315.512,4.795C315.512,4.795 327.005,34.947 361.808,40.168C396.61,45.388 390.79,51.778 390.79,76.14C390.79,100.502 402.883,127.057 428.985,127.057C455.087,127.057 497.754,123.458 513.416,107.797C529.077,92.136 456.768,62.219 493.311,29.157C529.854,-3.906 595.979,-14.347 561.176,-47.409C526.373,-80.472 495.051,-101.354 437.626,-83.952C380.202,-66.551 385.422,-43.929 331.478,-16.087Z" style="fill:rgb(174,203,232);stroke:rgb(64,145,227);stroke-width:8.5px;"/>
        <path d="M267.093,37.857C264.858,73.619 239.251,93.542 197.487,76.14C155.724,58.739 157.464,91.802 136.583,77.881C115.701,63.959 75.678,36.117 107,23.936C138.323,11.755 159.204,-16.087 185.306,3.055C211.408,22.196 268.833,10.015 267.093,37.857Z" style="fill:rgb(174,203,232);stroke:rgb(64,145,227);stroke-width:8.5px;"/>
        <path d="M35.655,3.055C47.549,11.975 58.276,55.259 37.395,56.999C16.513,58.739 -33.951,63.959 -33.951,39.598C-33.951,15.236 -26.99,22.196 -4.369,1.314C18.253,-19.567 28.694,-2.166 35.655,3.055Z" style="fill:rgb(174,203,232);stroke:rgb(64,145,227);stroke-width:8.5px;"/>
        <g transform="matrix(1,0,0,1,-20.8817,-33.4106)">
            <path d="M195.502,333.422C193.677,326.123 213.749,326.579 216.942,333.422C220.135,340.264 196.871,338.896 195.502,333.422Z" style="fill:rgb(180,153,33);stroke:rgb(28,22,17);stroke-width:8.5px;"/>
        </g>
        <g transform="matrix(1,0,0,1,-20.8817,-33.4106)">
            <ellipse cx="559.188" cy="391.239" rx="6.842" ry="23.379" style="fill:rgb(203,47,0);stroke:rgb(28,22,17);stroke-width:8.5px;"/>
        </g>
    </g>
    <g id="Layer2" transform="matrix(0.296364,0,0,0.334094,-91.8297,304.653)">
        <g transform="matrix(2.48813,0.681807,-0.768609,2.20714,-484.221,-587.811)">
            <ellipse cx="453.67" cy="229.813" rx="38.422" ry="26.728" style="fill:white;stroke:rgb(28,22,17);stroke-width:1.3px;"/>
        </g>
        <g transform="matrix(0.764098,0.280408,-0.342961,0.624733,232.402,-22.703)">
            <path d="M440.123,219.891C440.123,219.891 447.597,201.674 462.778,204.009C466.327,207.569 463.946,211.249 464.647,215.921C465.348,220.592 456.706,234.372 445.729,230.868C434.752,227.365 440.123,219.891 440.123,219.891Z" style="fill:rgb(200,120,51);stroke:rgb(3,3,3);stroke-width:2.16px;"/>
        </g>
        <g transform="matrix(0.764098,0.280408,-0.342961,0.624733,232.402,-22.703)">
            <path d="M460.223,209.186C460.223,209.186 448.162,216.349 447.672,223.084" style="fill:none;stroke:rgb(3,3,3);stroke-width:2.16px;"/>
        </g>
        <g transform="matrix(0.764098,0.280408,-0.342961,0.624733,232.402,-22.703)">
            <path d="M392.719,275.831C392.719,275.831 391.598,304.636 427.285,300.308C462.973,295.979 462.226,276.361 460.357,261.413C457.368,251.884 454.378,249.642 452.136,244.41C450.267,234.694 439.804,206.854 423.362,207.041C420.389,206.052 418.69,204.799 419.438,201.809C420.185,198.82 414.767,203.678 414.206,206.48L413.646,209.283C413.646,209.283 411.03,201.809 412.151,197.885C413.272,193.962 404.677,203.117 404.49,206.48C404.303,209.844 402.622,205.546 401.688,203.491C400.753,201.436 399.445,205.546 398.885,208.909C398.324,212.273 377.771,216.383 378.706,228.528C373.661,226.286 356.097,223.483 351.613,231.518C347.129,239.552 366.934,248.707 374.782,247.4C372.353,254.126 379.335,279.966 392.906,284.769C393.452,281.885 392.719,275.831 392.719,275.831Z" style="fill:rgb(200,120,51);stroke:rgb(3,3,3);stroke-width:2.16px;"/>
        </g>
        <g transform="matrix(0.764098,0.280408,-0.342961,0.624733,232.402,-22.703)">
            <circle cx="405.75" cy="250.316" r="4.664" style="fill:rgb(3,3,3);"/>
        </g>
        <g transform="matrix(0.764098,0.280408,-0.342961,0.624733,255.705,-19.3572)">
            <circle cx="405.75" cy="250.316" r="4.664" style="fill:rgb(3,3,3);"/>
        </g>
        <g transform="matrix(0.764098,0.280408,-0.342961,0.624733,232.402,-22.703)">
            <path d="M357.882,234.288C357.882,234.288 366.991,231.952 373.53,236.623" style="fill:none;stroke:rgb(3,3,3);stroke-width:2.16px;"/>
        </g>
        <g transform="matrix(0.764098,0.280408,-0.342961,0.624733,232.402,-22.703)">
            <path d="M403,249.359C403,249.359 402.641,247.685 404.674,247.685" style="fill:none;stroke:rgb(233,227,222);stroke-width:2.16px;"/>
        </g>
        <g transform="matrix(0.764098,0.280408,-0.342961,0.624733,232.402,-22.703)">
            <path d="M430.264,243.26C430.264,243.26 430.145,241.347 431.819,241.108" style="fill:none;stroke:rgb(233,227,222);stroke-width:2.16px;"/>
        </g>
        <g transform="matrix(0.764098,0.280408,-0.342961,0.624733,232.402,-22.703)">
            <path d="M411.638,269.404C411.638,269.404 408.672,269.499 408.385,272.082" style="fill:none;stroke:rgb(28,22,17);stroke-width:2.16px;"/>
        </g>
        <g transform="matrix(0.764098,0.280408,-0.342961,0.624733,232.402,-22.703)">
            <path d="M446.077,262.133C446.077,262.133 444.164,260.316 441.581,261.177" style="fill:none;stroke:rgb(28,22,17);stroke-width:2.16px;"/>
        </g>
        <g transform="matrix(0.764098,0.280408,-0.342961,0.624733,232.402,-22.703)">
            <path d="M438.823,213.746C438.823,213.746 436.955,188.288 441.626,189.222C446.297,190.157 449.567,192.025 451.902,195.295C454.238,198.565 438.123,166.801 446.297,165.166C454.472,163.531 460.311,176.143 461.478,178.712C462.646,181.282 460.077,149.751 465.682,152.788C471.288,155.824 480.396,164.465 483.433,175.676C486.469,186.887 471.988,206.506 438.823,213.746Z" style="fill:rgb(246,179,101);stroke:rgb(28,22,17);stroke-width:2.16px;"/>
        </g>
        <g transform="matrix(0.764098,0.280408,-0.342961,0.624733,232.402,-22.703)">
            <path d="M429.247,210.864C429.247,210.864 448.166,208.061 448.166,202.456C448.166,196.85 448.399,184.005 453.304,185.406C458.209,186.808 459.376,198.252 463.814,194.515C468.251,190.778 461.011,166.488 470.821,168.357C480.63,170.225 476.192,182.603 479.462,184.238C482.732,185.873 479.696,152.942 488.104,157.146C496.512,161.35 494.176,181.202 493.008,188.91C491.841,196.617 480.864,216.623 438.59,220.44C396.316,224.256 429.247,210.864 429.247,210.864Z" style="fill:rgb(246,179,101);stroke:rgb(28,22,17);stroke-width:2.16px;"/>
        </g>
        <g transform="matrix(0.764098,0.280408,-0.342961,0.624733,232.402,-22.703)">
            <path d="M374.362,224.256C374.362,224.256 374.139,214.182 367.4,202.738C361.592,192.874 357.078,206.039 358.48,213.746C359.881,221.453 356.378,223.789 354.976,222.154C353.575,220.519 354.509,190.39 347.97,187.12C341.43,183.851 339.562,209.775 337.226,214.68C334.891,219.585 337.693,178.712 329.052,176.844C320.41,174.976 317.14,191.091 316.44,202.302C315.739,213.512 351.473,231.73 374.362,224.256Z" style="fill:rgb(246,179,101);stroke:rgb(28,22,17);stroke-width:2.16px;"/>
        </g>
        <g transform="matrix(0.764098,0.280408,-0.342961,0.624733,232.402,-22.703)">
            <path d="M385.572,222.621C385.572,222.621 376.697,224.49 370.858,218.884C365.019,213.279 364.786,205.104 359.414,203.937C354.042,202.769 354.276,211.41 352.641,214.914C351.006,218.417 345.167,192.025 337.927,192.492C330.686,192.959 333.179,210.76 330.219,210.476C323.454,209.828 322.278,177.078 312.936,175.676C303.594,174.275 299.39,214.914 316.44,226.592C333.489,238.269 373.427,237.102 383.704,234.533C393.98,231.963 385.572,222.621 385.572,222.621Z" style="fill:rgb(246,179,101);stroke:rgb(28,22,17);stroke-width:2.16px;"/>
        </g>
        <g transform="matrix(0.536452,0,0,0.362678,1672.54,90.7058)">
            <path d="M138.421,365.286L214.601,339.741L215.97,406.341L140.702,434.167L138.421,365.286Z" style="fill:rgb(131,69,9);stroke:rgb(24,34,45);stroke-width:3.54px;"/>
        </g>
        <g transform="matrix(0.536452,0,0,0.362678,1672.54,90.7058)">
            <path d="M141.158,433.711L131.123,430.518L131.123,363.461L138.878,366.654L141.158,433.711Z" style="fill:rgb(131,69,9);stroke:rgb(24,34,45);stroke-width:3.54px;"/>
        </g>
        <g transform="matrix(0.536452,0,0,0.362678,1672.54,90.7058)">
            <path d="M215.057,340.197L376.54,372.128L371.979,438.729L216.882,405.428L215.057,340.197Z" style="fill:rgb(131,69,9);stroke:rgb(24,34,45);stroke-width:3.54px;"/>
        </g>
        <g transform="matrix(0.536452,0,0,0.362678,1672.54,90.7058)">
            <path d="M215.057,339.284L386.12,364.83L372.705,371.048L209.127,341.565L215.057,339.284Z" style="fill:rgb(131,69,9);stroke:rgb(24,34,45);stroke-width:3.54px;"/>
        </g>
        <g transform="matrix(0.536452,0,0,0.362678,1672.54,90.7058)">
            <path d="M273.445,392.242L244.25,339.692C244.25,339.692 243.674,320.658 227.201,324.044C216.048,326.336 215.578,344.634 222.993,348.084C230.402,351.532 250.089,392.709 250.089,392.709L273.445,392.242Z" style="fill:rgb(199,16,42);stroke:rgb(24,34,45);stroke-width:3.54px;"/>
        </g>
        <g transform="matrix(0.536452,0,0,0.362678,1672.54,90.7058)">
            <path d="M224.895,344.883C224.895,344.883 238.647,341.893 243.579,334.868" style="fill:none;stroke:rgb(24,34,45);stroke-width:3.54px;"/>
        </g>
        <g transform="matrix(0.536452,0,0,0.362678,1672.54,90.7058)">
            <path d="M230.575,346.228C230.575,346.228 240.889,342.491 244.028,339.203" style="fill:none;stroke:rgb(24,34,45);stroke-width:3.54px;"/>
        </g>
        <g transform="matrix(0.536452,0,0,0.362678,1672.54,90.7058)">
            <path d="M244.327,375.376C244.327,375.376 227.735,352.058 233.415,350.414C239.095,348.769 249.708,374.18 253.295,379.562" style="fill:none;stroke:rgb(24,34,45);stroke-width:3.54px;"/>
        </g>
        <g transform="matrix(0.536452,0,0,0.362678,1672.54,90.7058)">
            <path d="M257.182,379.412C257.182,379.412 237.301,349.517 241.487,347.275C245.672,345.032 262.114,374.031 262.114,374.031" style="fill:none;stroke:rgb(24,34,45);stroke-width:3.54px;"/>
        </g>
        <g transform="matrix(0.536452,0,0,0.362678,1672.54,90.7058)">
            <path d="M251.081,322.184C251.081,322.184 243.421,336.01 264.347,343.297C285.274,350.584 265.282,337.879 265.282,337.879C265.282,337.879 250.708,324.613 251.081,322.184Z" style="fill:rgb(132,132,132);stroke:rgb(24,34,45);stroke-width:3.54px;"/>
        </g>
        <g transform="matrix(0.536452,0,0,0.362678,1672.54,90.7058)">
            <path d="M264.955,394.023L262.924,341.249C262.924,341.249 236.308,322.862 258.356,308.558C259.281,316.755 259.723,325.16 259.723,325.16C259.723,325.16 265.141,332.447 275.792,326.095C275.88,318.9 275.792,309.652 275.792,309.652C275.792,309.652 297.466,322.521 280.836,337.492C279.437,354.147 282.892,395.812 282.892,395.812L264.955,394.023Z" style="fill:rgb(159,159,159);stroke:rgb(24,34,45);stroke-width:3.54px;"/>
        </g>
        <g transform="matrix(0.536452,0,0,0.362678,1672.54,90.7058)">
            <path d="M170.809,267.294C170.809,267.294 153.019,254.066 153.019,299.226C153.019,344.387 133.404,362.177 133.404,362.177L152.563,361.265L170.809,267.294Z" style="fill:rgb(131,69,9);stroke:rgb(24,34,45);stroke-width:3.54px;"/>
        </g>
        <g transform="matrix(0.536452,0,0,0.362678,1672.54,90.7058)">
            <path d="M201.372,341.65L178.108,293.752C178.108,293.752 180.389,266.838 168.072,266.838C155.756,266.838 160.774,283.716 161.23,291.927C161.686,300.138 143.895,350.773 142.983,360.352C142.071,369.932 201.372,341.65 201.372,341.65Z" style="fill:rgb(131,69,9);stroke:rgb(24,34,45);stroke-width:3.54px;"/>
        </g>
        <g transform="matrix(0.536452,0,0,0.362678,1672.54,90.7058)">
            <path d="M271.074,385.525C271.074,385.525 265.842,346.287 271.634,346.1C277.427,345.913 276.679,379.349 276.492,387.206C276.305,395.063 271.447,388.505 271.074,385.525Z" style="fill:rgb(132,132,132);stroke:rgb(24,34,45);stroke-width:3.54px;"/>
        </g>
        <g transform="matrix(0.536452,0,0,0.362678,1672.54,90.7058)">
            <path d="M186.795,359.311L200.575,350.436L232.806,383.601L215.289,390.607L186.795,359.311Z" style="fill:rgb(120,71,7);stroke:rgb(24,34,45);stroke-width:3.54px;"/>
        </g>
        <g transform="matrix(0.536452,0,0,0.362678,1672.54,90.7058)">
            <path d="M131.579,363.461L209.127,336.091L215.514,339.741L139.79,366.654L131.579,363.461Z" style="fill:rgb(131,69,9);stroke:rgb(24,34,45);stroke-width:3.54px;"/>
        </g>
        <g transform="matrix(0.536452,0,0,0.362678,1672.54,90.7058)">
            <path d="M175.647,302.463C175.647,302.463 128.352,334.286 134.191,358.225C140.412,358.67 138.516,346.162 141.489,343.92C142.473,345.734 135.65,362.313 142.657,369.319C149.664,376.326 139.154,329.323 186.741,361.145C193.456,362.838 200.202,358.56 201.63,351.219C200.992,343.418 183.595,334.98 192.872,323.192C203.724,309.401 178.858,316.477 175.647,302.463Z" style="fill:rgb(159,159,159);stroke:rgb(24,34,45);stroke-width:3.54px;"/>
        </g>
        <g transform="matrix(0.659254,0,0,0.396328,1645.89,80.042)">
            <ellipse cx="195.937" cy="309.032" rx="12.116" ry="14.159" style="fill:rgb(128,128,128);stroke:rgb(24,34,45);stroke-width:3px;"/>
        </g>
        <g transform="matrix(0.536452,0,0,0.362678,1672.54,90.7058)">
            <path d="M184.697,297.5C184.697,297.5 182.654,313.849 199.003,317.353" style="fill:none;stroke:rgb(24,34,45);stroke-width:3.54px;"/>
        </g>
        <g transform="matrix(0.536452,0,0,0.362678,1672.54,90.7058)">
            <path d="M139.334,365.286L299.448,399.042L299.448,488.451L140.702,432.798L139.334,365.286Z" style="fill:rgb(131,69,9);stroke:rgb(24,34,45);stroke-width:3.54px;"/>
        </g>
        <g transform="matrix(0.536452,0,0,0.362678,1672.54,90.7058)">
            <path d="M295.799,371.757L401.173,290.559L419.42,311.543L414.402,311.999L414.402,317.473L408.472,317.017L408.472,322.947L403.91,322.947L404.823,328.877L398.436,329.333L399.349,335.263L392.05,334.807L392.506,343.018L385.664,342.106L387.032,348.492L381.102,347.58L380.19,353.966L372.435,354.878L326.231,418.769L295.799,371.757Z" style="fill:rgb(132,132,132);stroke:rgb(24,34,45);stroke-width:3.54px;"/>
        </g>
        <g transform="matrix(0.536452,0,0,0.362678,1672.54,90.7058)">
            <path d="M316.057,327.051L334.742,335.693L351.791,311.87L355.295,315.84L340.58,341.765C340.58,341.765 318.86,344.101 314.188,331.722C309.517,319.344 316.057,327.051 316.057,327.051Z" style="fill:rgb(132,132,132);stroke:rgb(24,34,45);stroke-width:3.54px;"/>
        </g>
        <g transform="matrix(0.536452,0,0,0.362678,1672.54,90.7058)">
            <path d="M173.09,270.031C173.09,270.031 158.037,279.155 174.459,291.927C192.983,293.723 348.258,310.63 348.258,310.63L352.82,286.91L173.09,270.031Z" style="fill:rgb(107,104,93);stroke:rgb(24,34,45);stroke-width:3.54px;"/>
        </g>
        <g transform="matrix(0.536452,0,0,0.362678,1672.54,90.7058)">
            <path d="M319.794,301.593L324.932,306.965C324.932,306.965 298.307,311.636 304.846,344.801C311.386,377.967 276.586,309.768 319.794,301.593Z" style="fill:rgb(132,132,132);stroke:rgb(24,34,45);stroke-width:3.54px;"/>
        </g>
        <g transform="matrix(0.536452,0,0,0.362678,1672.54,90.7058)">
            <path d="M324.796,307.335L314.188,331.022C314.188,331.022 316.29,343.867 341.048,342.232C346.791,333.662 355.289,315.396 355.289,315.396C355.289,315.396 364.403,355.312 331.705,356.012C322.363,368.391 307.649,399.22 307.649,399.22L280.79,390.812L304.145,347.371C304.145,347.371 297.236,313.174 324.796,307.335Z" style="fill:rgb(159,159,159);stroke:rgb(24,34,45);stroke-width:3.54px;"/>
        </g>
        <g transform="matrix(0.536452,0,0,0.362678,1672.54,90.7058)">
            <path d="M294.336,390.112C294.336,390.112 309.751,360.917 314.188,363.019C318.626,365.121 303.912,390.781 299.474,394.316C295.037,397.851 292.935,395.919 294.336,390.112Z" style="fill:rgb(132,132,132);stroke:rgb(24,34,45);stroke-width:3.54px;"/>
        </g>
        <g transform="matrix(0.536452,0,0,0.362678,1672.54,90.7058)">
            <path d="M299.448,398.586L386.12,365.286L395.499,366.888L309.028,401.323L299.448,398.586Z" style="fill:rgb(131,69,9);stroke:rgb(24,34,45);stroke-width:3.54px;"/>
        </g>
        <g transform="matrix(0.536452,0,0,0.362678,1672.54,90.7058)">
            <path d="M299.448,398.586L300.361,489.363L312.498,493.68L308.115,402.235L299.448,398.586Z" style="fill:rgb(131,69,9);stroke:rgb(24,34,45);stroke-width:3.54px;"/>
        </g>
        <g transform="matrix(0.536452,0,0,0.362678,1672.54,90.7058)">
            <path d="M308.572,401.779L394.331,368.023L395.699,458.344L312.221,494.381L308.572,401.779Z" style="fill:rgb(131,69,9);stroke:rgb(24,34,45);stroke-width:3.54px;"/>
        </g>
        <g transform="matrix(0.536452,0,0,0.362678,1672.54,90.7058)">
            <path d="M360.732,289.836C360.732,289.836 335.989,269.674 338.679,316.104C341.621,366.902 307.203,422.847 340.503,417.829C372.402,406.272 351.451,399.583 354.644,372.669C357.838,345.755 360.732,289.836 360.732,289.836Z" style="fill:rgb(131,69,9);stroke:rgb(24,34,45);stroke-width:3.54px;"/>
        </g>
        <g transform="matrix(0.536452,0,0,0.362678,1672.54,90.7058)">
            <path d="M342.784,417.373L385.208,397.758C385.208,397.758 394.331,391.912 366.961,311.999C359.21,295.146 365.552,291.653 356.925,287.281C336.854,284.544 350.083,301.423 348.258,314.195C346.433,326.968 322.713,416.545 342.784,417.373Z" style="fill:rgb(131,69,9);stroke:rgb(24,34,45);stroke-width:3.54px;"/>
        </g>
        <g transform="matrix(0.536452,0,0,0.362678,1672.54,90.7058)">
            <path d="M139.334,368.023L299.715,398.776L304.499,396.083L147.089,363.005L139.334,368.023Z" style="fill:rgb(131,69,9);stroke:rgb(24,34,45);stroke-width:3.54px;"/>
        </g>
        <g transform="matrix(0.536452,0,0,0.362678,1672.54,90.7058)">
            <ellipse cx="355.705" cy="298.978" rx="5.021" ry="8.992" style="fill:rgb(107,104,93);stroke:rgb(24,34,45);stroke-width:3.54px;"/>
        </g>
        <g transform="matrix(0.536452,0,0,0.362678,1672.04,89.6894)">
            <ellipse cx="348.815" cy="405.714" rx="5.372" ry="5.489" style="fill:rgb(107,104,93);stroke:rgb(24,34,45);stroke-width:3.54px;"/>
        </g>
        <g transform="matrix(0.536452,0,0,0.362678,1671.29,89.6894)">
            <ellipse cx="381.746" cy="393.919" rx="4.671" ry="4.905" style="fill:rgb(107,104,93);stroke:rgb(24,34,45);stroke-width:3.54px;"/>
        </g>
        <g transform="matrix(0.536452,0,0,0.362678,1671.97,91.0528)">
            <ellipse cx="350.45" cy="402.094" rx="4.438" ry="5.138" style="fill:rgb(107,104,93);stroke:rgb(24,34,45);stroke-width:3.54px;"/>
        </g>
        <g transform="matrix(0.536452,0,0,0.345797,1688.92,93.4516)">
            <ellipse cx="350.45" cy="402.094" rx="4.438" ry="5.138" style="fill:rgb(107,104,93);stroke:rgb(24,34,45);stroke-width:3.6px;"/>
        </g>
    </g>
    <g id="Layer21" serif:id="Layer2" transform="matrix(-0.274188,-0.143081,-0.161297,0.309095,618.024,226.831)">
        <g transform="matrix(0.60188,0.188212,-0.235332,0.493985,240.235,47.7525)">
            <path d="M440.123,219.891C440.123,219.891 447.597,201.674 462.778,204.009C466.327,207.569 463.946,211.249 464.647,215.921C465.348,220.592 456.706,234.372 445.729,230.868C434.752,227.365 440.123,219.891 440.123,219.891Z" style="fill:rgb(200,120,51);stroke:rgb(3,3,3);stroke-width:2.68px;"/>
        </g>
        <g transform="matrix(0.60188,0.188212,-0.235332,0.493985,240.235,47.7525)">
            <path d="M460.223,209.186C460.223,209.186 448.162,216.349 447.672,223.084" style="fill:none;stroke:rgb(3,3,3);stroke-width:2.68px;"/>
        </g>
        <g transform="matrix(-2.4545,-0.399245,-0.450074,2.17731,1649.49,-87.2357)">
            <ellipse cx="453.67" cy="229.813" rx="38.422" ry="26.728" style="fill:white;stroke:rgb(28,22,17);stroke-width:1.3px;"/>
        </g>
        <g transform="matrix(0.60188,0.188212,-0.235332,0.493985,240.235,47.7525)">
            <path d="M392.719,275.831C392.719,275.831 391.598,304.636 427.285,300.308C462.973,295.979 462.226,276.361 460.357,261.413C457.368,251.884 454.378,249.642 452.136,244.41C450.267,234.694 439.804,206.854 423.362,207.041C420.389,206.052 418.69,204.799 419.438,201.809C420.185,198.82 414.767,203.678 414.206,206.48L413.646,209.283C413.646,209.283 411.03,201.809 412.151,197.885C413.272,193.962 404.677,203.117 404.49,206.48C404.303,209.844 402.622,205.546 401.688,203.491C400.753,201.436 399.445,205.546 398.885,208.909C398.324,212.273 377.771,216.383 378.706,228.528C373.661,226.286 356.097,223.483 351.613,231.518C347.129,239.552 366.934,248.707 374.782,247.4C372.353,254.126 379.335,279.966 392.906,284.769C393.452,281.885 392.719,275.831 392.719,275.831Z" style="fill:rgb(200,120,51);stroke:rgb(3,3,3);stroke-width:2.68px;"/>
        </g>
        <g transform="matrix(0.60188,0.188212,-0.235332,0.493985,240.235,47.7525)">
            <circle cx="405.75" cy="250.316" r="4.664" style="fill:rgb(3,3,3);"/>
        </g>
        <g transform="matrix(0.60188,0.188212,-0.235332,0.493985,258.349,49.4804)">
            <circle cx="405.75" cy="250.316" r="4.664" style="fill:rgb(3,3,3);"/>
        </g>
        <g transform="matrix(0.60188,0.188212,-0.235332,0.493985,240.235,47.7525)">
            <path d="M357.882,234.288C357.882,234.288 366.991,231.952 373.53,236.623" style="fill:none;stroke:rgb(3,3,3);stroke-width:2.68px;"/>
        </g>
        <g transform="matrix(0.60188,0.188212,-0.235332,0.493985,240.235,47.7525)">
            <path d="M403,249.359C403,249.359 402.641,247.685 404.674,247.685" style="fill:none;stroke:rgb(233,227,222);stroke-width:2.68px;"/>
        </g>
        <g transform="matrix(0.60188,0.188212,-0.235332,0.493985,240.235,47.7525)">
            <path d="M430.264,243.26C430.264,243.26 430.145,241.347 431.819,241.108" style="fill:none;stroke:rgb(233,227,222);stroke-width:2.68px;"/>
        </g>
        <g transform="matrix(0.60188,0.188212,-0.235332,0.493985,240.235,47.7525)">
            <path d="M411.638,269.404C411.638,269.404 408.672,269.499 408.385,272.082" style="fill:none;stroke:rgb(28,22,17);stroke-width:2.68px;"/>
        </g>
        <g transform="matrix(0.60188,0.188212,-0.235332,0.493985,240.235,47.7525)">
            <path d="M446.077,262.133C446.077,262.133 444.164,260.316 441.581,261.177" style="fill:none;stroke:rgb(28,22,17);stroke-width:2.68px;"/>
        </g>
        <g transform="matrix(0.60188,0.188212,-0.235332,0.493985,240.235,47.7525)">
            <path d="M438.823,213.746C438.823,213.746 436.955,188.288 441.626,189.222C446.297,190.157 449.567,192.025 451.902,195.295C454.238,198.565 438.123,166.801 446.297,165.166C454.472,163.531 460.311,176.143 461.478,178.712C462.646,181.282 460.077,149.751 465.682,152.788C471.288,155.824 480.396,164.465 483.433,175.676C486.469,186.887 471.988,206.506 438.823,213.746Z" style="fill:rgb(246,179,101);stroke:rgb(28,22,17);stroke-width:2.68px;"/>
        </g>
        <g transform="matrix(0.60188,0.188212,-0.235332,0.493985,240.235,47.7525)">
            <path d="M429.247,210.864C429.247,210.864 448.166,208.061 448.166,202.456C448.166,196.85 448.399,184.005 453.304,185.406C458.209,186.808 459.376,198.252 463.814,194.515C468.251,190.778 461.011,166.488 470.821,168.357C480.63,170.225 476.192,182.603 479.462,184.238C482.732,185.873 479.696,152.942 488.104,157.146C496.512,161.35 494.176,181.202 493.008,188.91C491.841,196.617 480.864,216.623 438.59,220.44C396.316,224.256 429.247,210.864 429.247,210.864Z" style="fill:rgb(246,179,101);stroke:rgb(28,22,17);stroke-width:2.68px;"/>
        </g>
        <g transform="matrix(0.60188,0.188212,-0.235332,0.493985,240.235,47.7525)">
            <path d="M374.362,224.256C374.362,224.256 374.139,214.182 367.4,202.738C361.592,192.874 357.078,206.039 358.48,213.746C359.881,221.453 356.378,223.789 354.976,222.154C353.575,220.519 354.509,190.39 347.97,187.12C341.43,183.851 339.562,209.775 337.226,214.68C334.891,219.585 337.693,178.712 329.052,176.844C320.41,174.976 317.14,191.091 316.44,202.302C315.739,213.512 351.473,231.73 374.362,224.256Z" style="fill:rgb(246,179,101);stroke:rgb(28,22,17);stroke-width:2.68px;"/>
        </g>
        <g transform="matrix(0.60188,0.188212,-0.235332,0.493985,240.235,47.7525)">
            <path d="M385.572,222.621C385.572,222.621 376.697,224.49 370.858,218.884C365.019,213.279 364.786,205.104 359.414,203.937C354.042,202.769 354.276,211.41 352.641,214.914C351.006,218.417 345.167,192.025 337.927,192.492C330.686,192.959 333.179,210.76 330.219,210.476C323.454,209.828 322.278,177.078 312.936,175.676C303.594,174.275 299.39,214.914 316.44,226.592C333.489,238.269 373.427,237.102 383.704,234.533C393.98,231.963 385.572,222.621 385.572,222.621Z" style="fill:rgb(246,179,101);stroke:rgb(28,22,17);stroke-width:2.68px;"/>
        </g>
    </g>
    <g id="Layer3" transform="matrix(1.05467,-0.27345,0.27345,1.05467,-55.7021,34.4503)">
        <path d="M103.547,364.759C101.385,369.227 161.644,413.455 172.738,412.93C183.832,412.406 241.638,328.91 241.93,320.735C242.222,312.561 178.577,287.242 174.198,280.447C169.819,273.652 107.634,356.313 103.547,364.759Z" style="fill:rgb(164,189,200);stroke:rgb(28,22,17);stroke-width:0.92px;"/>
        <path d="M172.446,264.893C166.279,264.325 108.218,343.427 107.05,353.645C105.883,363.863 163.396,399.784 168.943,401.816C174.49,403.848 237.55,320.935 237.55,311.885C237.55,302.835 182.081,265.781 172.446,264.893Z" style="fill:white;stroke:rgb(28,22,17);stroke-width:0.92px;"/>
        <path d="M137.413,381.076L189.671,312.469" style="fill:none;stroke:rgb(28,22,17);stroke-width:0.92px;"/>
        <path d="M189.963,311.009C184.842,308.8 184.708,262.254 219.158,278.311C253.607,294.368 204.852,317.432 189.963,311.009Z" style="fill:white;stroke:rgb(28,22,17);stroke-width:0.92px;"/>
        <path d="M203.122,275.027C202.012,274.532 180.329,275.392 168.651,305.462C177.153,312.364 188.218,309.535 188.218,309.535C188.218,309.535 182.118,285.278 203.122,275.027Z" style="fill:white;stroke:rgb(28,22,17);stroke-width:0.92px;"/>
        <path d="M191.719,311.781C191.719,311.781 227.455,316.065 229.221,285.796C233.389,290.008 238.426,322.179 201.349,330.645C196.386,324.515 191.719,311.781 191.719,311.781Z" style="fill:white;stroke:rgb(28,22,17);stroke-width:0.92px;"/>
        <path d="M186.157,334.232L200.404,342.407L197.835,346.845L189.193,345.677L184.289,338.67L186.157,334.232Z" style="fill:none;stroke:rgb(28,22,17);stroke-width:0.92px;"/>
        <g transform="matrix(1,0,0,1,0.860985,0.19133)">
            <circle cx="171.56" cy="325.24" r="0.817" style="fill:white;stroke:rgb(28,22,17);stroke-width:0.92px;"/>
        </g>
        <g transform="matrix(1,0,0,1,-19.133,26.0209)">
            <circle cx="171.56" cy="325.24" r="0.817" style="fill:white;stroke:rgb(28,22,17);stroke-width:0.92px;"/>
        </g>
        <g transform="matrix(1,0,0,1,-27.1449,35.9939)">
            <circle cx="171.56" cy="325.24" r="0.817" style="fill:white;stroke:rgb(28,22,17);stroke-width:0.92px;"/>
        </g>
        <g transform="matrix(1,0,0,1,-35.2765,45.9192)">
            <circle cx="171.56" cy="325.24" r="0.817" style="fill:white;stroke:rgb(28,22,17);stroke-width:0.92px;"/>
        </g>
        <g transform="matrix(1,0,0,1,11.4033,-11.0971)">
            <circle cx="171.56" cy="325.24" r="0.817" style="fill:white;stroke:rgb(28,22,17);stroke-width:0.92px;"/>
        </g>
        <g transform="matrix(1,0,0,1,-9.94916,14.1584)">
            <circle cx="171.56" cy="325.24" r="0.817" style="fill:white;stroke:rgb(28,22,17);stroke-width:0.92px;"/>
        </g>
    </g>
</svg>
