<?xml version="1.0" encoding="UTF-8" standalone="no"?>
<!DOCTYPE svg PUBLIC "-//W3C//DTD SVG 1.1//EN" "http://www.w3.org/Graphics/SVG/1.1/DTD/svg11.dtd">
<svg width="100%" height="100%" viewBox="0 0 600 600" version="1.1" xmlns="http://www.w3.org/2000/svg" xmlns:xlink="http://www.w3.org/1999/xlink" xml:space="preserve" xmlns:serif="http://www.serif.com/" style="fill-rule:evenodd;clip-rule:evenodd;stroke-linecap:round;stroke-linejoin:round;stroke-miterlimit:1.5;">
    <rect x="-1.615" y="-2.852" width="555.452" height="602.784" style="fill:white;"/>
    <g id="tools" transform="matrix(0.338227,0,0,0.331361,-19.689,269.353)">
        <g transform="matrix(1.63276,-0.970753,-0.712104,-2.22581,1137.43,1492.81)">
            <path d="M148.015,289.32C126.457,279.745 104.136,240.986 98.122,209.135C96.704,196.715 93.886,189.748 92.179,181.247C80.102,185.819 51.071,199.158 41.957,203.669C34.829,210.796 40.283,210.975 47.873,232.861C63.197,277.052 89.569,336.068 151.579,341.592C190.637,345.072 158.707,294.069 148.015,289.32Z" style="fill:rgb(180,203,227);stroke:black;stroke-width:1.28px;"/>
        </g>
        <g transform="matrix(1.78129,-1.34797e-16,9.88816e-17,2.42829,882.35,-118.254)">
            <path d="M188.123,275.65C179.139,267.712 162.189,280.33 147.723,288.705C146.173,289.603 150.757,331.695 152.984,348.4C155.211,365.105 191.963,380.697 247.647,377.356C303.332,374.015 364.585,383.815 371.267,362.655C377.949,341.495 394.879,367.009 397.995,427.472C399.539,457.424 399.896,453.414 399.945,459.35C415.204,460.477 429.011,461.323 448.817,459.469C465.523,441.65 421.787,290.69 392.427,278.238C378.979,272.534 363.031,270.756 353.448,272.669C334.188,276.513 210.073,295.041 188.123,275.65Z" style="fill:rgb(180,203,227);stroke:black;stroke-width:1.41px;"/>
        </g>
        <g transform="matrix(1.69373,0.75197,-0.551613,2.30892,987.843,-296.624)">
            <path d="M167.933,185.063C159.906,207.94 190.028,309.083 309.772,262.041C429.516,214.999 387.463,98.106 361.804,85.989C336.144,73.872 196.443,103.808 167.933,185.063Z" style="fill:rgb(229,206,122);stroke:black;stroke-width:1.3px;"/>
        </g>
        <g transform="matrix(1.69373,0.75197,-0.551613,2.30892,987.843,-296.624)">
            <path d="M162.943,177.935C155.734,181.54 153.689,190.743 150.826,196.467C150.203,197.715 147.228,202.847 148.688,204.307C150.502,206.121 161.04,195.276 163.656,197.893C170.274,204.51 163.114,220.329 167.22,228.541C170.13,234.362 176.983,221.63 177.199,221.414C177.574,221.038 177.911,219.988 177.911,219.988L177.911,221.414C177.911,223.487 177.004,228.153 177.911,229.967C178.711,231.566 182.557,237.438 185.752,234.243C186.94,233.055 186.702,230.442 187.89,229.254C189.016,228.128 189.58,234.692 191.454,232.818C193.366,230.906 189.579,216.874 192.879,213.573C195.339,211.114 198.815,219.515 203.571,217.137C208.231,214.807 204.666,208.531 206.422,205.02C207.611,202.642 212.811,205.758 214.262,204.307C215.419,203.15 214.975,199.395 214.975,197.18C214.975,196.47 212.942,175.902 212.837,175.797C210.66,173.621 203.471,175.698 201.433,173.659C197.816,170.042 189.723,170.095 182.901,170.095C181.88,170.095 177.136,169.445 176.486,170.095C173.867,172.713 168.935,175.084 163.656,175.084" style="fill:rgb(96,59,44);stroke:black;stroke-width:1.3px;"/>
        </g>
        <g transform="matrix(1.69373,0.75197,-0.551613,2.30892,987.843,-296.624)">
            <path d="M162.629,185.721C162.629,185.721 61.224,97.065 224.996,39.827C335.251,1.294 339.706,49.182 345.274,69.229C350.843,89.275 306.295,169.684 162.629,185.721Z" style="fill:rgb(180,203,227);stroke:black;stroke-width:1.3px;"/>
        </g>
        <g transform="matrix(1.69373,0.75197,-0.551613,2.30892,987.843,-296.624)">
            <path d="M345.41,105.234C345.41,112.928 346.796,120.162 350.4,123.765C352.26,125.625 357.369,123.608 358.953,125.191C361.136,127.375 359.625,131.585 362.516,133.031C367.83,135.688 369.298,126.596 370.357,124.478C370.688,123.816 373.55,119.831 374.633,120.914C378.524,124.805 378.753,132.874 382.474,136.595C382.585,136.706 383.717,138.203 384.612,137.308C387.023,134.896 384.643,128.724 386.75,126.616C388.527,124.84 387.463,117.02 387.463,113.787C387.463,103.111 371.688,93.829 361.091,93.829C354.951,93.829 352.63,94.45 349.687,97.393C348.674,98.406 347.846,103.095 346.836,103.095" style="fill:rgb(96,59,44);stroke:black;stroke-width:1.3px;"/>
        </g>
        <g transform="matrix(1.69373,0.75197,-0.551613,2.30892,987.843,-296.624)">
            <path d="M186.017,130.482C186.017,130.482 163.743,175.029 167.084,186.166C170.425,197.303 312.193,149.735 382.026,81.479C382.832,76.294 376.533,69.285 365.32,65.888C349.086,60.968 263.888,122.3 238.36,128.254C226.248,131.079 207.712,136.088 186.017,130.482Z" style="fill:rgb(180,203,227);stroke:black;stroke-width:1.3px;"/>
        </g>
        <g transform="matrix(1.69373,0.75197,-0.551613,2.30892,987.843,-296.624)">
            <path d="M207.135,73.159C207.135,73.159 236.358,76.01 232.794,115.925" style="fill:none;stroke:black;stroke-width:1.3px;"/>
        </g>
        <g transform="matrix(1.69373,0.75197,-0.551613,2.30892,987.843,-296.624)">
            <path d="M291.24,47.5C291.24,47.5 315.474,63.893 315.474,80.287" style="fill:none;stroke:black;stroke-width:1.3px;"/>
        </g>
        <g transform="matrix(1.78129,-1.34797e-16,9.88816e-17,2.42829,882.35,-118.254)">
            <path d="M239.273,273.222L196.555,257.842L186.81,275.94L247.441,304.419L239.273,273.222Z" style="fill:rgb(180,203,227);stroke:black;stroke-width:1.41px;"/>
        </g>
        <g transform="matrix(1.78129,-1.34797e-16,9.88816e-17,2.42829,882.35,-118.254)">
            <path d="M284.282,273.309L336.171,255.063L352.137,272.739L274.589,306.381L284.282,273.309Z" style="fill:rgb(180,203,227);stroke:black;stroke-width:1.41px;"/>
        </g>
        <g transform="matrix(1.78129,-2.69594e-16,1.97763e-16,2.42829,876.255,-148.716)">
            <ellipse cx="264.895" cy="300.394" rx="19.957" ry="18.532" style="fill:rgb(178,139,123);stroke:black;stroke-width:1.41px;"/>
        </g>
        <g transform="matrix(1.78129,-1.34797e-16,9.88816e-17,2.42829,882.35,-118.254)">
            <path d="M279.72,276.731C279.72,276.731 300.818,253.352 312.793,260.194C324.767,267.037 309.941,274.45 317.354,292.126C324.767,309.803 296.256,304.671 280.291,295.547C281.664,292.104 282.881,281.984 279.72,276.731Z" style="fill:rgb(178,139,123);stroke:black;stroke-width:1.41px;"/>
        </g>
        <g transform="matrix(-1.78129,0,0,2.42829,1814.93,-114.284)">
            <path d="M279.72,276.731C279.72,276.731 300.818,253.352 312.793,260.194C324.767,267.037 309.941,274.45 317.354,292.126C324.767,309.803 296.256,304.671 280.291,295.547C281.664,292.104 282.881,281.984 279.72,276.731Z" style="fill:rgb(178,139,123);stroke:black;stroke-width:1.41px;"/>
        </g>
        <g transform="matrix(1.78129,-1.34797e-16,9.88816e-17,2.42829,882.35,-118.254)">
            <path d="M146.248,286.716L171.45,273.585L203.1,342.275L326.719,344.502L366.166,269.543L392.193,273.71L376.835,352.298C376.835,352.298 354.631,424.665 359.086,459.19C323.326,462.781 173.169,458.962 173.169,458.962C173.169,458.962 165.331,400.15 158.552,382.367C149.535,358.709 146.248,286.716 146.248,286.716Z" style="fill:rgb(47,74,102);stroke:rgb(28,22,17);stroke-width:1.41px;"/>
        </g>
        <g transform="matrix(1.78129,-1.34797e-16,9.88816e-17,2.42829,882.35,-118.254)">
            <path d="M226.487,378.47L293.309,378.47L292.195,412.994L268.808,430.813L245.42,417.449L226.487,378.47Z" style="fill:rgb(47,74,102);stroke:black;stroke-width:1.41px;"/>
        </g>
        <g transform="matrix(1.78129,-1.34797e-16,9.88816e-17,2.42829,882.35,-118.254)">
            <path d="M282.56,283.669C282.56,283.669 291.678,281.427 294.967,276.942" style="fill:none;stroke:black;stroke-width:1.41px;"/>
        </g>
        <g transform="matrix(1.78129,-1.34797e-16,9.88816e-17,2.42829,882.35,-118.254)">
            <path d="M282.112,289.349C282.112,289.349 292.127,288.303 294.967,291.292" style="fill:none;stroke:black;stroke-width:1.41px;"/>
        </g>
        <g transform="matrix(1.78129,-1.34797e-16,9.88816e-17,2.42829,882.35,-118.254)">
            <path d="M282.859,286.359L286.746,285.612" style="fill:none;stroke:black;stroke-width:1.41px;"/>
        </g>
        <g transform="matrix(1.78129,-1.34797e-16,9.88816e-17,2.42829,882.35,-118.254)">
            <path d="M241.753,283.519C241.753,283.519 230.841,279.484 228.898,274.252" style="fill:none;stroke:black;stroke-width:1.41px;"/>
        </g>
        <g transform="matrix(1.78129,-1.34797e-16,9.88816e-17,2.42829,882.35,-118.254)">
            <path d="M241.604,289.947C241.604,289.947 231.738,288.901 225.909,292.787" style="fill:none;stroke:black;stroke-width:1.41px;"/>
        </g>
        <g transform="matrix(1.78129,-1.34797e-16,9.88816e-17,2.42829,882.35,-118.254)">
            <path d="M241.155,286.808C241.155,286.808 234.279,285.313 232.785,284.267" style="fill:none;stroke:black;stroke-width:1.41px;"/>
        </g>
        <g transform="matrix(1.78129,-1.34797e-16,9.88816e-17,2.42829,882.35,-118.254)">
            <path d="M262.093,274.649C266.578,273.752 271.959,277.041 273.603,279.881" style="fill:none;stroke:black;stroke-width:1.41px;"/>
        </g>
        <g transform="matrix(1.78129,-1.34797e-16,9.88816e-17,2.42829,882.35,-118.254)">
            <ellipse cx="243.507" cy="193.626" rx="7.239" ry="12.251" style="stroke:rgb(28,22,17);stroke-width:1.41px;"/>
        </g>
        <g transform="matrix(1.78129,-4.04392e-16,2.96645e-16,2.42829,992.859,-134.87)">
            <ellipse cx="243.507" cy="193.626" rx="7.239" ry="12.251" style="stroke:rgb(28,22,17);stroke-width:1.41px;"/>
        </g>
        <g transform="matrix(-0.124756,-2.42233,1.77692,-0.17007,1062.15,1041.17)">
            <ellipse cx="243.507" cy="193.626" rx="7.239" ry="12.251" style="fill:rgb(229,206,122);stroke:black;stroke-width:1.38px;"/>
        </g>
        <g transform="matrix(1.78129,-1.34797e-16,9.88816e-17,2.42829,882.35,-118.254)">
            <path d="M253.429,242.916C257.742,247.38 281.918,262.439 299.411,236.712" style="fill:none;stroke:black;stroke-width:1.41px;"/>
        </g>
        <g transform="matrix(2.57931,0,0,3.83735,634.398,-421.779)">
            <ellipse cx="309.752" cy="214.513" rx="0.957" ry="0.897" style="fill:rgb(96,59,44);stroke:rgb(28,22,17);stroke-width:0.92px;"/>
        </g>
        <g transform="matrix(2.57931,-1.34797e-16,1.97763e-16,3.83735,650.103,-418.805)">
            <ellipse cx="309.752" cy="214.513" rx="0.957" ry="0.897" style="fill:rgb(96,59,44);stroke:rgb(28,22,17);stroke-width:0.92px;"/>
        </g>
        <g transform="matrix(2.57931,-1.34797e-16,1.97763e-16,3.83735,641.378,-409.588)">
            <ellipse cx="309.752" cy="214.513" rx="0.957" ry="0.897" style="fill:rgb(96,59,44);stroke:rgb(28,22,17);stroke-width:0.92px;"/>
        </g>
        <g transform="matrix(-2.30935,1.56607,-1.25374,-3.43571,2309.44,673.057)">
            <ellipse cx="309.752" cy="214.513" rx="0.957" ry="0.897" style="fill:rgb(96,59,44);stroke:rgb(28,22,17);stroke-width:1.04px;"/>
        </g>
        <g transform="matrix(-2.30935,1.56607,-1.25374,-3.43571,2308.59,684.092)">
            <ellipse cx="309.752" cy="214.513" rx="0.957" ry="0.897" style="fill:rgb(96,59,44);stroke:rgb(28,22,17);stroke-width:1.04px;"/>
        </g>
        <g transform="matrix(-2.30935,1.56607,-1.25374,-3.43571,2291.64,677.898)">
            <ellipse cx="309.752" cy="214.513" rx="0.957" ry="0.897" style="fill:rgb(96,59,44);stroke:rgb(28,22,17);stroke-width:1.04px;"/>
        </g>
        <g transform="matrix(-2.30935,1.56607,-1.25374,-3.43571,2298.02,666.162)">
            <ellipse cx="309.752" cy="214.513" rx="0.957" ry="0.897" style="fill:rgb(96,59,44);stroke:rgb(28,22,17);stroke-width:1.04px;"/>
        </g>
    </g>
    <g id="tools1" serif:id="tools" transform="matrix(0.443444,0,0,0.499092,-342.588,198.1)">
        <g transform="matrix(1.55148,-0.92243,-0.708645,-2.215,871.433,1115.92)">
            <path d="M148.015,289.32C126.457,279.745 104.136,240.986 98.122,209.135C92.81,180.997 82.976,149.735 85.649,139.641C86.035,138.181 91.186,101.491 88.961,96.097C84.995,86.478 72.102,75.706 72.446,105.194C59.129,72.823 33.976,74.639 26.886,113.404C26.336,116.415 34.574,137.001 38.179,144.799C41.948,152.951 40.69,210.838 47.873,232.861C62.232,276.888 79.316,326.806 153.225,334.352C192.234,338.335 158.707,294.069 148.015,289.32Z" style="fill:rgb(229,206,122);stroke:black;stroke-width:0.88px;"/>
        </g>
        <g transform="matrix(1.72681,-1.26288e-16,9.58573e-17,2.275,611.618,-442.725)">
            <path d="M187.145,287.609C173.39,292.35 162.678,287.589 148.212,295.964C146.662,296.862 150.757,331.695 152.984,348.4C155.211,365.105 191.963,380.697 247.647,377.356C303.332,374.015 364.585,383.815 371.267,362.655C377.949,341.495 389.086,367.333 397.995,427.472C406.905,487.611 405.791,483.156 404.678,521.022C395.967,554.106 413.651,594.359 414.635,549.519C423.335,571.558 440.467,573.147 447.776,568.829C483.941,547.46 451.021,511.491 450.979,508.573C450.645,485.551 421.787,307.77 392.427,295.318C378.979,289.615 372.327,286.556 354.426,283.344C349.842,282.522 320.832,285.401 308.577,281.865C298.443,278.94 305.711,269.828 294.807,266.644C279.008,262.032 260.242,264.913 243.43,268.065C232.125,270.184 237.813,285.243 227.886,288.078C217.645,291.004 191.894,285.972 187.145,287.609Z" style="fill:rgb(229,206,122);stroke:black;stroke-width:1.03px;"/>
        </g>
        <g transform="matrix(1.3468,0.59794,-0.545393,2.28289,819.882,-609.994)">
            <path d="M174.559,181.71C166.532,204.587 197.839,308.655 317.583,261.613C437.327,214.571 363.142,114.721 337.483,102.604C311.823,90.487 203.069,100.455 174.559,181.71Z" style="fill:rgb(229,206,122);stroke:black;stroke-width:0.95px;"/>
        </g>
        <g transform="matrix(1.78129,-1.34797e-16,9.88816e-17,2.42829,603.562,-483.229)">
            <path d="M146.248,296.056L179.094,284.927L269.976,312.375L342.468,280.886L376.905,289.723L370.424,350.598C370.424,350.598 337.073,443.742 341.527,478.267C345.991,512.862 375.931,532.493 375.931,532.493L164.904,534.553L201.507,477.153C201.507,477.153 162.815,375.438 156.037,357.656C147.019,333.998 146.248,296.056 146.248,296.056Z" style="fill:rgb(102,47,100);stroke:rgb(28,22,17);stroke-width:0.98px;"/>
        </g>
        <g transform="matrix(5.11553,0,0,5.27035,125.752,-963.429)">
            <path d="M141.509,209.487C141.509,207.295 143.017,205.343 143.377,203.181C144.188,198.313 144.461,193.371 145.012,188.467C146.892,171.726 148.157,144.599 168.217,137.521C173.098,135.799 175.016,143.746 179.579,142.456C186.953,140.372 185.476,138.01 192.26,134.549C204.018,128.549 214.946,132.802 223.254,142.222C228.916,148.643 227.469,154.486 229.093,162.542C229.847,166.287 234.102,183.182 236.712,189.244C237.92,192.05 239.232,194.853 241.004,197.342C241.682,198.294 247.366,201.126 246.142,203.648C244.524,206.983 238.937,206.251 238.201,209.954C237.578,213.089 240.319,220.88 235.632,222.8C232.821,223.951 229.316,221.838 226.524,223.033C225.033,223.671 221.64,229.656 218.816,227.237C211.782,221.212 213.686,213.644 214.379,205.283C215.548,191.166 215.24,191.368 215.78,177.256C216.031,170.684 219.215,158.488 213.911,152.265C213.089,151.301 209.036,153.429 208.773,153.433C206.34,153.475 203.962,152.651 201.533,152.499C190.372,151.801 184.684,154.017 171.871,156.937C169.907,157.384 164.541,159.321 163.463,161.374C161.511,165.091 163.579,170.098 163.697,173.753C163.697,173.769 167.74,214.283 161.828,224.902C158.829,230.288 153.13,223.977 150.617,223.267C148.463,222.657 144.011,225.226 141.976,224.902C140.212,224.621 138.339,220.868 137.305,219.997C136.075,218.962 134.462,218.472 133.174,217.51C126.652,212.641 137.059,210.727 139.874,208.786C140.736,208.192 141.581,207.522 142.209,206.684C142.774,205.932 142.436,204.115 143.377,204.115L141.509,209.487Z" style="fill:rgb(255,232,0);stroke:rgb(28,22,17);stroke-width:0.41px;"/>
        </g>
        <g transform="matrix(1.69373,0.75197,-0.551613,2.30892,709.056,-661.599)">
            <path d="M162.629,185.721C162.629,185.721 68.415,104.223 232.186,46.986C342.441,8.453 339.706,49.182 345.274,69.229C350.843,89.275 306.295,169.684 162.629,185.721Z" style="fill:rgb(180,203,227);stroke:black;stroke-width:0.88px;"/>
        </g>
        <g transform="matrix(1.69373,0.75197,-0.551613,2.30892,709.056,-661.599)">
            <path d="M186.017,130.482C186.017,130.482 163.743,175.029 167.084,186.166C170.425,197.303 312.193,149.735 382.026,81.479C382.832,76.294 376.533,69.285 365.32,65.888C349.086,60.968 263.888,122.3 238.36,128.254C226.248,131.079 207.712,136.088 186.017,130.482Z" style="fill:rgb(180,203,227);stroke:black;stroke-width:0.88px;"/>
        </g>
        <g transform="matrix(1.69373,0.75197,-0.551613,2.30892,709.056,-661.599)">
            <path d="M207.135,73.159C207.135,73.159 236.358,76.01 232.794,115.925" style="fill:none;stroke:black;stroke-width:0.88px;"/>
        </g>
        <g transform="matrix(1.69373,0.75197,-0.551613,2.30892,709.056,-661.599)">
            <path d="M291.24,47.5C291.24,47.5 315.474,63.893 315.474,80.287" style="fill:none;stroke:black;stroke-width:0.88px;"/>
        </g>
        <g transform="matrix(1.78129,-1.34797e-16,9.88816e-17,2.42829,603.562,-483.229)">
            <ellipse cx="243.507" cy="193.626" rx="7.239" ry="12.251" style="stroke:rgb(28,22,17);stroke-width:0.98px;"/>
        </g>
        <g transform="matrix(1.78129,-4.04392e-16,2.96645e-16,2.42829,714.071,-499.845)">
            <ellipse cx="243.507" cy="193.626" rx="7.239" ry="12.251" style="stroke:rgb(28,22,17);stroke-width:0.98px;"/>
        </g>
        <g transform="matrix(-0.124756,-2.42233,1.77692,-0.17007,783.365,676.197)">
            <ellipse cx="243.507" cy="193.626" rx="7.239" ry="12.251" style="fill:rgb(229,206,122);stroke:black;stroke-width:0.95px;"/>
        </g>
        <g transform="matrix(1.78129,-1.34797e-16,9.88816e-17,2.42829,603.562,-483.229)">
            <path d="M253.429,242.916C257.742,247.38 281.918,262.439 299.411,236.712" style="fill:none;stroke:black;stroke-width:0.98px;"/>
        </g>
        <g transform="matrix(2.57931,0,0,3.83735,355.611,-786.754)">
            <ellipse cx="309.752" cy="214.513" rx="0.957" ry="0.897" style="fill:rgb(96,59,44);stroke:rgb(28,22,17);stroke-width:0.63px;"/>
        </g>
        <g transform="matrix(2.57931,-1.34797e-16,1.97763e-16,3.83735,371.316,-783.781)">
            <ellipse cx="309.752" cy="214.513" rx="0.957" ry="0.897" style="fill:rgb(96,59,44);stroke:rgb(28,22,17);stroke-width:0.63px;"/>
        </g>
        <g transform="matrix(2.57931,-1.34797e-16,1.97763e-16,3.83735,362.591,-774.563)">
            <ellipse cx="309.752" cy="214.513" rx="0.957" ry="0.897" style="fill:rgb(96,59,44);stroke:rgb(28,22,17);stroke-width:0.63px;"/>
        </g>
        <g transform="matrix(-2.30935,1.56607,-1.25374,-3.43571,2030.65,308.082)">
            <ellipse cx="309.752" cy="214.513" rx="0.957" ry="0.897" style="fill:rgb(96,59,44);stroke:rgb(28,22,17);stroke-width:0.77px;"/>
        </g>
        <g transform="matrix(-2.30935,1.56607,-1.25374,-3.43571,2029.8,319.116)">
            <ellipse cx="309.752" cy="214.513" rx="0.957" ry="0.897" style="fill:rgb(96,59,44);stroke:rgb(28,22,17);stroke-width:0.77px;"/>
        </g>
        <g transform="matrix(-2.30935,1.56607,-1.25374,-3.43571,2012.85,312.922)">
            <ellipse cx="309.752" cy="214.513" rx="0.957" ry="0.897" style="fill:rgb(96,59,44);stroke:rgb(28,22,17);stroke-width:0.77px;"/>
        </g>
        <g transform="matrix(-2.30935,1.56607,-1.25374,-3.43571,2019.23,301.186)">
            <ellipse cx="309.752" cy="214.513" rx="0.957" ry="0.897" style="fill:rgb(96,59,44);stroke:rgb(28,22,17);stroke-width:0.77px;"/>
        </g>
    </g>
    <g id="Layer1">
    </g>
</svg>
