<?xml version="1.0" encoding="UTF-8" standalone="no"?>
<!DOCTYPE svg PUBLIC "-//W3C//DTD SVG 1.1//EN" "http://www.w3.org/Graphics/SVG/1.1/DTD/svg11.dtd">
<svg width="100%" height="100%" viewBox="0 0 600 600" version="1.1" xmlns="http://www.w3.org/2000/svg" xmlns:xlink="http://www.w3.org/1999/xlink" xml:space="preserve" xmlns:serif="http://www.serif.com/" style="fill-rule:evenodd;clip-rule:evenodd;stroke-linecap:round;stroke-linejoin:round;stroke-miterlimit:1.5;">
    <g id="track" transform="matrix(0.757401,0,0,1.34543,53.4257,-143.682)">
        <g transform="matrix(1.21206,0,0,0.741138,-71.4496,99.9338)">
            <path d="M0.273,200.978L600.417,200.978" style="fill:none;stroke:rgb(28,22,17);stroke-width:4.17px;"/>
        </g>
        <g transform="matrix(0.907345,0,0,0.869055,-9.77538,29.681)">
            <path d="M297.216,253.364L0.696,597.216" style="fill:none;stroke:rgb(21,13,13);stroke-width:6.26px;"/>
        </g>
        <g transform="matrix(0.896681,0,0,0.859729,-3.30986,35.2505)">
            <path d="M298.608,249.188L606.265,597.216" style="fill:none;stroke:rgb(21,13,13);stroke-width:6.33px;"/>
        </g>
        <g transform="matrix(0.907345,0,0,0.869055,-9.77538,29.681)">
            <path d="M242.036,282.941L355.508,282.941" style="fill:none;stroke:rgb(105,51,7);stroke-width:8.34px;"/>
        </g>
        <g transform="matrix(0.907345,0,0,0.869055,-9.77538,29.681)">
            <path d="M210.675,320.575L389.15,320.575" style="fill:none;stroke:rgb(105,51,7);stroke-width:8.34px;"/>
        </g>
        <g transform="matrix(0.907345,0,0,0.869055,-9.77538,29.681)">
            <path d="M181.024,353.076L417.661,353.076" style="fill:none;stroke:rgb(105,51,7);stroke-width:8.34px;"/>
        </g>
        <g transform="matrix(0.907345,0,0,0.869055,-9.77538,29.681)">
            <path d="M151.944,390.14L450.163,390.14" style="fill:none;stroke:rgb(105,51,7);stroke-width:8.34px;"/>
        </g>
        <g transform="matrix(0.907345,0,0,0.869055,-9.77538,29.681)">
            <path d="M113.169,433.476L487.796,433.476" style="fill:none;stroke:rgb(105,51,7);stroke-width:8.34px;"/>
        </g>
        <g transform="matrix(0.907345,0,0,0.869055,-9.77538,29.681)">
            <path d="M79.171,471.644L522.864,471.644" style="fill:none;stroke:rgb(105,51,7);stroke-width:8.34px;"/>
        </g>
        <g transform="matrix(0.907345,0,0,0.869055,-9.77538,29.681)">
            <path d="M36.405,523.319L569.194,523.319" style="fill:none;stroke:rgb(105,51,7);stroke-width:8.34px;"/>
        </g>
        <g transform="matrix(0.907345,0,0,0.869055,-9.77538,29.681)">
            <path d="M-14.379,583.013L605.723,583.013" style="fill:none;stroke:rgb(105,51,7);stroke-width:8.34px;"/>
        </g>
    </g>
    <g id="Layer2" transform="matrix(0.679301,0,0,0.765783,-57.4513,-33.0855)">
        <g transform="matrix(1.53934,0,0,1.57565,82.2378,-65.8179)">
            <path d="M85.473,251.248C85.473,251.248 77.81,251.248 71.971,257.816C66.132,264.385 62.482,258.546 62.482,258.546L66.497,265.48L57.738,270.589C57.738,270.589 65.402,285.186 79.999,279.348C94.597,273.509 78.539,258.911 85.473,251.248Z" style="fill:rgb(200,120,51);stroke:rgb(28,22,17);stroke-width:3.54px;"/>
        </g>
        <g transform="matrix(1.53934,0,0,1.57565,82.2378,-65.8179)">
            <path d="M164.664,314.746L165.029,345.036C165.029,345.036 175.247,358.173 198.603,347.955C193.493,331.168 189.844,294.31 189.844,294.31C189.844,294.31 176.342,314.016 164.664,314.746Z" style="fill:rgb(200,120,51);stroke:rgb(28,22,17);stroke-width:3.54px;"/>
        </g>
        <g transform="matrix(1.53934,0,0,1.57565,82.2378,-65.8179)">
            <path d="M142.691,237.441C142.691,237.441 102.093,223.756 88.864,244.74C75.635,265.723 77.003,281.233 86.127,297.655C87.776,309.742 77.916,327.306 86.583,340.079C95.25,352.851 110.76,348.29 116.234,344.64C121.708,340.991 109.977,325.972 113.497,312.709C114.03,310.698 107.11,307.691 99.356,300.848C91.601,294.006 113.953,315.902 123.989,315.446C125.504,322.912 121.708,338.71 123.532,346.921C125.357,355.132 149.534,358.325 155.464,351.483C161.394,344.64 150.14,319.819 151.964,316.626C153.789,313.433 171.84,329.036 196.519,281.689C203.234,268.807 200.625,275.759 202.449,260.706C204.274,245.652 142.691,237.441 142.691,237.441Z" style="fill:rgb(200,120,51);stroke:rgb(28,22,17);stroke-width:3.54px;"/>
        </g>
        <g transform="matrix(1.53934,0,0,1.57565,82.2378,-65.8179)">
            <path d="M85.108,330.438C85.108,330.438 105.545,341.021 115.033,331.898C117.097,335.249 117.587,343.576 117.587,343.576C117.587,343.576 86.203,357.443 85.108,330.438Z" style="stroke:rgb(28,22,17);stroke-width:3.54px;"/>
        </g>
        <g transform="matrix(1.53934,0,0,1.57565,82.2378,-65.8179)">
            <path d="M124.521,339.562C124.521,339.562 142.038,348.32 155.905,340.291C158.216,342.748 155.54,351.969 155.54,351.969C155.54,351.969 142.403,358.903 124.521,349.78C122.635,340.274 124.521,339.562 124.521,339.562Z" style="stroke:rgb(28,22,17);stroke-width:3.54px;"/>
        </g>
        <g transform="matrix(1.53934,0,0,1.57565,82.2378,-65.8179)">
            <path d="M165.394,338.102C165.394,338.102 183.605,345.4 196.377,338.102C197.594,342.359 198.449,347.519 198.449,347.519C198.449,347.519 176.342,359.633 165.029,346.13C164.277,339.822 165.394,338.102 165.394,338.102Z" style="stroke:rgb(28,22,17);stroke-width:3.54px;"/>
        </g>
        <g transform="matrix(0.371555,1.60961,-1.38776,0.254258,623.822,-385.435)">
            <path d="M440.123,219.891C440.123,219.891 447.597,201.674 462.778,204.009C466.327,207.569 463.946,211.249 464.647,215.921C465.348,220.592 456.706,234.372 445.729,230.868C434.752,227.365 440.123,219.891 440.123,219.891Z" style="fill:rgb(200,120,51);stroke:rgb(3,3,3);stroke-width:1.78px;"/>
        </g>
        <g transform="matrix(0.371555,1.60961,-1.38776,0.254258,623.822,-385.435)">
            <path d="M460.223,209.186C460.223,209.186 448.162,216.349 447.672,223.084" style="fill:none;stroke:rgb(3,3,3);stroke-width:1.78px;"/>
        </g>
        <g transform="matrix(0.371555,1.60961,-1.38776,0.254258,623.822,-385.435)">
            <path d="M392.719,275.831C392.719,275.831 391.598,304.636 427.285,300.308C462.973,295.979 462.226,276.361 460.357,261.413C457.368,251.884 454.378,249.642 452.136,244.41C450.267,234.694 439.804,206.854 423.362,207.041C420.389,206.052 418.69,204.799 419.438,201.809C420.185,198.82 414.767,203.678 414.206,206.48L413.646,209.283C413.646,209.283 411.03,201.809 412.151,197.885C413.272,193.962 404.677,203.117 404.49,206.48C404.303,209.844 402.622,205.546 401.688,203.491C400.753,201.436 399.445,205.546 398.885,208.909C398.324,212.273 377.771,216.383 378.706,228.528C373.661,226.286 356.097,223.483 351.613,231.518C347.129,239.552 366.934,248.707 374.782,247.4C372.353,254.126 379.335,279.966 392.906,284.769C393.452,281.885 392.719,275.831 392.719,275.831Z" style="fill:rgb(200,120,51);stroke:rgb(3,3,3);stroke-width:1.78px;"/>
        </g>
        <g transform="matrix(0.371555,1.60961,-1.38776,0.254258,623.822,-385.435)">
            <circle cx="405.75" cy="250.316" r="4.664" style="fill:rgb(3,3,3);"/>
        </g>
        <g transform="matrix(0.371555,1.60961,-1.38776,0.254258,643.622,-343.121)">
            <circle cx="405.75" cy="250.316" r="4.664" style="fill:rgb(3,3,3);"/>
        </g>
        <g transform="matrix(0.371555,1.60961,-1.38776,0.254258,623.822,-385.435)">
            <path d="M357.882,234.288C357.882,234.288 366.991,231.952 373.53,236.623" style="fill:none;stroke:rgb(3,3,3);stroke-width:0.45px;"/>
        </g>
        <g transform="matrix(0.371555,1.60961,-1.38776,0.254258,623.822,-385.435)">
            <path d="M403,249.359C403,249.359 402.641,247.685 404.674,247.685" style="fill:none;stroke:rgb(233,227,222);stroke-width:0.89px;"/>
        </g>
        <g transform="matrix(0.371555,1.60961,-1.38776,0.254258,623.822,-385.435)">
            <path d="M430.264,243.26C430.264,243.26 430.145,241.347 431.819,241.108" style="fill:none;stroke:rgb(233,227,222);stroke-width:0.89px;"/>
        </g>
        <g transform="matrix(0.371555,1.60961,-1.38776,0.254258,623.822,-385.435)">
            <path d="M411.638,269.404C411.638,269.404 408.672,269.499 408.385,272.082" style="fill:none;stroke:rgb(28,22,17);stroke-width:1.78px;"/>
        </g>
        <g transform="matrix(0.371555,1.60961,-1.38776,0.254258,623.822,-385.435)">
            <path d="M446.077,262.133C446.077,262.133 444.164,260.316 441.581,261.177" style="fill:none;stroke:rgb(28,22,17);stroke-width:1.78px;"/>
        </g>
        <g transform="matrix(0.371555,1.60961,-1.38776,0.254258,623.822,-385.435)">
            <path d="M438.823,213.746C438.823,213.746 436.955,188.288 441.626,189.222C446.297,190.157 449.567,192.025 451.902,195.295C454.238,198.565 438.123,166.801 446.297,165.166C454.472,163.531 460.311,176.143 461.478,178.712C462.646,181.282 460.077,149.751 465.682,152.788C471.288,155.824 480.396,164.465 483.433,175.676C486.469,186.887 471.988,206.506 438.823,213.746Z" style="fill:rgb(246,179,101);stroke:rgb(28,22,17);stroke-width:1.78px;"/>
        </g>
        <g transform="matrix(0.371555,1.60961,-1.38776,0.254258,623.822,-385.435)">
            <path d="M429.247,210.864C429.247,210.864 448.166,208.061 448.166,202.456C448.166,196.85 448.399,184.005 453.304,185.406C458.209,186.808 459.376,198.252 463.814,194.515C468.251,190.778 461.011,166.488 470.821,168.357C480.63,170.225 476.192,182.603 479.462,184.238C482.732,185.873 479.696,152.942 488.104,157.146C496.512,161.35 494.176,181.202 493.008,188.91C491.841,196.617 480.864,216.623 438.59,220.44C396.316,224.256 429.247,210.864 429.247,210.864Z" style="fill:rgb(246,179,101);stroke:rgb(28,22,17);stroke-width:1.78px;"/>
        </g>
        <g transform="matrix(0.371555,1.60961,-1.38776,0.254258,623.822,-385.435)">
            <path d="M374.362,224.256C374.362,224.256 374.139,214.182 367.4,202.738C361.592,192.874 357.078,206.039 358.48,213.746C359.881,221.453 356.378,223.789 354.976,222.154C353.575,220.519 354.509,190.39 347.97,187.12C341.43,183.851 339.562,209.775 337.226,214.68C334.891,219.585 337.693,178.712 329.052,176.844C320.41,174.976 317.14,191.091 316.44,202.302C315.739,213.512 351.473,231.73 374.362,224.256Z" style="fill:rgb(246,179,101);stroke:rgb(28,22,17);stroke-width:1.78px;"/>
        </g>
        <g transform="matrix(0.371555,1.60961,-1.38776,0.254258,623.822,-385.435)">
            <path d="M385.572,222.621C385.572,222.621 376.697,224.49 370.858,218.884C365.019,213.279 364.786,205.104 359.414,203.937C354.042,202.769 354.276,211.41 352.641,214.914C351.006,218.417 345.167,192.025 337.927,192.492C330.686,192.959 333.179,210.76 330.219,210.476C323.454,209.828 322.278,177.078 312.936,175.676C303.594,174.275 299.39,214.914 316.44,226.592C333.489,238.269 373.427,237.102 383.704,234.533C393.98,231.963 385.572,222.621 385.572,222.621Z" style="fill:rgb(246,179,101);stroke:rgb(28,22,17);stroke-width:1.78px;"/>
        </g>
    </g>
    <g id="Layer21" serif:id="Layer2" transform="matrix(-0.924488,0,0,1.04218,814.76,97.6986)">
        <g transform="matrix(1.53934,0,0,1.57565,200.962,-79.5701)">
            <path d="M85.473,251.248C85.473,251.248 77.81,251.248 71.971,257.816C66.132,264.385 62.482,258.546 62.482,258.546L66.497,265.48L57.738,270.589C57.738,270.589 65.402,285.186 79.999,279.348C94.597,273.509 78.539,258.911 85.473,251.248Z" style="fill:rgb(200,120,51);stroke:rgb(28,22,17);stroke-width:2.6px;"/>
        </g>
        <g transform="matrix(1.53934,0,0,1.57565,200.962,-79.5701)">
            <path d="M164.664,314.746L165.029,345.036C165.029,345.036 175.247,358.173 198.603,347.955C193.493,331.168 189.844,294.31 189.844,294.31C189.844,294.31 176.342,314.016 164.664,314.746Z" style="fill:rgb(200,120,51);stroke:rgb(28,22,17);stroke-width:2.6px;"/>
        </g>
        <g transform="matrix(1.53934,0,0,1.57565,200.962,-79.5701)">
            <path d="M142.691,237.441C142.691,237.441 102.093,223.756 88.864,244.74C75.635,265.723 77.003,281.233 86.127,297.655C87.776,309.742 77.916,327.306 86.583,340.079C95.25,352.851 110.76,348.29 116.234,344.64C121.708,340.991 109.977,325.972 113.497,312.709C114.03,310.698 107.11,307.691 99.356,300.848C91.601,294.006 113.953,315.902 123.989,315.446C125.504,322.912 121.708,338.71 123.532,346.921C125.357,355.132 149.534,358.325 155.464,351.483C161.394,344.64 150.14,319.819 151.964,316.626C153.789,313.433 171.84,329.036 196.519,281.689C203.234,268.807 200.625,275.759 202.449,260.706C204.274,245.652 142.691,237.441 142.691,237.441Z" style="fill:rgb(200,120,51);stroke:rgb(28,22,17);stroke-width:2.6px;"/>
        </g>
        <g transform="matrix(1.53934,0,0,1.57565,200.962,-79.5701)">
            <path d="M85.108,330.438C85.108,330.438 105.545,341.021 115.033,331.898C117.097,335.249 117.587,343.576 117.587,343.576C117.587,343.576 86.203,357.443 85.108,330.438Z" style="stroke:rgb(28,22,17);stroke-width:2.6px;"/>
        </g>
        <g transform="matrix(1.53934,0,0,1.57565,200.962,-79.5701)">
            <path d="M124.521,339.562C124.521,339.562 142.038,348.32 155.905,340.291C158.216,342.748 155.54,351.969 155.54,351.969C155.54,351.969 142.403,358.903 124.521,349.78C122.635,340.274 124.521,339.562 124.521,339.562Z" style="stroke:rgb(28,22,17);stroke-width:2.6px;"/>
        </g>
        <g transform="matrix(1.53934,0,0,1.57565,200.962,-79.5701)">
            <path d="M165.394,338.102C165.394,338.102 183.605,345.4 196.377,338.102C197.594,342.359 198.449,347.519 198.449,347.519C198.449,347.519 176.342,359.633 165.029,346.13C164.277,339.822 165.394,338.102 165.394,338.102Z" style="stroke:rgb(28,22,17);stroke-width:2.6px;"/>
        </g>
        <g transform="matrix(1.32187,0.923587,-0.855999,1.16323,193.653,-353.794)">
            <path d="M440.123,219.891C440.123,219.891 447.597,201.674 462.778,204.009C466.327,207.569 463.946,211.249 464.647,215.921C465.348,220.592 456.706,234.372 445.729,230.868C434.752,227.365 440.123,219.891 440.123,219.891Z" style="fill:rgb(200,120,51);stroke:rgb(3,3,3);stroke-width:1.28px;"/>
        </g>
        <g transform="matrix(1.32187,0.923587,-0.855999,1.16323,193.653,-353.794)">
            <path d="M460.223,209.186C460.223,209.186 448.162,216.349 447.672,223.084" style="fill:none;stroke:rgb(3,3,3);stroke-width:1.28px;"/>
        </g>
        <g transform="matrix(1.32187,0.923587,-0.855999,1.16323,193.653,-353.794)">
            <path d="M392.719,275.831C392.719,275.831 391.598,304.636 427.285,300.308C462.973,295.979 462.226,276.361 460.357,261.413C457.368,251.884 454.378,249.642 452.136,244.41C450.267,234.694 439.804,206.854 423.362,207.041C420.389,206.052 418.69,204.799 419.438,201.809C420.185,198.82 414.767,203.678 414.206,206.48L413.646,209.283C413.646,209.283 411.03,201.809 412.151,197.885C413.272,193.962 404.677,203.117 404.49,206.48C404.303,209.844 402.622,205.546 401.688,203.491C400.753,201.436 399.445,205.546 398.885,208.909C398.324,212.273 377.771,216.383 378.706,228.528C373.661,226.286 356.097,223.483 351.613,231.518C347.129,239.552 366.934,248.707 374.782,247.4C372.353,254.126 379.335,279.966 392.906,284.769C393.452,281.885 392.719,275.831 392.719,275.831Z" style="fill:rgb(200,120,51);stroke:rgb(3,3,3);stroke-width:1.28px;"/>
        </g>
        <g transform="matrix(1.32187,0.923587,-0.855999,1.16323,193.653,-353.794)">
            <circle cx="405.75" cy="250.316" r="4.664" style="fill:rgb(3,3,3);"/>
        </g>
        <g transform="matrix(1.32187,0.923587,-0.855999,1.16323,235.788,-336.571)">
            <circle cx="405.75" cy="250.316" r="4.664" style="fill:rgb(3,3,3);"/>
        </g>
        <g transform="matrix(1.32187,0.923587,-0.855999,1.16323,193.653,-353.794)">
            <path d="M357.882,234.288C357.882,234.288 366.991,231.952 373.53,236.623" style="fill:none;stroke:rgb(3,3,3);stroke-width:0.32px;"/>
        </g>
        <g transform="matrix(1.32187,0.923587,-0.855999,1.16323,193.653,-353.794)">
            <path d="M403,249.359C403,249.359 402.641,247.685 404.674,247.685" style="fill:none;stroke:rgb(233,227,222);stroke-width:0.64px;"/>
        </g>
        <g transform="matrix(1.32187,0.923587,-0.855999,1.16323,193.653,-353.794)">
            <path d="M430.264,243.26C430.264,243.26 430.145,241.347 431.819,241.108" style="fill:none;stroke:rgb(233,227,222);stroke-width:0.64px;"/>
        </g>
        <g transform="matrix(1.32187,0.923587,-0.855999,1.16323,193.653,-353.794)">
            <path d="M411.638,269.404C411.638,269.404 408.672,269.499 408.385,272.082" style="fill:none;stroke:rgb(28,22,17);stroke-width:1.28px;"/>
        </g>
        <g transform="matrix(1.32187,0.923587,-0.855999,1.16323,193.653,-353.794)">
            <path d="M446.077,262.133C446.077,262.133 444.164,260.316 441.581,261.177" style="fill:none;stroke:rgb(28,22,17);stroke-width:1.28px;"/>
        </g>
        <g transform="matrix(1.32187,0.923587,-0.855999,1.16323,193.653,-353.794)">
            <path d="M438.823,213.746C438.823,213.746 436.955,188.288 441.626,189.222C446.297,190.157 449.567,192.025 451.902,195.295C454.238,198.565 438.123,166.801 446.297,165.166C454.472,163.531 460.311,176.143 461.478,178.712C462.646,181.282 460.077,149.751 465.682,152.788C471.288,155.824 480.396,164.465 483.433,175.676C486.469,186.887 471.988,206.506 438.823,213.746Z" style="fill:rgb(246,179,101);stroke:rgb(28,22,17);stroke-width:1.28px;"/>
        </g>
        <g transform="matrix(1.32187,0.923587,-0.855999,1.16323,193.653,-353.794)">
            <path d="M429.247,210.864C429.247,210.864 448.166,208.061 448.166,202.456C448.166,196.85 448.399,184.005 453.304,185.406C458.209,186.808 459.376,198.252 463.814,194.515C468.251,190.778 461.011,166.488 470.821,168.357C480.63,170.225 476.192,182.603 479.462,184.238C482.732,185.873 479.696,152.942 488.104,157.146C496.512,161.35 494.176,181.202 493.008,188.91C491.841,196.617 480.864,216.623 438.59,220.44C396.316,224.256 429.247,210.864 429.247,210.864Z" style="fill:rgb(246,179,101);stroke:rgb(28,22,17);stroke-width:1.28px;"/>
        </g>
        <g transform="matrix(-0.920722,0,0,0.956785,881.38,-93.7336)">
            <path d="M412.851,291.567C386.24,276.599 320.972,249.804 344.637,201.08C368.303,152.356 354.382,142.611 376.656,92.495C398.93,42.379 436.517,34.027 474.104,81.358C511.691,128.69 507.514,121.73 559.022,125.906C610.53,130.082 599.394,153.748 578.512,202.472C557.63,251.196 574.336,292.959 549.278,297.135C524.22,301.312 435.125,304.096 412.851,291.567Z" style="fill:rgb(107,104,93);stroke:rgb(28,22,17);stroke-width:4.31px;"/>
        </g>
        <g transform="matrix(1.32187,0.923587,-0.855999,1.16323,193.653,-353.794)">
            <path d="M374.362,224.256C374.362,224.256 374.139,214.182 367.4,202.738C361.592,192.874 357.078,206.039 358.48,213.746C359.881,221.453 356.378,223.789 354.976,222.154C353.575,220.519 354.509,190.39 347.97,187.12C341.43,183.851 339.562,209.775 337.226,214.68C334.891,219.585 337.693,178.712 329.052,176.844C320.41,174.976 317.14,191.091 316.44,202.302C315.739,213.512 351.473,231.73 374.362,224.256Z" style="fill:rgb(246,179,101);stroke:rgb(28,22,17);stroke-width:1.28px;"/>
        </g>
        <g transform="matrix(1.32187,0.923587,-0.855999,1.16323,193.653,-353.794)">
            <path d="M385.572,222.621C385.572,222.621 376.697,224.49 370.858,218.884C365.019,213.279 364.786,205.104 359.414,203.937C354.042,202.769 354.276,211.41 352.641,214.914C351.006,218.417 345.167,192.025 337.927,192.492C330.686,192.959 333.179,210.76 330.219,210.476C323.454,209.828 322.278,177.078 312.936,175.676C303.594,174.275 299.39,214.914 316.44,226.592C333.489,238.269 373.427,237.102 383.704,234.533C393.98,231.963 385.572,222.621 385.572,222.621Z" style="fill:rgb(246,179,101);stroke:rgb(28,22,17);stroke-width:1.28px;"/>
        </g>
        <g transform="matrix(-0.920722,0,0,0.956785,881.38,-93.7336)">
            <path d="M437.909,73.006C437.909,73.006 442.085,93.887 472.712,111.985" style="fill:none;stroke:rgb(28,22,17);stroke-width:4.31px;"/>
        </g>
        <g transform="matrix(-0.920722,0,0,0.956785,881.38,-93.7336)">
            <path d="M518.651,276.254C518.651,276.254 546.493,283.214 550.67,265.117" style="fill:none;stroke:rgb(28,22,17);stroke-width:4.31px;"/>
        </g>
        <g transform="matrix(-0.920722,0,0,0.956785,881.38,-93.7336)">
            <path d="M365.519,216.393C365.519,216.393 365.519,231.706 398.93,226.138" style="fill:none;stroke:rgb(28,22,17);stroke-width:4.31px;"/>
        </g>
        <g transform="matrix(-0.920722,0,0,0.956785,881.38,-93.7336)">
            <path d="M485.241,174.63C485.241,174.63 478.28,181.59 503.338,205.256C528.396,228.922 531.18,235.883 524.22,247.019" style="fill:none;stroke:rgb(28,22,17);stroke-width:4.31px;"/>
        </g>
    </g>
    <g id="tools" transform="matrix(0.338227,0,0,0.331361,-19.689,269.353)">
        <g transform="matrix(0.851196,0,0,0.997147,8.46873,-2.28635)">
            <path d="M138.421,365.286L214.601,339.741L215.97,406.341L140.702,434.167L138.421,365.286Z" style="fill:rgb(131,69,9);stroke:rgb(24,34,45);stroke-width:3.23px;"/>
        </g>
        <g transform="matrix(0.851196,0,0,0.997147,8.46873,-2.28635)">
            <path d="M141.158,433.711L131.123,430.518L131.123,363.461L138.878,366.654L141.158,433.711Z" style="fill:rgb(131,69,9);stroke:rgb(24,34,45);stroke-width:3.23px;"/>
        </g>
        <g transform="matrix(0.851196,0,0,0.997147,8.46873,-2.28635)">
            <path d="M215.057,340.197L376.54,372.128L371.979,438.729L216.882,405.428L215.057,340.197Z" style="fill:rgb(131,69,9);stroke:rgb(24,34,45);stroke-width:3.23px;"/>
        </g>
        <g transform="matrix(0.851196,0,0,0.997147,8.46873,-2.28635)">
            <path d="M215.057,339.284L386.12,364.83L372.705,371.048L209.127,341.565L215.057,339.284Z" style="fill:rgb(131,69,9);stroke:rgb(24,34,45);stroke-width:3.23px;"/>
        </g>
        <g transform="matrix(0.851196,0,0,0.997147,8.46873,-2.28635)">
            <path d="M273.445,392.242L244.25,339.692C244.25,339.692 243.674,320.658 227.201,324.044C216.048,326.336 215.578,344.634 222.993,348.084C230.402,351.532 250.089,392.709 250.089,392.709L273.445,392.242Z" style="fill:rgb(199,16,42);stroke:rgb(24,34,45);stroke-width:3.23px;"/>
        </g>
        <g transform="matrix(0.851196,0,0,0.997147,8.46873,-2.28635)">
            <path d="M224.895,344.883C224.895,344.883 238.647,341.893 243.579,334.868" style="fill:none;stroke:rgb(24,34,45);stroke-width:3.23px;"/>
        </g>
        <g transform="matrix(0.851196,0,0,0.997147,8.46873,-2.28635)">
            <path d="M230.575,346.228C230.575,346.228 240.889,342.491 244.028,339.203" style="fill:none;stroke:rgb(24,34,45);stroke-width:3.23px;"/>
        </g>
        <g transform="matrix(0.851196,0,0,0.997147,8.46873,-2.28635)">
            <path d="M244.327,375.376C244.327,375.376 227.735,352.058 233.415,350.414C239.095,348.769 249.708,374.18 253.295,379.562" style="fill:none;stroke:rgb(24,34,45);stroke-width:3.23px;"/>
        </g>
        <g transform="matrix(0.851196,0,0,0.997147,8.46873,-2.28635)">
            <path d="M257.182,379.412C257.182,379.412 237.301,349.517 241.487,347.275C245.672,345.032 262.114,374.031 262.114,374.031" style="fill:none;stroke:rgb(24,34,45);stroke-width:3.23px;"/>
        </g>
        <g transform="matrix(0.851196,0,0,0.997147,8.46873,-2.28635)">
            <path d="M251.081,322.184C251.081,322.184 243.421,336.01 264.347,343.297C285.274,350.584 265.282,337.879 265.282,337.879C265.282,337.879 250.708,324.613 251.081,322.184Z" style="fill:rgb(132,132,132);stroke:rgb(24,34,45);stroke-width:3.23px;"/>
        </g>
        <g transform="matrix(0.851196,0,0,0.997147,8.46873,-2.28635)">
            <path d="M264.955,394.023L262.924,341.249C262.924,341.249 236.308,322.862 258.356,308.558C259.281,316.755 259.723,325.16 259.723,325.16C259.723,325.16 265.141,332.447 275.792,326.095C275.88,318.9 275.792,309.652 275.792,309.652C275.792,309.652 297.466,322.521 280.836,337.492C279.437,354.147 282.892,395.812 282.892,395.812L264.955,394.023Z" style="fill:rgb(159,159,159);stroke:rgb(24,34,45);stroke-width:3.23px;"/>
        </g>
        <g transform="matrix(0.851196,0,0,0.997147,8.46873,-2.28635)">
            <path d="M170.809,267.294C170.809,267.294 153.019,254.066 153.019,299.226C153.019,344.387 133.404,362.177 133.404,362.177L152.563,361.265L170.809,267.294Z" style="fill:rgb(131,69,9);stroke:rgb(24,34,45);stroke-width:3.23px;"/>
        </g>
        <g transform="matrix(0.851196,0,0,0.997147,8.46873,-2.28635)">
            <path d="M201.372,341.65L178.108,293.752C178.108,293.752 180.389,266.838 168.072,266.838C155.756,266.838 160.774,283.716 161.23,291.927C161.686,300.138 143.895,350.773 142.983,360.352C142.071,369.932 201.372,341.65 201.372,341.65Z" style="fill:rgb(131,69,9);stroke:rgb(24,34,45);stroke-width:3.23px;"/>
        </g>
        <g transform="matrix(0.851196,0,0,0.997147,8.46873,-2.28635)">
            <path d="M271.074,385.525C271.074,385.525 265.842,346.287 271.634,346.1C277.427,345.913 276.679,379.349 276.492,387.206C276.305,395.063 271.447,388.505 271.074,385.525Z" style="fill:rgb(132,132,132);stroke:rgb(24,34,45);stroke-width:3.23px;"/>
        </g>
        <g transform="matrix(0.851196,0,0,0.997147,8.46873,-2.28635)">
            <path d="M186.795,359.311L200.575,350.436L232.806,383.601L215.289,390.607L186.795,359.311Z" style="fill:rgb(120,71,7);stroke:rgb(24,34,45);stroke-width:3.23px;"/>
        </g>
        <g transform="matrix(0.851196,0,0,0.997147,8.46873,-2.28635)">
            <path d="M131.579,363.461L209.127,336.091L215.514,339.741L139.79,366.654L131.579,363.461Z" style="fill:rgb(131,69,9);stroke:rgb(24,34,45);stroke-width:3.23px;"/>
        </g>
        <g transform="matrix(0.851196,0,0,0.997147,8.46873,-2.28635)">
            <path d="M175.647,302.463C175.647,302.463 128.352,334.286 134.191,358.225C140.412,358.67 138.516,346.162 141.489,343.92C142.473,345.734 135.65,362.313 142.657,369.319C149.664,376.326 139.154,329.323 186.741,361.145C193.456,362.838 200.202,358.56 201.63,351.219C200.992,343.418 183.595,334.98 192.872,323.192C203.724,309.401 178.858,316.477 175.647,302.463Z" style="fill:rgb(159,159,159);stroke:rgb(24,34,45);stroke-width:3.23px;"/>
        </g>
        <g transform="matrix(1.04605,0,0,1.08967,-33.8104,-31.6054)">
            <ellipse cx="195.937" cy="309.032" rx="12.116" ry="14.159" style="fill:rgb(128,128,128);stroke:rgb(24,34,45);stroke-width:2.8px;"/>
        </g>
        <g transform="matrix(0.851196,0,0,0.997147,8.46873,-2.28635)">
            <path d="M184.697,297.5C184.697,297.5 182.654,313.849 199.003,317.353" style="fill:none;stroke:rgb(24,34,45);stroke-width:3.23px;"/>
        </g>
        <g transform="matrix(0.851196,0,0,0.997147,8.46873,-2.28635)">
            <path d="M139.334,365.286L299.448,399.042L299.448,488.451L140.702,432.798L139.334,365.286Z" style="fill:rgb(131,69,9);stroke:rgb(24,34,45);stroke-width:3.23px;"/>
        </g>
        <g transform="matrix(0.851196,0,0,0.997147,8.46873,-2.28635)">
            <path d="M295.799,371.757L401.173,290.559L419.42,311.543L414.402,311.999L414.402,317.473L408.472,317.017L408.472,322.947L403.91,322.947L404.823,328.877L398.436,329.333L399.349,335.263L392.05,334.807L392.506,343.018L385.664,342.106L387.032,348.492L381.102,347.58L380.19,353.966L372.435,354.878L326.231,418.769L295.799,371.757Z" style="fill:rgb(132,132,132);stroke:rgb(24,34,45);stroke-width:3.23px;"/>
        </g>
        <g transform="matrix(0.851196,0,0,0.997147,8.46873,-2.28635)">
            <path d="M316.057,327.051L334.742,335.693L351.791,311.87L355.295,315.84L340.58,341.765C340.58,341.765 318.86,344.101 314.188,331.722C309.517,319.344 316.057,327.051 316.057,327.051Z" style="fill:rgb(132,132,132);stroke:rgb(24,34,45);stroke-width:3.23px;"/>
        </g>
        <g transform="matrix(0.851196,0,0,0.997147,8.46873,-2.28635)">
            <path d="M173.09,270.031C173.09,270.031 158.037,279.155 174.459,291.927C192.983,293.723 348.258,310.63 348.258,310.63L352.82,286.91L173.09,270.031Z" style="fill:rgb(107,104,93);stroke:rgb(24,34,45);stroke-width:3.23px;"/>
        </g>
        <g transform="matrix(0.851196,0,0,0.997147,8.46873,-2.28635)">
            <path d="M319.794,301.593L324.932,306.965C324.932,306.965 298.307,311.636 304.846,344.801C311.386,377.967 276.586,309.768 319.794,301.593Z" style="fill:rgb(132,132,132);stroke:rgb(24,34,45);stroke-width:3.23px;"/>
        </g>
        <g transform="matrix(0.851196,0,0,0.997147,8.46873,-2.28635)">
            <path d="M324.796,307.335L314.188,331.022C314.188,331.022 316.29,343.867 341.048,342.232C346.791,333.662 355.289,315.396 355.289,315.396C355.289,315.396 364.403,355.312 331.705,356.012C322.363,368.391 307.649,399.22 307.649,399.22L280.79,390.812L304.145,347.371C304.145,347.371 297.236,313.174 324.796,307.335Z" style="fill:rgb(159,159,159);stroke:rgb(24,34,45);stroke-width:3.23px;"/>
        </g>
        <g transform="matrix(0.851196,0,0,0.997147,8.46873,-2.28635)">
            <path d="M294.336,390.112C294.336,390.112 309.751,360.917 314.188,363.019C318.626,365.121 303.912,390.781 299.474,394.316C295.037,397.851 292.935,395.919 294.336,390.112Z" style="fill:rgb(132,132,132);stroke:rgb(24,34,45);stroke-width:3.23px;"/>
        </g>
        <g transform="matrix(0.851196,0,0,0.997147,8.46873,-2.28635)">
            <path d="M299.448,398.586L386.12,365.286L395.499,366.888L309.028,401.323L299.448,398.586Z" style="fill:rgb(131,69,9);stroke:rgb(24,34,45);stroke-width:3.23px;"/>
        </g>
        <g transform="matrix(0.851196,0,0,0.997147,8.46873,-2.28635)">
            <path d="M299.448,398.586L300.361,489.363L312.498,493.68L308.115,402.235L299.448,398.586Z" style="fill:rgb(131,69,9);stroke:rgb(24,34,45);stroke-width:3.23px;"/>
        </g>
        <g transform="matrix(0.851196,0,0,0.997147,8.46873,-2.28635)">
            <path d="M308.572,401.779L394.331,368.023L395.699,458.344L312.221,494.381L308.572,401.779Z" style="fill:rgb(131,69,9);stroke:rgb(24,34,45);stroke-width:3.23px;"/>
        </g>
        <g transform="matrix(0.851196,0,0,0.997147,8.46873,-2.28635)">
            <path d="M360.732,289.836C360.732,289.836 335.989,269.674 338.679,316.104C341.621,366.902 307.203,422.847 340.503,417.829C372.402,406.272 351.451,399.583 354.644,372.669C357.838,345.755 360.732,289.836 360.732,289.836Z" style="fill:rgb(131,69,9);stroke:rgb(24,34,45);stroke-width:3.23px;"/>
        </g>
        <g transform="matrix(0.851196,0,0,0.997147,8.46873,-2.28635)">
            <path d="M342.784,417.373L385.208,397.758C385.208,397.758 394.331,391.912 366.961,311.999C359.21,295.146 365.552,291.653 356.925,287.281C336.854,284.544 350.083,301.423 348.258,314.195C346.433,326.968 322.713,416.545 342.784,417.373Z" style="fill:rgb(131,69,9);stroke:rgb(24,34,45);stroke-width:3.23px;"/>
        </g>
        <g transform="matrix(0.851196,0,0,0.997147,8.46873,-2.28635)">
            <path d="M139.334,368.023L299.715,398.776L304.499,396.083L147.089,363.005L139.334,368.023Z" style="fill:rgb(131,69,9);stroke:rgb(24,34,45);stroke-width:3.23px;"/>
        </g>
        <g transform="matrix(0.851196,0,0,0.997147,8.46873,-2.28635)">
            <ellipse cx="355.705" cy="298.978" rx="5.021" ry="8.992" style="fill:rgb(107,104,93);stroke:rgb(24,34,45);stroke-width:3.23px;"/>
        </g>
        <g transform="matrix(0.851196,0,0,0.997147,7.67351,-5.08104)">
            <ellipse cx="348.815" cy="405.714" rx="5.372" ry="5.489" style="fill:rgb(107,104,93);stroke:rgb(24,34,45);stroke-width:3.23px;"/>
        </g>
        <g transform="matrix(0.851196,0,0,0.997147,6.4807,-5.08104)">
            <ellipse cx="381.746" cy="393.919" rx="4.671" ry="4.905" style="fill:rgb(107,104,93);stroke:rgb(24,34,45);stroke-width:3.23px;"/>
        </g>
        <g transform="matrix(0.851196,0,0,0.997147,7.573,-1.33243)">
            <ellipse cx="350.45" cy="402.094" rx="4.438" ry="5.138" style="fill:rgb(107,104,93);stroke:rgb(24,34,45);stroke-width:3.23px;"/>
        </g>
        <g transform="matrix(0.851196,0,0,0.950734,34.4672,5.26272)">
            <ellipse cx="350.45" cy="402.094" rx="4.438" ry="5.138" style="fill:rgb(107,104,93);stroke:rgb(24,34,45);stroke-width:3.31px;"/>
        </g>
        <g transform="matrix(1.64512,0,0,1.96714,123.522,-727.805)">
            <ellipse cx="66.387" cy="48.246" rx="64.037" ry="61.949" style="fill:rgb(255,232,11);stroke:rgb(28,22,17);stroke-width:1.65px;"/>
        </g>
        <g transform="matrix(1.03778,-0.108816,0.0970564,1.32346,203.642,-718.453)">
            <path d="M133.904,108.803L149.914,135.253L117.895,135.253L133.904,108.803Z" style="fill:rgb(255,149,11);stroke:rgb(28,22,17);stroke-width:2.54px;"/>
        </g>
        <g transform="matrix(-1.08289,0.158719,-0.13017,-1.26981,416.521,-344.279)">
            <path d="M133.904,108.803L149.914,135.253L117.895,135.253L133.904,108.803Z" style="fill:rgb(255,149,11);stroke:rgb(28,22,17);stroke-width:2.57px;"/>
        </g>
        <g transform="matrix(0.524593,-1.09497,1.07259,0.73473,148.372,-660.749)">
            <path d="M133.904,108.803L149.914,135.253L117.895,135.253L133.904,108.803Z" style="fill:rgb(255,149,11);stroke:rgb(28,22,17);stroke-width:2.56px;"/>
        </g>
        <g transform="matrix(1.26352,0.0190962,-0.012976,1.22759,74.7421,-936.143)">
            <path d="M133.904,108.803L149.914,135.253L117.895,135.253L133.904,108.803Z" style="fill:rgb(255,149,11);stroke:rgb(28,22,17);stroke-width:2.39px;"/>
        </g>
        <g transform="matrix(0.710106,1.08531,-1.00426,0.939482,143.135,-959.683)">
            <path d="M133.904,108.803L149.914,135.253L117.895,135.253L133.904,108.803Z" style="fill:rgb(255,149,11);stroke:rgb(28,22,17);stroke-width:2.09px;"/>
        </g>
        <g transform="matrix(1.10713,-0.116087,0.106416,1.45109,-30.1013,-698.553)">
            <path d="M133.904,108.803L149.914,135.253L117.895,135.253L133.904,108.803Z" style="fill:rgb(255,149,11);stroke:rgb(28,22,17);stroke-width:2.34px;"/>
        </g>
        <g transform="matrix(1.27838,-1.23813,1.03545,1.52861,68.7513,-670.678)">
            <path d="M133.904,108.803L149.914,135.253L117.895,135.253L133.904,108.803Z" style="fill:rgb(255,232,11);stroke:rgb(28,22,17);stroke-width:1.79px;"/>
        </g>
        <g transform="matrix(-1.2419,1.29013,-1.07894,-1.48499,613.215,-497.847)">
            <path d="M133.904,108.803L149.914,135.253L117.895,135.253L133.904,108.803Z" style="fill:rgb(255,232,11);stroke:rgb(28,22,17);stroke-width:1.8px;"/>
        </g>
        <g transform="matrix(-0.120138,-1.96188,1.64073,-0.143654,118.507,-487.823)">
            <path d="M133.904,108.803L149.914,135.253L117.895,135.253L133.904,108.803Z" style="fill:rgb(255,232,11);stroke:rgb(28,22,17);stroke-width:1.63px;"/>
        </g>
        <g transform="matrix(1.37546,-1.07917,0.902511,1.64469,-134.289,-826.189)">
            <path d="M133.904,108.803L149.914,135.253L117.895,135.253L133.904,108.803Z" style="fill:rgb(255,232,11);stroke:rgb(28,22,17);stroke-width:1.78px;"/>
        </g>
        <g transform="matrix(1.55097,0.655934,-0.548558,1.85456,-40.3109,-921.781)">
            <path d="M133.904,108.803L149.914,135.253L117.895,135.253L133.904,108.803Z" style="fill:rgb(255,232,11);stroke:rgb(28,22,17);stroke-width:1.57px;"/>
        </g>
        <g transform="matrix(1.27838,-1.23813,1.03545,1.52861,-112.64,-510.92)">
            <path d="M133.904,108.803L149.914,135.253L117.895,135.253L133.904,108.803Z" style="fill:rgb(255,232,11);stroke:rgb(28,22,17);stroke-width:1.79px;"/>
        </g>
    </g>
</svg>
