<?xml version="1.0" encoding="UTF-8" standalone="no"?>
<!DOCTYPE svg PUBLIC "-//W3C//DTD SVG 1.1//EN" "http://www.w3.org/Graphics/SVG/1.1/DTD/svg11.dtd">
<svg width="100%" height="100%" viewBox="0 0 600 600" version="1.1" xmlns="http://www.w3.org/2000/svg" xmlns:xlink="http://www.w3.org/1999/xlink" xml:space="preserve" xmlns:serif="http://www.serif.com/" style="fill-rule:evenodd;clip-rule:evenodd;stroke-linecap:round;stroke-linejoin:round;stroke-miterlimit:1.5;">
    <g id="track" transform="matrix(0.757401,0,0,1.34543,53.4257,-143.682)">
        <g transform="matrix(1.21169,0,0,0.743258,-71.4495,99.9061)">
            <path d="M0.273,200.978L600.417,200.978" style="fill:none;stroke:rgb(28,22,17);stroke-width:4.17px;"/>
        </g>
        <g transform="matrix(0.974802,0,0,0.871542,-5.21478,29.4523)">
            <path d="M297.216,253.364L0.696,597.216" style="fill:none;stroke:rgb(21,13,13);stroke-width:6.12px;"/>
        </g>
        <g transform="matrix(0.963345,0,0,0.862189,1.73141,35.0377)">
            <path d="M298.608,249.188L606.265,597.216" style="fill:none;stroke:rgb(21,13,13);stroke-width:6.19px;"/>
        </g>
        <g transform="matrix(0.974802,0,0,0.871542,-5.21478,29.4523)">
            <path d="M242.036,282.941L355.508,282.941" style="fill:none;stroke:rgb(105,51,7);stroke-width:8.16px;"/>
        </g>
        <g transform="matrix(0.974802,0,0,0.871542,-5.21478,29.4523)">
            <path d="M210.675,320.575L389.15,320.575" style="fill:none;stroke:rgb(105,51,7);stroke-width:8.16px;"/>
        </g>
        <g transform="matrix(0.974802,0,0,0.871542,-5.21478,29.4523)">
            <path d="M181.024,353.076L417.661,353.076" style="fill:none;stroke:rgb(105,51,7);stroke-width:8.16px;"/>
        </g>
        <g transform="matrix(0.974802,0,0,0.871542,-5.21478,29.4523)">
            <path d="M151.944,390.14L450.163,390.14" style="fill:none;stroke:rgb(105,51,7);stroke-width:8.16px;"/>
        </g>
        <g transform="matrix(0.974802,0,0,0.871542,-5.21478,29.4523)">
            <path d="M113.169,433.476L487.796,433.476" style="fill:none;stroke:rgb(105,51,7);stroke-width:8.16px;"/>
        </g>
        <g transform="matrix(0.974802,0,0,0.871542,-5.21478,29.4523)">
            <path d="M79.171,471.644L522.864,471.644" style="fill:none;stroke:rgb(105,51,7);stroke-width:8.16px;"/>
        </g>
        <g transform="matrix(0.974802,0,0,0.871542,-5.21478,29.4523)">
            <path d="M36.405,523.319L569.194,523.319" style="fill:none;stroke:rgb(105,51,7);stroke-width:8.16px;"/>
        </g>
        <g transform="matrix(0.974802,0,0,0.871542,-5.21478,29.4523)">
            <path d="M-14.379,583.013L605.723,583.013" style="fill:none;stroke:rgb(105,51,7);stroke-width:8.16px;"/>
        </g>
    </g>
    <g id="Layer2">
    </g>
    <g id="Layer21" serif:id="Layer2" transform="matrix(-0.609723,0,0,0.687347,699.239,170.788)">
        <g transform="matrix(-0.989173,0,0,0.959523,904.078,-93.744)">
            <path d="M375.654,355.499C375.654,355.499 301.937,344.084 304.492,267.55C307.046,191.016 368.72,191.016 384.777,231.524C400.834,272.032 375.289,331.55 375.654,355.499Z" style="fill:rgb(126,86,54);stroke:rgb(28,22,17);stroke-width:3.16px;"/>
        </g>
        <g transform="matrix(-0.989173,0,0,0.959523,904.078,-93.744)">
            <path d="M371.274,216.323C371.274,216.323 325.658,229.46 316.169,252.086" style="fill:none;stroke:rgb(160,107,65);stroke-width:3.16px;"/>
        </g>
        <g transform="matrix(-0.989173,0,0,0.959523,904.078,-93.744)">
            <path d="M379.303,227.636C379.303,227.636 323.103,250.991 316.169,272.158" style="fill:none;stroke:rgb(160,107,65);stroke-width:3.16px;"/>
        </g>
        <g transform="matrix(-0.989173,0,0,0.959523,904.078,-93.744)">
            <path d="M382.587,242.233C382.587,242.233 330.037,262.669 317.264,295.878" style="fill:none;stroke:rgb(160,107,65);stroke-width:3.16px;"/>
        </g>
        <g transform="matrix(-0.989173,0,0,0.959523,904.078,-93.744)">
            <path d="M385.872,252.816C385.872,252.816 332.227,288.58 323.103,311.205" style="fill:none;stroke:rgb(160,107,65);stroke-width:3.16px;"/>
        </g>
        <g transform="matrix(-0.989173,0,0,0.959523,904.078,-93.744)">
            <path d="M384.777,267.413C384.777,267.413 339.89,305.731 334.051,325.073" style="fill:none;stroke:rgb(160,107,65);stroke-width:3.16px;"/>
        </g>
        <g transform="matrix(-0.989173,0,0,0.959523,904.078,-93.744)">
            <path d="M381.493,289.674C381.493,289.674 353.393,314.49 347.554,337.116" style="fill:none;stroke:rgb(160,107,65);stroke-width:3.16px;"/>
        </g>
        <g transform="matrix(-0.989173,0,0,0.959523,904.078,-93.744)">
            <path d="M381.493,306.096C381.493,306.096 365.071,332.372 362.881,344.414" style="fill:none;stroke:rgb(160,107,65);stroke-width:3.16px;"/>
        </g>
        <g transform="matrix(-0.989173,0,0,0.959523,904.078,-93.744)">
            <path d="M321.279,306.826C321.279,306.826 355.217,334.561 370.909,335.656" style="fill:none;stroke:rgb(160,107,65);stroke-width:3.16px;"/>
        </g>
        <g transform="matrix(-0.989173,0,0,0.959523,904.078,-93.744)">
            <path d="M315.44,279.456C315.44,279.456 344.634,317.044 375.289,319.964" style="fill:none;stroke:rgb(160,107,65);stroke-width:3.16px;"/>
        </g>
        <g transform="matrix(-0.989173,0,0,0.959523,904.078,-93.744)">
            <path d="M315.805,253.911C315.805,253.911 337.336,298.433 380.398,305.366" style="fill:none;stroke:rgb(160,107,65);stroke-width:3.16px;"/>
        </g>
        <g transform="matrix(-0.989173,0,0,0.959523,904.078,-93.744)">
            <path d="M319.454,233.11C319.454,233.11 336.241,282.741 383.682,291.864" style="fill:none;stroke:rgb(160,107,65);stroke-width:3.16px;"/>
        </g>
        <g transform="matrix(-0.989173,0,0,0.959523,904.078,-93.744)">
            <path d="M330.037,217.782C330.037,217.782 340.62,263.034 381.128,275.077" style="fill:none;stroke:rgb(160,107,65);stroke-width:3.16px;"/>
        </g>
        <g transform="matrix(-0.989173,0,0,0.959523,904.078,-93.744)">
            <path d="M342.445,211.214C342.445,211.214 359.597,253.181 385.142,263.399" style="fill:none;stroke:rgb(160,107,65);stroke-width:3.16px;"/>
        </g>
        <g transform="matrix(-0.989173,0,0,0.959523,904.078,-93.744)">
            <path d="M359.232,210.119C359.232,210.119 368.355,239.314 387.696,249.167" style="fill:none;stroke:rgb(160,107,65);stroke-width:3.16px;"/>
        </g>
        <g transform="matrix(-0.989173,0,0,0.959523,904.078,-93.744)">
            <path d="M391.593,207.857C379.109,207.667 374.05,166.467 406.19,189.154C416.283,185.683 416.226,178.206 442.228,177.294C468.229,176.381 475.072,183.224 481.914,186.873C482.03,180.433 515.137,173.88 497.88,205.081C505.847,212.74 508.498,220.256 509.284,230.665C512.126,236.216 515.214,238.876 515.671,240.701C511.963,240.909 509.955,241.996 512.021,244.806C513.695,250.261 515.874,260.316 515.836,267.615C515.795,275.261 560.227,353.342 460.018,368.427C388.674,379.168 344.071,358.336 377.452,269.779C382.674,255.926 387.8,239.877 382.926,242.409C376.508,245.743 381.339,243.174 385.446,233.857C388.388,227.184 387.008,211.58 391.593,207.857Z" style="fill:rgb(187,135,77);stroke:rgb(28,22,17);stroke-width:3.16px;"/>
        </g>
        <g transform="matrix(-0.989173,0,0,0.959523,904.078,-93.744)">
            <path d="M391.412,189.166C391.412,189.166 397.543,190.041 399.003,194.713C400.462,199.384 404.55,189.749 404.55,189.749" style="fill:none;stroke:rgb(28,22,17);stroke-width:3.16px;"/>
        </g>
        <g transform="matrix(-0.989173,0,0,0.959523,904.078,-93.744)">
            <path d="M481.624,188.582L488.922,192.085C488.922,192.085 492.718,185.954 496.513,186.538" style="fill:none;stroke:rgb(28,22,17);stroke-width:3.16px;"/>
        </g>
        <g transform="matrix(-0.988909,-0.0222019,-0.0228879,0.959266,909.977,-89.5546)">
            <ellipse cx="450.26" cy="262.94" rx="23.916" ry="9.71" style="fill:rgb(210,177,141);stroke:rgb(28,22,17);stroke-width:3.17px;"/>
        </g>
        <g transform="matrix(-0.989173,0,0,0.959523,904.078,-93.744)">
            <path d="M451.56,289.081C465.427,289.081 490.243,303.314 494.257,322.29C498.271,341.267 492.067,366.082 458.858,366.812C425.65,367.542 401.564,363.528 404.118,333.968C406.673,304.409 435.503,289.081 451.56,289.081Z" style="fill:rgb(210,177,141);stroke:rgb(28,22,17);stroke-width:3.16px;"/>
        </g>
        <g transform="matrix(-0.949847,-0.267864,-0.276142,0.921375,784.539,-49.1851)">
            <path d="M114.437,346.972C114.842,336.851 112.156,323.707 119.455,320.97C126.754,318.233 238.971,309.11 243.989,308.654C249.006,308.198 272.727,318.233 272.727,318.233L275.92,331.462L249.463,352.446L124.929,366.587C124.929,366.587 113.981,358.376 114.437,346.972Z" style="fill:rgb(117,73,47);stroke:black;stroke-width:1.62px;"/>
        </g>
        <g transform="matrix(-0.949847,-0.267864,-0.276142,0.921375,784.539,-49.1851)">
            <path d="M244.445,308.654C239.883,313.215 238.971,318.689 245.813,320.97C241.176,322.486 241.708,333.743 251.287,332.831C249.004,334.406 242.377,344.911 249.331,352.35C261.163,343.526 278.201,328.871 278.201,328.871L276.29,319.925C276.29,319.925 251.111,308.971 244.445,308.654Z" style="fill:rgb(226,178,123);stroke:rgb(101,64,37);stroke-width:1.62px;"/>
        </g>
        <g transform="matrix(0.959454,0.233435,0.240649,-0.930694,259.477,484.951)">
            <path d="M241.405,307.617C236.844,312.178 238.971,318.689 245.813,320.97C241.176,322.486 241.708,333.743 251.287,332.831C249.004,334.406 242.377,344.911 249.331,352.35C261.163,343.526 278.201,328.871 278.201,328.871L276.29,319.925C276.29,319.925 248.072,307.934 241.405,307.617Z" style="fill:rgb(226,178,123);stroke:rgb(101,64,37);stroke-width:1.62px;"/>
        </g>
        <g transform="matrix(-0.949847,-0.267864,-0.276142,0.921375,784.539,-49.1851)">
            <path d="M230.201,314.923L130.985,322.336" style="fill:none;stroke:rgb(155,105,48);stroke-width:1.62px;"/>
        </g>
        <g transform="matrix(-0.949847,-0.267864,-0.276142,0.921375,784.539,-49.1851)">
            <path d="M122.431,342.863C132.125,339.442 198.839,337.161 209.103,337.161" style="fill:none;stroke:rgb(226,178,123);stroke-width:1.62px;"/>
        </g>
        <g transform="matrix(-0.949847,-0.267864,-0.276142,0.921375,784.539,-49.1851)">
            <path d="M174.891,351.416C174.891,351.416 221.648,346.854 230.771,344.003" style="fill:none;stroke:rgb(200,143,77);stroke-width:1.62px;"/>
        </g>
        <g transform="matrix(-0.949847,-0.267864,-0.276142,0.921375,784.539,-49.1851)">
            <path d="M179.452,328.608C179.452,328.608 217.086,325.187 225.069,325.187" style="fill:none;stroke:rgb(168,133,94);stroke-width:1.62px;"/>
        </g>
        <g transform="matrix(-0.949847,-0.267864,-0.276142,0.921375,784.539,-49.1851)">
            <path d="M267.835,333.74L257.571,340.012" style="fill:none;stroke:rgb(155,105,48);stroke-width:1.62px;"/>
        </g>
        <g transform="matrix(-0.949847,-0.267864,-0.276142,0.921375,784.539,-49.1851)">
            <path d="M253.009,347.995L274.107,332.029" style="fill:none;stroke:rgb(155,105,48);stroke-width:1.62px;"/>
        </g>
        <g transform="matrix(-0.989173,0,0,0.959523,904.078,-93.744)">
            <path d="M410.335,312.227C410.335,312.227 378.513,307.556 378.805,297.63C379.097,287.703 392.819,283.324 398.366,284.784C403.913,286.244 409.168,307.264 410.335,312.227Z" style="fill:rgb(187,135,77);stroke:rgb(187,135,77);stroke-width:1.58px;"/>
        </g>
        <g transform="matrix(-0.989173,0,0,0.959523,904.078,-93.744)">
            <path d="M395.499,277.334L400.171,274.414L401.338,278.209C401.338,278.209 403.966,272.37 413.6,277.334C405.134,284.632 406.009,286.968 406.009,286.968L410.973,289.595L410.389,297.77C416.228,302.149 424.103,301.103 426.731,307.234C427.817,309.768 405.685,321.034 377.95,300.014" style="fill:rgb(187,135,77);stroke:rgb(28,22,17);stroke-width:3.16px;"/>
        </g>
        <g transform="matrix(-0.989173,0,0,0.959523,904.078,-93.744)">
            <path d="M505.205,270.964L498.628,267.257L498.747,271.562C498.747,271.562 492.649,269.768 489.779,271.562C490.376,275.388 500.063,278.976 494.681,281.607C489.3,284.237 490.855,285.912 491.931,287.107C493.007,288.303 494.681,292.369 493.964,293.087C493.246,293.804 482.245,301.936 481.408,305.284C480.571,308.632 487.028,311.502 491.692,311.024" style="fill:rgb(187,135,77);stroke:rgb(28,22,17);stroke-width:3.16px;"/>
        </g>
        <g transform="matrix(-0.989173,0,0,0.959523,904.078,-93.744)">
            <path d="M406.397,286.808C406.615,286.646 413.673,277.492 413.953,277.36C430.24,269.68 455.673,278.806 427.484,306.719C424.743,303.697 415.621,299.988 411.535,298.524C410.592,298.186 410.889,292.633 411.073,290.204C411.166,288.975 407.154,287.125 406.397,286.808Z" style="fill:rgb(126,86,54);stroke:rgb(28,22,17);stroke-width:3.16px;"/>
        </g>
        <g transform="matrix(-0.989173,0,0,0.959523,904.078,-93.744)">
            <path d="M490.884,284.661C492.499,281.378 496.827,280.161 495.959,279.066C494.409,277.109 490.411,272.404 487.014,271.324C471.999,266.55 444.312,288.169 480.987,305.968C481.404,306.17 489.434,296.146 492.871,293.412C495.473,291.341 490.795,284.619 490.884,284.661Z" style="fill:rgb(126,86,54);stroke:rgb(28,22,17);stroke-width:3.16px;"/>
        </g>
        <g transform="matrix(-0.989173,0,0,0.959523,904.078,-93.744)">
            <path d="M450.929,257.535L451.599,275.424" style="fill:none;stroke:rgb(28,22,17);stroke-width:3.16px;"/>
        </g>
        <g transform="matrix(-0.989173,0,0,0.959523,904.078,-93.744)">
            <path d="M451.599,267.962C451.599,267.962 459.731,267.197 460.592,265.475C461.453,263.753 459.922,277.146 451.982,276.285C451.503,272.841 451.599,267.962 451.599,267.962Z" style="fill:rgb(248,244,240);stroke:rgb(28,22,17);stroke-width:3.16px;"/>
        </g>
        <g transform="matrix(-0.989173,0,0,0.959523,904.078,-93.744)">
            <path d="M451.599,267.962C451.599,267.962 442.894,267.675 441.554,266.527C440.215,265.379 444.328,278.485 451.982,276.381C451.503,272.937 451.599,267.962 451.599,267.962Z" style="fill:rgb(242,237,232);stroke:rgb(28,22,17);stroke-width:3.16px;"/>
        </g>
        <g transform="matrix(-0.989173,0,0,0.959523,904.078,-93.744)">
            <path d="M432.838,276.708C432.838,276.708 426.672,278.203 426.299,280.632" style="fill:none;stroke:rgb(28,22,17);stroke-width:1.58px;"/>
        </g>
        <g transform="matrix(-0.989173,0,0,0.959523,904.078,-93.744)">
            <path d="M440.125,284.556C440.125,284.556 432.651,286.798 431.343,289.227" style="fill:none;stroke:rgb(28,22,17);stroke-width:1.58px;"/>
        </g>
        <g transform="matrix(-0.989173,0,0,0.959523,904.078,-93.744)">
            <path d="M468.526,277.082C468.526,277.082 476,277.082 477.494,279.511" style="fill:none;stroke:rgb(28,22,17);stroke-width:1.58px;"/>
        </g>
        <g transform="matrix(-0.989173,0,0,0.959523,904.078,-93.744)">
            <path d="M463.107,286.985C463.107,286.985 470.768,286.611 473.384,287.919" style="fill:none;stroke:rgb(28,22,17);stroke-width:1.58px;"/>
        </g>
        <g transform="matrix(-0.989173,0,0,0.959523,904.078,-93.744)">
            <path d="M450.929,257.439C448.729,257.439 439.641,254.665 439.928,251.221C440.215,247.777 445.285,245.959 449.781,245.098C454.278,244.237 463.27,247.873 461.644,250.743C460.018,253.612 454.66,257.439 450.929,257.439Z" style="fill:rgb(17,11,4);stroke:rgb(28,22,17);stroke-width:3.16px;"/>
        </g>
        <g transform="matrix(-0.989173,0,0,0.959523,904.078,-93.744)">
            <ellipse cx="424.813" cy="241.941" rx="2.487" ry="4.688" style="fill:rgb(17,11,4);stroke:rgb(28,22,17);stroke-width:3.16px;"/>
        </g>
        <g transform="matrix(-0.989173,0,0,0.959523,854.776,-96.3142)">
            <ellipse cx="424.813" cy="241.941" rx="2.487" ry="4.688" style="fill:rgb(20,13,5);stroke:rgb(28,22,17);stroke-width:3.16px;"/>
        </g>
        <g transform="matrix(-0.989173,0,0,0.959523,904.078,-93.744)">
            <path d="M383.682,310.247C395.969,304.104 417.256,315.721 423.46,335.793C429.664,355.864 423.46,376.3 409.227,375.571C394.995,374.841 384.412,378.125 373.829,354.769C363.246,331.414 374.194,314.992 383.682,310.247Z" style="fill:rgb(126,86,54);stroke:rgb(28,22,17);stroke-width:3.16px;"/>
        </g>
        <g transform="matrix(-0.842492,0.502798,0.518335,0.817238,558.687,-248.171)">
            <path d="M383.682,310.247C395.969,304.104 417.256,315.721 423.46,335.793C429.664,355.864 423.46,376.3 409.227,375.571C394.995,374.841 384.412,378.125 373.829,354.769C363.246,331.414 374.194,314.992 383.682,310.247Z" style="fill:rgb(126,86,54);stroke:black;stroke-width:3.05px;"/>
        </g>
    </g>
    <g id="Layer22" serif:id="Layer2" transform="matrix(0.609723,0,0,0.687347,-50.6828,305.545)">
        <g transform="matrix(-0.989173,0,0,0.959523,812.986,-93.744)">
            <path d="M375.654,355.499C375.654,355.499 301.937,344.084 304.492,267.55C307.046,191.016 368.72,191.016 384.777,231.524C400.834,272.032 375.289,331.55 375.654,355.499Z" style="fill:rgb(126,86,54);stroke:rgb(28,22,17);stroke-width:3.16px;"/>
        </g>
        <g transform="matrix(-0.989173,0,0,0.959523,812.986,-93.744)">
            <path d="M371.274,216.323C371.274,216.323 325.658,229.46 316.169,252.086" style="fill:none;stroke:rgb(160,107,65);stroke-width:3.16px;"/>
        </g>
        <g transform="matrix(-0.989173,0,0,0.959523,812.986,-93.744)">
            <path d="M379.303,227.636C379.303,227.636 323.103,250.991 316.169,272.158" style="fill:none;stroke:rgb(160,107,65);stroke-width:3.16px;"/>
        </g>
        <g transform="matrix(-0.989173,0,0,0.959523,812.986,-93.744)">
            <path d="M382.587,242.233C382.587,242.233 330.037,262.669 317.264,295.878" style="fill:none;stroke:rgb(160,107,65);stroke-width:3.16px;"/>
        </g>
        <g transform="matrix(-0.989173,0,0,0.959523,812.986,-93.744)">
            <path d="M385.872,252.816C385.872,252.816 332.227,288.58 323.103,311.205" style="fill:none;stroke:rgb(160,107,65);stroke-width:3.16px;"/>
        </g>
        <g transform="matrix(-0.989173,0,0,0.959523,812.986,-93.744)">
            <path d="M384.777,267.413C384.777,267.413 339.89,305.731 334.051,325.073" style="fill:none;stroke:rgb(160,107,65);stroke-width:3.16px;"/>
        </g>
        <g transform="matrix(-0.989173,0,0,0.959523,812.986,-93.744)">
            <path d="M381.493,289.674C381.493,289.674 353.393,314.49 347.554,337.116" style="fill:none;stroke:rgb(160,107,65);stroke-width:3.16px;"/>
        </g>
        <g transform="matrix(-0.989173,0,0,0.959523,812.986,-93.744)">
            <path d="M381.493,306.096C381.493,306.096 365.071,332.372 362.881,344.414" style="fill:none;stroke:rgb(160,107,65);stroke-width:3.16px;"/>
        </g>
        <g transform="matrix(-0.989173,0,0,0.959523,812.986,-93.744)">
            <path d="M321.279,306.826C321.279,306.826 355.217,334.561 370.909,335.656" style="fill:none;stroke:rgb(160,107,65);stroke-width:3.16px;"/>
        </g>
        <g transform="matrix(-0.989173,0,0,0.959523,812.986,-93.744)">
            <path d="M315.44,279.456C315.44,279.456 344.634,317.044 375.289,319.964" style="fill:none;stroke:rgb(160,107,65);stroke-width:3.16px;"/>
        </g>
        <g transform="matrix(-0.989173,0,0,0.959523,812.986,-93.744)">
            <path d="M315.805,253.911C315.805,253.911 337.336,298.433 380.398,305.366" style="fill:none;stroke:rgb(160,107,65);stroke-width:3.16px;"/>
        </g>
        <g transform="matrix(-0.989173,0,0,0.959523,812.986,-93.744)">
            <path d="M319.454,233.11C319.454,233.11 336.241,282.741 383.682,291.864" style="fill:none;stroke:rgb(160,107,65);stroke-width:3.16px;"/>
        </g>
        <g transform="matrix(-0.989173,0,0,0.959523,812.986,-93.744)">
            <path d="M330.037,217.782C330.037,217.782 340.62,263.034 381.128,275.077" style="fill:none;stroke:rgb(160,107,65);stroke-width:3.16px;"/>
        </g>
        <g transform="matrix(-0.989173,0,0,0.959523,812.986,-93.744)">
            <path d="M342.445,211.214C342.445,211.214 359.597,253.181 385.142,263.399" style="fill:none;stroke:rgb(160,107,65);stroke-width:3.16px;"/>
        </g>
        <g transform="matrix(-0.989173,0,0,0.959523,812.986,-93.744)">
            <path d="M359.232,210.119C359.232,210.119 368.355,239.314 387.696,249.167" style="fill:none;stroke:rgb(160,107,65);stroke-width:3.16px;"/>
        </g>
        <g transform="matrix(-0.989173,0,0,0.959523,812.986,-93.744)">
            <path d="M391.593,207.857C379.109,207.667 374.05,166.467 406.19,189.154C416.283,185.683 416.226,178.206 442.228,177.294C468.229,176.381 475.072,183.224 481.914,186.873C482.03,180.433 515.137,173.88 497.88,205.081C505.847,212.74 508.498,220.256 509.284,230.665C512.126,236.216 515.214,238.876 515.671,240.701C511.963,240.909 509.955,241.996 512.021,244.806C513.695,250.261 515.874,260.316 515.836,267.615C515.795,275.261 560.227,353.342 460.018,368.427C388.674,379.168 344.071,358.336 377.452,269.779C382.674,255.926 387.8,239.877 382.926,242.409C376.508,245.743 381.339,243.174 385.446,233.857C388.388,227.184 387.008,211.58 391.593,207.857Z" style="fill:rgb(187,135,77);stroke:rgb(28,22,17);stroke-width:3.16px;"/>
        </g>
        <g transform="matrix(-0.989173,0,0,0.959523,812.986,-93.744)">
            <path d="M391.412,189.166C391.412,189.166 397.543,190.041 399.003,194.713C400.462,199.384 404.55,189.749 404.55,189.749" style="fill:none;stroke:rgb(28,22,17);stroke-width:3.16px;"/>
        </g>
        <g transform="matrix(-0.989173,0,0,0.959523,812.986,-93.744)">
            <path d="M481.624,188.582L488.922,192.085C488.922,192.085 492.718,185.954 496.513,186.538" style="fill:none;stroke:rgb(28,22,17);stroke-width:3.16px;"/>
        </g>
        <g transform="matrix(-0.988909,-0.0222019,-0.0228879,0.959266,818.885,-89.5546)">
            <ellipse cx="450.26" cy="262.94" rx="23.916" ry="9.71" style="fill:rgb(210,177,141);stroke:rgb(28,22,17);stroke-width:3.17px;"/>
        </g>
        <g transform="matrix(-0.989173,0,0,0.959523,812.986,-93.744)">
            <path d="M451.56,289.081C465.427,289.081 490.243,303.314 494.257,322.29C498.271,341.267 492.067,366.082 458.858,366.812C425.65,367.542 401.564,363.528 404.118,333.968C406.673,304.409 435.503,289.081 451.56,289.081Z" style="fill:rgb(210,177,141);stroke:rgb(28,22,17);stroke-width:3.16px;"/>
        </g>
        <g id="Layer3" transform="matrix(1.27873,0.600726,-0.662355,1.10945,252.133,-345.602)">
            <g transform="matrix(0.933211,0.036164,0.0345954,0.981268,-8.86515,4.80015)">
                <path d="M114.437,346.972C114.842,336.851 112.156,323.707 119.455,320.97C126.754,318.233 238.971,309.11 243.989,308.654C249.006,308.198 272.727,318.233 272.727,318.233L298.729,302.724L423.262,288.582C423.262,288.582 436.035,310.022 428.736,333.287C404.559,336.48 306.94,346.972 306.94,346.972L275.92,331.462L249.463,352.446L124.929,366.587C124.929,366.587 113.981,358.376 114.437,346.972Z" style="fill:rgb(117,73,47);stroke:black;stroke-width:1.15px;"/>
            </g>
            <g transform="matrix(0.933211,0.036164,0.0345954,0.981268,-8.86515,4.80015)">
                <path d="M244.445,308.654C239.883,313.215 238.971,318.689 245.813,320.97C241.176,322.486 241.708,333.743 251.287,332.831C249.004,334.406 242.377,344.911 249.331,352.35C261.163,343.526 275.92,332.374 275.92,332.374L306.027,346.516C306.027,346.516 310.611,340.416 307.977,336.745C309.839,333.265 312.87,323.707 305.571,321.426C309.465,319.528 309.22,307.741 302.378,307.285C304.337,303.863 297.816,302.267 297.816,302.267L272.683,317.917C272.683,317.917 251.111,308.971 244.445,308.654Z" style="fill:rgb(226,178,123);stroke:rgb(101,64,37);stroke-width:1.15px;"/>
            </g>
            <g transform="matrix(0.933211,0.036164,0.0345954,0.981268,-8.86515,4.80015)">
                <path d="M314.592,314.923C314.592,314.923 401.263,299.527 420.65,302.378" style="fill:none;stroke:rgb(220,158,86);stroke-width:1.15px;"/>
            </g>
            <g transform="matrix(0.933211,0.036164,0.0345954,0.981268,-8.86515,4.80015)">
                <path d="M356.217,324.616C356.217,324.616 391.57,317.204 404.114,316.063" style="fill:none;stroke:rgb(226,178,123);stroke-width:1.15px;"/>
            </g>
            <g transform="matrix(0.933211,0.036164,0.0345954,0.981268,-8.86515,4.80015)">
                <path d="M325.426,336.021C325.426,336.021 379.025,333.169 387.578,331.459" style="fill:none;stroke:rgb(226,178,123);stroke-width:1.15px;"/>
            </g>
            <g transform="matrix(0.933211,0.036164,0.0345954,0.981268,-8.86515,4.80015)">
                <path d="M230.201,314.923L130.985,322.336" style="fill:none;stroke:rgb(155,105,48);stroke-width:1.15px;"/>
            </g>
            <g transform="matrix(0.933211,0.036164,0.0345954,0.981268,-8.86515,4.80015)">
                <path d="M122.431,342.863C132.125,339.442 198.839,337.161 209.103,337.161" style="fill:none;stroke:rgb(226,178,123);stroke-width:1.15px;"/>
            </g>
            <g transform="matrix(0.933211,0.036164,0.0345954,0.981268,-8.86515,4.80015)">
                <path d="M174.891,351.416C174.891,351.416 221.648,346.854 230.771,344.003" style="fill:none;stroke:rgb(200,143,77);stroke-width:1.15px;"/>
            </g>
            <g transform="matrix(0.933211,0.036164,0.0345954,0.981268,-8.86515,4.80015)">
                <path d="M179.452,328.608C179.452,328.608 217.086,325.187 225.069,325.187" style="fill:none;stroke:rgb(168,133,94);stroke-width:1.15px;"/>
            </g>
            <g transform="matrix(0.933211,0.036164,0.0345954,0.981268,-8.86515,4.80015)">
                <path d="M395.561,324.616C395.561,324.616 422.931,323.476 426.352,322.336" style="fill:none;stroke:rgb(181,140,93);stroke-width:1.15px;"/>
            </g>
            <g transform="matrix(0.933211,0.036164,0.0345954,0.981268,-8.86515,4.80015)">
                <path d="M282.09,324.616L293.494,314.353" style="fill:none;stroke:rgb(155,105,48);stroke-width:1.15px;"/>
            </g>
            <g transform="matrix(0.933211,0.036164,0.0345954,0.981268,-8.86515,4.80015)">
                <path d="M267.835,333.74L257.571,340.012" style="fill:none;stroke:rgb(155,105,48);stroke-width:1.15px;"/>
            </g>
            <g transform="matrix(0.933211,0.036164,0.0345954,0.981268,-8.86515,4.80015)">
                <path d="M253.009,347.995L274.107,332.029" style="fill:none;stroke:rgb(155,105,48);stroke-width:1.15px;"/>
            </g>
        </g>
        <g transform="matrix(-0.949847,-0.267864,-0.276142,0.921375,693.447,-49.1851)">
            <path d="M179.452,328.608C179.452,328.608 217.086,325.187 225.069,325.187" style="fill:none;stroke:rgb(168,133,94);stroke-width:1.62px;"/>
        </g>
        <g transform="matrix(-0.989173,0,0,0.959523,812.986,-93.744)">
            <path d="M410.698,310.958C410.698,310.958 379.964,303.748 380.256,293.822C380.548,283.896 392.819,283.324 398.366,284.784C403.913,286.244 409.53,305.995 410.698,310.958Z" style="fill:rgb(187,135,77);stroke:rgb(187,135,77);stroke-width:1.58px;"/>
        </g>
        <g transform="matrix(-0.989173,0,0,0.959523,812.986,-93.744)">
            <path d="M395.499,277.334L400.171,274.414L401.338,278.209C401.338,278.209 403.966,272.37 413.6,277.334C405.134,284.632 406.009,286.968 406.009,286.968L410.973,289.595L410.389,297.77C416.228,302.149 424.103,301.103 426.731,307.234C427.817,309.768 391.18,321.578 375.774,288.773" style="fill:rgb(187,135,77);stroke:rgb(28,22,17);stroke-width:3.16px;"/>
        </g>
        <g transform="matrix(-0.989173,0,0,0.959523,812.986,-93.744)">
            <path d="M519.891,296.167C515.038,281.314 507.832,271.956 498.628,267.257L498.747,271.562C498.747,271.562 492.649,269.768 489.779,271.562C490.376,275.388 500.063,278.976 494.681,281.607C489.3,284.237 490.855,285.912 491.931,287.107C493.007,288.303 494.681,292.369 493.964,293.087C493.246,293.804 482.245,301.936 481.408,305.284C480.571,308.632 491.924,308.238 501.845,303.771" style="fill:rgb(187,135,77);stroke:rgb(28,22,17);stroke-width:3.16px;"/>
        </g>
        <g transform="matrix(-0.989173,0,0,0.959523,812.986,-93.744)">
            <path d="M406.397,286.808C406.615,286.646 413.673,277.492 413.953,277.36C430.24,269.68 455.673,278.806 427.484,306.719C424.743,303.697 415.621,299.988 411.535,298.524C410.592,298.186 410.889,292.633 411.073,290.204C411.166,288.975 407.154,287.125 406.397,286.808Z" style="fill:rgb(126,86,54);stroke:rgb(28,22,17);stroke-width:3.16px;"/>
        </g>
        <g transform="matrix(-0.989173,0,0,0.959523,812.986,-93.744)">
            <path d="M490.884,284.661C492.499,281.378 496.827,280.161 495.959,279.066C494.409,277.109 490.411,272.404 487.014,271.324C471.999,266.55 444.312,288.169 480.987,305.968C481.404,306.17 489.434,296.146 492.871,293.412C495.473,291.341 490.795,284.619 490.884,284.661Z" style="fill:rgb(126,86,54);stroke:rgb(28,22,17);stroke-width:3.16px;"/>
        </g>
        <g transform="matrix(-0.989173,0,0,0.959523,812.986,-93.744)">
            <path d="M450.929,257.535L451.599,275.424" style="fill:none;stroke:rgb(28,22,17);stroke-width:3.16px;"/>
        </g>
        <g transform="matrix(-0.989173,0,0,0.959523,812.986,-93.744)">
            <path d="M451.599,267.962C451.599,267.962 459.731,267.197 460.592,265.475C461.453,263.753 459.922,277.146 451.982,276.285C451.503,272.841 451.599,267.962 451.599,267.962Z" style="fill:rgb(248,244,240);stroke:rgb(28,22,17);stroke-width:3.16px;"/>
        </g>
        <g transform="matrix(-0.989173,0,0,0.959523,812.986,-93.744)">
            <path d="M451.599,267.962C451.599,267.962 442.894,267.675 441.554,266.527C440.215,265.379 444.328,278.485 451.982,276.381C451.503,272.937 451.599,267.962 451.599,267.962Z" style="fill:rgb(242,237,232);stroke:rgb(28,22,17);stroke-width:3.16px;"/>
        </g>
        <g transform="matrix(-0.989173,0,0,0.959523,812.986,-93.744)">
            <path d="M432.838,276.708C432.838,276.708 426.672,278.203 426.299,280.632" style="fill:none;stroke:rgb(28,22,17);stroke-width:1.58px;"/>
        </g>
        <g transform="matrix(-0.989173,0,0,0.959523,812.986,-93.744)">
            <path d="M440.125,284.556C440.125,284.556 432.651,286.798 431.343,289.227" style="fill:none;stroke:rgb(28,22,17);stroke-width:1.58px;"/>
        </g>
        <g transform="matrix(-0.989173,0,0,0.959523,812.986,-93.744)">
            <path d="M468.526,277.082C468.526,277.082 476,277.082 477.494,279.511" style="fill:none;stroke:rgb(28,22,17);stroke-width:1.58px;"/>
        </g>
        <g transform="matrix(-0.989173,0,0,0.959523,812.986,-93.744)">
            <path d="M463.107,286.985C463.107,286.985 470.768,286.611 473.384,287.919" style="fill:none;stroke:rgb(28,22,17);stroke-width:1.58px;"/>
        </g>
        <g transform="matrix(-0.989173,0,0,0.959523,812.986,-93.744)">
            <path d="M450.929,257.439C448.729,257.439 439.641,254.665 439.928,251.221C440.215,247.777 445.285,245.959 449.781,245.098C454.278,244.237 463.27,247.873 461.644,250.743C460.018,253.612 454.66,257.439 450.929,257.439Z" style="fill:rgb(17,11,4);stroke:rgb(28,22,17);stroke-width:3.16px;"/>
        </g>
        <g transform="matrix(-0.989173,0,0,0.959523,812.986,-93.744)">
            <ellipse cx="424.813" cy="241.941" rx="2.487" ry="4.688" style="fill:rgb(17,11,4);stroke:rgb(28,22,17);stroke-width:3.16px;"/>
        </g>
        <g transform="matrix(-0.989173,0,0,0.959523,763.684,-96.3142)">
            <ellipse cx="424.813" cy="241.941" rx="2.487" ry="4.688" style="fill:rgb(20,13,5);stroke:rgb(28,22,17);stroke-width:3.16px;"/>
        </g>
        <g transform="matrix(-0.989173,0,0,0.959523,812.986,-93.744)">
            <path d="M383.682,310.247C395.969,304.104 417.256,315.721 423.46,335.793C429.664,355.864 423.46,376.3 409.227,375.571C394.995,374.841 384.412,378.125 373.829,354.769C363.246,331.414 374.194,314.992 383.682,310.247Z" style="fill:rgb(126,86,54);stroke:rgb(28,22,17);stroke-width:3.16px;"/>
        </g>
        <g transform="matrix(-0.842492,0.502798,0.518335,0.817238,467.595,-248.171)">
            <path d="M383.682,310.247C395.969,304.104 417.256,315.721 423.46,335.793C429.664,355.864 423.46,376.3 409.227,375.571C394.995,374.841 384.412,378.125 373.829,354.769C363.246,331.414 374.194,314.992 383.682,310.247Z" style="fill:rgb(126,86,54);stroke:black;stroke-width:3.05px;"/>
        </g>
        <g transform="matrix(1.49983,0,0,1.45487,83.0627,-444.527)">
            <path d="M412.058,314.391C412.058,314.391 414.795,316.672 416.163,321.234" style="fill:none;stroke:rgb(8,7,6);stroke-width:1.04px;"/>
        </g>
        <g transform="matrix(1.49983,0,0,1.45487,83.0627,-444.527)">
            <path d="M417.988,311.198C417.988,311.198 421.637,313.023 421.637,316.672" style="fill:none;stroke:rgb(8,7,6);stroke-width:1.04px;"/>
        </g>
        <g transform="matrix(1.49983,0,0,1.45487,83.0627,-444.527)">
            <path d="M497.361,308.461C497.361,308.461 495.536,313.935 495.536,315.76" style="fill:none;stroke:rgb(8,7,6);stroke-width:1.04px;"/>
        </g>
        <g transform="matrix(1.49983,0,0,1.45487,83.0627,-444.527)">
            <path d="M508.765,312.11C508.765,312.11 505.116,314.847 505.116,318.04" style="fill:none;stroke:rgb(8,7,6);stroke-width:1.04px;"/>
        </g>
        <g transform="matrix(1.49983,0,0,1.45487,83.0627,-444.527)">
            <path d="M139.265,446.998C139.265,446.998 140.819,450.226 141.178,453.216" style="fill:none;stroke:rgb(8,7,6);stroke-width:1.04px;"/>
        </g>
        <g transform="matrix(1.49983,0,0,1.45487,83.0627,-444.527)">
            <path d="M145.483,442.812C145.483,442.812 147.994,446.639 147.994,449.15" style="fill:none;stroke:rgb(8,7,6);stroke-width:1.04px;"/>
        </g>
        <g transform="matrix(1.49983,0,0,1.45487,83.0627,-444.527)">
            <path d="M153.376,442.573C153.376,442.573 154.452,446.4 154.452,448.552" style="fill:none;stroke:rgb(8,7,6);stroke-width:1.04px;"/>
        </g>
        <g transform="matrix(1.49983,0,0,1.45487,83.0627,-444.527)">
            <path d="M225.005,445.443C225.005,445.443 223.091,448.313 222.972,450.585" style="fill:none;stroke:rgb(8,7,6);stroke-width:1.04px;"/>
        </g>
        <g transform="matrix(1.49983,0,0,1.45487,83.0627,-444.527)">
            <path d="M232.18,444.845C232.18,444.845 229.788,448.791 229.668,450.705" style="fill:none;stroke:rgb(8,7,6);stroke-width:1.04px;"/>
        </g>
        <g transform="matrix(1.49983,0,0,1.45487,83.0627,-444.527)">
            <path d="M236.963,448.193C236.963,448.193 235.169,451.063 234.81,453.335" style="fill:none;stroke:rgb(8,7,6);stroke-width:1.04px;"/>
        </g>
        <g transform="matrix(1.49983,0,0,1.45487,83.0627,-444.527)">
            <path d="M503.376,307.651C503.376,307.651 501.732,310.042 501.583,313.63" style="fill:none;stroke:rgb(8,7,6);stroke-width:1.04px;"/>
        </g>
        <g transform="matrix(1.49983,0,0,1.45487,83.0627,-444.527)">
            <path d="M426.396,311.537C426.396,311.537 427.891,315.872 426.844,319.16" style="fill:none;stroke:rgb(8,7,6);stroke-width:1.04px;"/>
        </g>
        <g transform="matrix(0.623977,0.381254,-0.456892,0.703612,373.927,-215.989)">
            <ellipse cx="264.895" cy="300.394" rx="19.957" ry="18.532" style="fill:rgb(239,124,77);stroke:black;stroke-width:1.88px;"/>
        </g>
        <g transform="matrix(0.623977,0.381254,-0.456892,0.703612,370.33,-205.858)">
            <path d="M279.72,276.731C279.72,276.731 300.818,253.352 312.793,260.194C324.767,267.037 309.941,274.45 317.354,292.126C324.767,309.803 296.256,304.671 280.291,295.547C281.664,292.104 282.881,281.984 279.72,276.731Z" style="fill:rgb(239,124,77);stroke:black;stroke-width:1.88px;"/>
        </g>
        <g transform="matrix(-0.623977,-0.381254,-0.456892,0.703612,696.262,-5.10489)">
            <path d="M279.72,276.731C279.72,276.731 300.818,253.352 312.793,260.194C324.767,267.037 309.941,274.45 317.354,292.126C324.767,309.803 296.256,304.671 280.291,295.547C281.664,292.104 282.881,281.984 279.72,276.731Z" style="fill:rgb(239,124,77);stroke:black;stroke-width:2.03px;"/>
        </g>
        <g transform="matrix(0.623977,0.381254,-0.456892,0.703612,370.33,-205.858)">
            <path d="M282.56,283.669C282.56,283.669 291.678,281.427 294.967,276.942" style="fill:rgb(239,124,77);stroke:black;stroke-width:1.88px;"/>
        </g>
        <g transform="matrix(0.623977,0.381254,-0.456892,0.703612,370.33,-205.858)">
            <path d="M282.112,289.349C282.112,289.349 292.127,288.303 294.967,291.292" style="fill:rgb(239,124,77);stroke:black;stroke-width:1.88px;"/>
        </g>
        <g transform="matrix(0.623977,0.381254,-0.456892,0.703612,370.33,-205.858)">
            <path d="M282.859,286.359L286.746,285.612" style="fill:none;stroke:black;stroke-width:1.88px;"/>
        </g>
        <g transform="matrix(0.623977,0.381254,-0.456892,0.703612,370.33,-205.858)">
            <path d="M241.753,283.519C241.753,283.519 230.841,279.484 228.898,274.252" style="fill:rgb(239,124,77);stroke:black;stroke-width:1.88px;"/>
        </g>
        <g transform="matrix(0.623977,0.381254,-0.456892,0.703612,370.33,-205.858)">
            <path d="M241.604,289.947C241.604,289.947 231.738,288.901 225.909,292.787" style="fill:rgb(239,124,77);stroke:black;stroke-width:1.88px;"/>
        </g>
        <g transform="matrix(0.623977,0.381254,-0.456892,0.703612,370.33,-205.858)">
            <path d="M241.155,286.808C241.155,286.808 234.279,285.313 232.785,284.267" style="fill:rgb(239,124,77);stroke:black;stroke-width:1.88px;"/>
        </g>
        <g transform="matrix(0.623977,0.381254,-0.456892,0.703612,370.33,-205.858)">
            <path d="M262.093,274.649C266.578,273.752 271.959,277.041 273.603,279.881" style="fill:rgb(239,124,77);stroke:black;stroke-width:1.88px;"/>
        </g>
    </g>
    <g id="Layer31" serif:id="Layer3">
    </g>
    <g id="tools" transform="matrix(0.338227,0,0,0.331361,-19.689,269.353)">
        <g transform="matrix(0.718267,0,0,0.785439,310.072,-404.417)">
            <path d="M138.421,365.286L214.601,339.741L215.97,406.341L140.702,434.167L138.421,365.286Z" style="fill:rgb(131,69,9);stroke:rgb(24,34,45);stroke-width:3.97px;"/>
        </g>
        <g transform="matrix(0.718267,0,0,0.785439,310.072,-404.417)">
            <path d="M141.158,433.711L131.123,430.518L131.123,363.461L138.878,366.654L141.158,433.711Z" style="fill:rgb(131,69,9);stroke:rgb(24,34,45);stroke-width:3.97px;"/>
        </g>
        <g transform="matrix(0.718267,0,0,0.785439,310.072,-404.417)">
            <path d="M215.057,340.197L376.54,372.128L371.979,438.729L216.882,405.428L215.057,340.197Z" style="fill:rgb(131,69,9);stroke:rgb(24,34,45);stroke-width:3.97px;"/>
        </g>
        <g transform="matrix(0.718267,0,0,0.785439,310.072,-404.417)">
            <path d="M215.057,339.284L386.12,364.83L372.705,371.048L209.127,341.565L215.057,339.284Z" style="fill:rgb(131,69,9);stroke:rgb(24,34,45);stroke-width:3.97px;"/>
        </g>
        <g transform="matrix(0.718267,0,0,0.785439,310.072,-404.417)">
            <path d="M273.445,392.242L244.25,339.692C244.25,339.692 243.674,320.658 227.201,324.044C216.048,326.336 215.578,344.634 222.993,348.084C230.402,351.532 250.089,392.709 250.089,392.709L273.445,392.242Z" style="fill:rgb(199,16,42);stroke:rgb(24,34,45);stroke-width:3.97px;"/>
        </g>
        <g transform="matrix(0.718267,0,0,0.785439,310.072,-404.417)">
            <path d="M224.895,344.883C224.895,344.883 238.647,341.893 243.579,334.868" style="fill:none;stroke:rgb(24,34,45);stroke-width:3.97px;"/>
        </g>
        <g transform="matrix(0.718267,0,0,0.785439,310.072,-404.417)">
            <path d="M230.575,346.228C230.575,346.228 240.889,342.491 244.028,339.203" style="fill:none;stroke:rgb(24,34,45);stroke-width:3.97px;"/>
        </g>
        <g transform="matrix(0.718267,0,0,0.785439,310.072,-404.417)">
            <path d="M244.327,375.376C244.327,375.376 227.735,352.058 233.415,350.414C239.095,348.769 249.708,374.18 253.295,379.562" style="fill:none;stroke:rgb(24,34,45);stroke-width:3.97px;"/>
        </g>
        <g transform="matrix(0.718267,0,0,0.785439,310.072,-404.417)">
            <path d="M257.182,379.412C257.182,379.412 237.301,349.517 241.487,347.275C245.672,345.032 262.114,374.031 262.114,374.031" style="fill:none;stroke:rgb(24,34,45);stroke-width:3.97px;"/>
        </g>
        <g transform="matrix(0.718267,0,0,0.785439,310.072,-404.417)">
            <path d="M251.081,322.184C251.081,322.184 243.421,336.01 264.347,343.297C285.274,350.584 265.282,337.879 265.282,337.879C265.282,337.879 250.708,324.613 251.081,322.184Z" style="fill:rgb(132,132,132);stroke:rgb(24,34,45);stroke-width:3.97px;"/>
        </g>
        <g transform="matrix(0.718267,0,0,0.785439,310.072,-404.417)">
            <path d="M264.955,394.023L262.924,341.249C262.924,341.249 236.308,322.862 258.356,308.558C259.281,316.755 259.723,325.16 259.723,325.16C259.723,325.16 265.141,332.447 275.792,326.095C275.88,318.9 275.792,309.652 275.792,309.652C275.792,309.652 297.466,322.521 280.836,337.492C279.437,354.147 282.892,395.812 282.892,395.812L264.955,394.023Z" style="fill:rgb(159,159,159);stroke:rgb(24,34,45);stroke-width:3.97px;"/>
        </g>
        <g transform="matrix(0.718267,0,0,0.785439,310.072,-404.417)">
            <path d="M170.809,267.294C170.809,267.294 153.019,254.066 153.019,299.226C153.019,344.387 133.404,362.177 133.404,362.177L152.563,361.265L170.809,267.294Z" style="fill:rgb(131,69,9);stroke:rgb(24,34,45);stroke-width:3.97px;"/>
        </g>
        <g transform="matrix(0.718267,0,0,0.785439,310.072,-404.417)">
            <path d="M201.372,341.65L178.108,293.752C178.108,293.752 180.389,266.838 168.072,266.838C155.756,266.838 160.774,283.716 161.23,291.927C161.686,300.138 143.895,350.773 142.983,360.352C142.071,369.932 201.372,341.65 201.372,341.65Z" style="fill:rgb(131,69,9);stroke:rgb(24,34,45);stroke-width:3.97px;"/>
        </g>
        <g transform="matrix(0.718267,0,0,0.785439,310.072,-404.417)">
            <path d="M271.074,385.525C271.074,385.525 265.842,346.287 271.634,346.1C277.427,345.913 276.679,379.349 276.492,387.206C276.305,395.063 271.447,388.505 271.074,385.525Z" style="fill:rgb(132,132,132);stroke:rgb(24,34,45);stroke-width:3.97px;"/>
        </g>
        <g transform="matrix(0.718267,0,0,0.785439,310.072,-404.417)">
            <path d="M186.795,359.311L200.575,350.436L232.806,383.601L215.289,390.607L186.795,359.311Z" style="fill:rgb(120,71,7);stroke:rgb(24,34,45);stroke-width:3.97px;"/>
        </g>
        <g transform="matrix(0.718267,0,0,0.785439,310.072,-404.417)">
            <path d="M131.579,363.461L209.127,336.091L215.514,339.741L139.79,366.654L131.579,363.461Z" style="fill:rgb(131,69,9);stroke:rgb(24,34,45);stroke-width:3.97px;"/>
        </g>
        <g transform="matrix(0.718267,0,0,0.785439,310.072,-404.417)">
            <path d="M175.647,302.463C175.647,302.463 128.352,334.286 134.191,358.225C140.412,358.67 138.516,346.162 141.489,343.92C142.473,345.734 135.65,362.313 142.657,369.319C149.664,376.326 139.154,329.323 186.741,361.145C193.456,362.838 200.202,358.56 201.63,351.219C200.992,343.418 183.595,334.98 192.872,323.192C203.724,309.401 178.858,316.477 175.647,302.463Z" style="fill:rgb(159,159,159);stroke:rgb(24,34,45);stroke-width:3.97px;"/>
        </g>
        <g transform="matrix(0.88269,0,0,0.858315,274.396,-427.511)">
            <ellipse cx="195.937" cy="309.032" rx="12.116" ry="14.159" style="fill:rgb(128,128,128);stroke:rgb(24,34,45);stroke-width:3.43px;"/>
        </g>
        <g transform="matrix(0.718267,0,0,0.785439,310.072,-404.417)">
            <path d="M184.697,297.5C184.697,297.5 182.654,313.849 199.003,317.353" style="fill:none;stroke:rgb(24,34,45);stroke-width:3.97px;"/>
        </g>
        <g transform="matrix(0.718267,0,0,0.785439,310.072,-404.417)">
            <path d="M139.334,365.286L299.448,399.042L299.448,488.451L140.702,432.798L139.334,365.286Z" style="fill:rgb(131,69,9);stroke:rgb(24,34,45);stroke-width:3.97px;"/>
        </g>
        <g transform="matrix(0.718267,0,0,0.785439,310.072,-404.417)">
            <path d="M295.799,371.757L401.173,290.559L419.42,311.543L414.402,311.999L414.402,317.473L408.472,317.017L408.472,322.947L403.91,322.947L404.823,328.877L398.436,329.333L399.349,335.263L392.05,334.807L392.506,343.018L385.664,342.106L387.032,348.492L381.102,347.58L380.19,353.966L372.435,354.878L326.231,418.769L295.799,371.757Z" style="fill:rgb(132,132,132);stroke:rgb(24,34,45);stroke-width:3.97px;"/>
        </g>
        <g transform="matrix(0.718267,0,0,0.785439,310.072,-404.417)">
            <path d="M316.057,327.051L334.742,335.693L351.791,311.87L355.295,315.84L340.58,341.765C340.58,341.765 318.86,344.101 314.188,331.722C309.517,319.344 316.057,327.051 316.057,327.051Z" style="fill:rgb(132,132,132);stroke:rgb(24,34,45);stroke-width:3.97px;"/>
        </g>
        <g transform="matrix(0.718267,0,0,0.785439,310.072,-404.417)">
            <path d="M173.09,270.031C173.09,270.031 158.037,279.155 174.459,291.927C192.983,293.723 348.258,310.63 348.258,310.63L352.82,286.91L173.09,270.031Z" style="fill:rgb(107,104,93);stroke:rgb(24,34,45);stroke-width:3.97px;"/>
        </g>
        <g transform="matrix(0.718267,0,0,0.785439,310.072,-404.417)">
            <path d="M319.794,301.593L324.932,306.965C324.932,306.965 298.307,311.636 304.846,344.801C311.386,377.967 276.586,309.768 319.794,301.593Z" style="fill:rgb(132,132,132);stroke:rgb(24,34,45);stroke-width:3.97px;"/>
        </g>
        <g transform="matrix(0.718267,0,0,0.785439,310.072,-404.417)">
            <path d="M324.796,307.335L314.188,331.022C314.188,331.022 316.29,343.867 341.048,342.232C346.791,333.662 355.289,315.396 355.289,315.396C355.289,315.396 364.403,355.312 331.705,356.012C322.363,368.391 307.649,399.22 307.649,399.22L280.79,390.812L304.145,347.371C304.145,347.371 297.236,313.174 324.796,307.335Z" style="fill:rgb(159,159,159);stroke:rgb(24,34,45);stroke-width:3.97px;"/>
        </g>
        <g transform="matrix(0.718267,0,0,0.785439,310.072,-404.417)">
            <path d="M294.336,390.112C294.336,390.112 309.751,360.917 314.188,363.019C318.626,365.121 303.912,390.781 299.474,394.316C295.037,397.851 292.935,395.919 294.336,390.112Z" style="fill:rgb(132,132,132);stroke:rgb(24,34,45);stroke-width:3.97px;"/>
        </g>
        <g transform="matrix(0.718267,0,0,0.785439,310.072,-404.417)">
            <path d="M299.448,398.586L386.12,365.286L395.499,366.888L309.028,401.323L299.448,398.586Z" style="fill:rgb(131,69,9);stroke:rgb(24,34,45);stroke-width:3.97px;"/>
        </g>
        <g transform="matrix(0.718267,0,0,0.785439,310.072,-404.417)">
            <path d="M299.448,398.586L300.361,489.363L312.498,493.68L308.115,402.235L299.448,398.586Z" style="fill:rgb(131,69,9);stroke:rgb(24,34,45);stroke-width:3.97px;"/>
        </g>
        <g transform="matrix(0.718267,0,0,0.785439,310.072,-404.417)">
            <path d="M308.572,401.779L394.331,368.023L395.699,458.344L312.221,494.381L308.572,401.779Z" style="fill:rgb(131,69,9);stroke:rgb(24,34,45);stroke-width:3.97px;"/>
        </g>
        <g transform="matrix(0.718267,0,0,0.785439,310.072,-404.417)">
            <path d="M360.732,289.836C360.732,289.836 335.989,269.674 338.679,316.104C341.621,366.902 307.203,422.847 340.503,417.829C372.402,406.272 351.451,399.583 354.644,372.669C357.838,345.755 360.732,289.836 360.732,289.836Z" style="fill:rgb(131,69,9);stroke:rgb(24,34,45);stroke-width:3.97px;"/>
        </g>
        <g transform="matrix(0.718267,0,0,0.785439,310.072,-404.417)">
            <path d="M342.784,417.373L385.208,397.758C385.208,397.758 394.331,391.912 366.961,311.999C359.21,295.146 365.552,291.653 356.925,287.281C336.854,284.544 350.083,301.423 348.258,314.195C346.433,326.968 322.713,416.545 342.784,417.373Z" style="fill:rgb(131,69,9);stroke:rgb(24,34,45);stroke-width:3.97px;"/>
        </g>
        <g transform="matrix(0.718267,0,0,0.785439,310.072,-404.417)">
            <path d="M139.334,368.023L299.715,398.776L304.499,396.083L147.089,363.005L139.334,368.023Z" style="fill:rgb(131,69,9);stroke:rgb(24,34,45);stroke-width:3.97px;"/>
        </g>
        <g transform="matrix(0.718267,0,0,0.785439,310.072,-404.417)">
            <ellipse cx="355.705" cy="298.978" rx="5.021" ry="8.992" style="fill:rgb(107,104,93);stroke:rgb(24,34,45);stroke-width:3.97px;"/>
        </g>
        <g transform="matrix(0.718267,0,0,0.785439,309.401,-406.618)">
            <ellipse cx="348.815" cy="405.714" rx="5.372" ry="5.489" style="fill:rgb(107,104,93);stroke:rgb(24,34,45);stroke-width:3.97px;"/>
        </g>
        <g transform="matrix(0.718267,0,0,0.785439,308.395,-406.618)">
            <ellipse cx="381.746" cy="393.919" rx="4.671" ry="4.905" style="fill:rgb(107,104,93);stroke:rgb(24,34,45);stroke-width:3.97px;"/>
        </g>
        <g transform="matrix(0.718267,0,0,0.785439,309.317,-403.666)">
            <ellipse cx="350.45" cy="402.094" rx="4.438" ry="5.138" style="fill:rgb(107,104,93);stroke:rgb(24,34,45);stroke-width:3.97px;"/>
        </g>
        <g transform="matrix(0.718267,0,0,0.748881,332.011,-398.471)">
            <ellipse cx="350.45" cy="402.094" rx="4.438" ry="5.138" style="fill:rgb(107,104,93);stroke:rgb(24,34,45);stroke-width:4.07px;"/>
        </g>
        <g transform="matrix(1.76743,0,0,1.97277,128.474,-727.595)">
            <ellipse cx="66.387" cy="48.246" rx="64.037" ry="61.949" style="fill:rgb(255,232,11);stroke:rgb(28,22,17);stroke-width:1.6px;"/>
        </g>
        <g transform="matrix(1.11493,-0.109127,0.104272,1.32725,214.551,-718.216)">
            <path d="M133.904,108.803L149.914,135.253L117.895,135.253L133.904,108.803Z" style="fill:rgb(255,149,11);stroke:rgb(28,22,17);stroke-width:2.45px;"/>
        </g>
        <g transform="matrix(-1.16339,0.159173,-0.139848,-1.27345,443.256,-342.971)">
            <path d="M133.904,108.803L149.914,135.253L117.895,135.253L133.904,108.803Z" style="fill:rgb(255,149,11);stroke:rgb(28,22,17);stroke-width:2.46px;"/>
        </g>
        <g transform="matrix(0.563594,-1.0981,1.15233,0.736832,155.171,-660.347)">
            <path d="M133.904,108.803L149.914,135.253L117.895,135.253L133.904,108.803Z" style="fill:rgb(255,149,11);stroke:rgb(28,22,17);stroke-width:2.39px;"/>
        </g>
        <g transform="matrix(1.35746,0.0191508,-0.0139407,1.2311,76.0677,-936.529)">
            <path d="M133.904,108.803L149.914,135.253L117.895,135.253L133.904,108.803Z" style="fill:rgb(255,149,11);stroke:rgb(28,22,17);stroke-width:2.3px;"/>
        </g>
        <g transform="matrix(0.762899,1.08841,-1.07892,0.94217,149.546,-960.136)">
            <path d="M133.904,108.803L149.914,135.253L117.895,135.253L133.904,108.803Z" style="fill:rgb(255,149,11);stroke:rgb(28,22,17);stroke-width:2.08px;"/>
        </g>
        <g transform="matrix(1.18944,-0.116419,0.114328,1.45524,-36.5703,-698.259)">
            <path d="M133.904,108.803L149.914,135.253L117.895,135.253L133.904,108.803Z" style="fill:rgb(255,149,11);stroke:rgb(28,22,17);stroke-width:2.26px;"/>
        </g>
        <g transform="matrix(1.37342,-1.24168,1.11243,1.53298,69.6315,-670.304)">
            <path d="M133.904,108.803L149.914,135.253L117.895,135.253L133.904,108.803Z" style="fill:rgb(255,232,11);stroke:rgb(28,22,17);stroke-width:1.67px;"/>
        </g>
        <g transform="matrix(-1.33423,1.29382,-1.15915,-1.48924,654.573,-496.979)">
            <path d="M133.904,108.803L149.914,135.253L117.895,135.253L133.904,108.803Z" style="fill:rgb(255,232,11);stroke:rgb(28,22,17);stroke-width:1.67px;"/>
        </g>
        <g transform="matrix(-0.12907,-1.9675,1.76271,-0.144065,123.086,-486.926)">
            <path d="M133.904,108.803L149.914,135.253L117.895,135.253L133.904,108.803Z" style="fill:rgb(255,232,11);stroke:rgb(28,22,17);stroke-width:1.59px;"/>
        </g>
        <g transform="matrix(1.47772,-1.08226,0.969608,1.6494,-148.504,-826.26)">
            <path d="M133.904,108.803L149.914,135.253L117.895,135.253L133.904,108.803Z" style="fill:rgb(255,232,11);stroke:rgb(28,22,17);stroke-width:1.67px;"/>
        </g>
        <g transform="matrix(1.66627,0.65781,-0.589341,1.85986,-47.5389,-922.126)">
            <path d="M133.904,108.803L149.914,135.253L117.895,135.253L133.904,108.803Z" style="fill:rgb(255,232,11);stroke:rgb(28,22,17);stroke-width:1.55px;"/>
        </g>
        <g transform="matrix(1.37342,-1.24168,1.11243,1.53298,-125.246,-510.089)">
            <path d="M133.904,108.803L149.914,135.253L117.895,135.253L133.904,108.803Z" style="fill:rgb(255,232,11);stroke:rgb(28,22,17);stroke-width:1.67px;"/>
        </g>
    </g>
</svg>
