<?xml version="1.0" encoding="UTF-8" standalone="no"?>
<!DOCTYPE svg PUBLIC "-//W3C//DTD SVG 1.1//EN" "http://www.w3.org/Graphics/SVG/1.1/DTD/svg11.dtd">
<svg width="100%" height="100%" viewBox="0 0 600 600" version="1.1" xmlns="http://www.w3.org/2000/svg" xmlns:xlink="http://www.w3.org/1999/xlink" xml:space="preserve" xmlns:serif="http://www.serif.com/" style="fill-rule:evenodd;clip-rule:evenodd;stroke-linecap:round;stroke-linejoin:round;stroke-miterlimit:1.5;">
    <rect x="-2.896" y="-0.135" width="552.668" height="601.392" style="fill:white;"/>
    <g id="waving" transform="matrix(1.20896,0,0,1.20896,-27.0437,32.2664)">
        <g transform="matrix(0.780737,-0.557688,-0.524555,-0.830051,-8.76479,804.679)">
            <path d="M417.236,516.011C417.236,516.011 405.037,511.151 404.837,526.437C404.565,547.23 425.068,581.393 447.051,569.231C462.22,560.838 458.604,550.444 456.879,544.332C453.496,532.345 454.378,536.041 457.599,541.886C463.769,553.079 475.613,552.933 474.257,541.556C472.382,525.832 461.484,515.555 451.449,509.168C441.413,502.782 419.061,513.73 417.236,516.011Z" style="fill:rgb(229,206,122);stroke:black;stroke-width:3.32px;"/>
        </g>
        <g transform="matrix(0.940589,0,0,1,-2.95317,0)">
            <path d="M148.015,289.32C126.457,279.745 104.136,240.986 98.122,209.135C92.81,180.997 82.976,149.735 85.649,139.641C88.322,129.546 45.307,137.672 38.179,144.799C31.052,151.927 40.283,210.975 47.873,232.861C63.197,277.052 89.569,336.068 151.579,341.592C190.637,345.072 158.707,294.069 148.015,289.32Z" style="fill:rgb(180,203,227);stroke:black;stroke-width:3.41px;"/>
        </g>
        <g transform="matrix(-0.780737,-0.557688,0.524555,-0.830051,510.952,795.77)">
            <path d="M417.236,516.011C417.236,516.011 405.037,511.151 404.837,526.437C404.565,547.23 425.068,581.393 447.051,569.231C462.22,560.838 458.604,550.444 456.879,544.332C453.496,532.345 454.378,536.041 457.599,541.886C463.769,553.079 475.613,552.933 474.257,541.556C472.382,525.832 461.484,515.555 451.449,509.168C441.413,502.782 419.061,513.73 417.236,516.011Z" style="fill:rgb(229,206,122);stroke:black;stroke-width:3.32px;"/>
        </g>
        <g transform="matrix(-0.940589,0,0,1,505.141,-8.90951)">
            <path d="M148.015,289.32C126.457,279.745 104.136,240.986 98.122,209.135C92.81,180.997 82.976,149.735 85.649,139.641C88.322,129.546 45.307,137.672 38.179,144.799C31.052,151.927 40.283,210.975 47.873,232.861C63.197,277.052 89.569,336.068 151.579,341.592C190.637,345.072 158.707,294.069 148.015,289.32Z" style="fill:rgb(180,203,227);stroke:black;stroke-width:3.41px;"/>
        </g>
    </g>
    <g id="trainConductor" transform="matrix(1.14953,0.374379,-0.374379,1.14953,44.5544,-56.5376)">
        <g transform="matrix(0.894353,-0.291273,0.30967,0.950844,-36.373,89.0983)">
            <path d="M188.123,275.65C179.139,267.712 162.189,280.33 147.723,288.705C146.173,289.603 150.757,331.695 152.984,348.4C155.211,365.105 191.963,380.697 247.647,377.356C303.332,374.015 364.585,383.815 371.267,362.655C377.949,341.495 386.803,296.915 390.967,278.238C388.344,272.176 363.031,270.756 353.448,272.669C334.188,276.513 210.073,295.041 188.123,275.65Z" style="fill:rgb(180,203,227);stroke:black;stroke-width:3.41px;"/>
        </g>
        <g transform="matrix(0.946286,0.0174935,0.0174935,0.994303,-6.15354,2.00408)">
            <path d="M167.933,185.063C159.906,207.94 190.028,309.083 309.772,262.041C429.516,214.999 387.463,98.106 361.804,85.989C336.144,73.872 196.443,103.808 167.933,185.063Z" style="fill:rgb(229,206,122);stroke:black;stroke-width:3.35px;"/>
        </g>
        <g transform="matrix(0.946286,0.0174935,0.0174935,0.994303,-6.15354,2.00408)">
            <path d="M162.943,177.935C155.734,181.54 153.689,190.743 150.826,196.467C150.203,197.715 147.228,202.847 148.688,204.307C150.502,206.121 161.04,195.276 163.656,197.893C170.274,204.51 163.114,220.329 167.22,228.541C170.13,234.362 176.983,221.63 177.199,221.414C177.574,221.038 177.911,219.988 177.911,219.988L177.911,221.414C177.911,223.487 177.004,228.153 177.911,229.967C178.711,231.566 182.557,237.438 185.752,234.243C186.94,233.055 186.702,230.442 187.89,229.254C189.016,228.128 189.58,234.692 191.454,232.818C193.366,230.906 189.579,216.874 192.879,213.573C195.339,211.114 198.815,219.515 203.571,217.137C208.231,214.807 204.666,208.531 206.422,205.02C207.611,202.642 212.811,205.758 214.262,204.307C215.419,203.15 214.975,199.395 214.975,197.18C214.975,196.47 212.942,175.902 212.837,175.797C210.66,173.621 203.471,175.698 201.433,173.659C197.816,170.042 189.723,170.095 182.901,170.095C181.88,170.095 177.136,169.445 176.486,170.095C173.867,172.713 168.935,175.084 163.656,175.084" style="fill:rgb(96,59,44);stroke:black;stroke-width:3.35px;"/>
        </g>
        <g transform="matrix(0.946286,0.0174935,0.0174935,0.994303,-6.15354,2.00408)">
            <path d="M162.629,185.721C162.629,185.721 61.224,97.065 224.996,39.827C335.251,1.294 339.706,49.182 345.274,69.229C350.843,89.275 306.295,169.684 162.629,185.721Z" style="fill:rgb(180,203,227);stroke:black;stroke-width:3.35px;"/>
        </g>
        <g transform="matrix(0.946286,0.0174935,0.0174935,0.994303,-6.15354,2.00408)">
            <path d="M345.41,105.234C345.41,112.928 346.796,120.162 350.4,123.765C352.26,125.625 357.369,123.608 358.953,125.191C361.136,127.375 359.625,131.585 362.516,133.031C367.83,135.688 369.298,126.596 370.357,124.478C370.688,123.816 373.55,119.831 374.633,120.914C378.524,124.805 378.753,132.874 382.474,136.595C382.585,136.706 383.717,138.203 384.612,137.308C387.023,134.896 384.643,128.724 386.75,126.616C388.527,124.84 387.463,117.02 387.463,113.787C387.463,103.111 371.688,93.829 361.091,93.829C354.951,93.829 352.63,94.45 349.687,97.393C348.674,98.406 347.846,103.095 346.836,103.095" style="fill:rgb(96,59,44);stroke:black;stroke-width:3.35px;"/>
        </g>
        <g transform="matrix(0.946286,0.0174935,0.0174935,0.994303,-6.15354,2.00408)">
            <path d="M186.017,130.482C186.017,130.482 163.743,175.029 167.084,186.166C170.425,197.303 312.193,149.735 382.026,81.479C382.832,76.294 376.533,69.285 365.32,65.888C349.086,60.968 263.888,122.3 238.36,128.254C226.248,131.079 207.712,136.088 186.017,130.482Z" style="fill:rgb(180,203,227);stroke:black;stroke-width:3.35px;"/>
        </g>
        <g transform="matrix(0.946286,0.0174935,0.0174935,0.994303,-6.15354,2.00408)">
            <path d="M207.135,73.159C207.135,73.159 236.358,76.01 232.794,115.925" style="fill:none;stroke:black;stroke-width:3.35px;"/>
        </g>
        <g transform="matrix(0.946286,0.0174935,0.0174935,0.994303,-6.15354,2.00408)">
            <path d="M291.24,47.5C291.24,47.5 315.474,63.893 315.474,80.287" style="fill:none;stroke:black;stroke-width:3.35px;"/>
        </g>
        <g transform="matrix(0.894353,-0.291273,0.30967,0.950844,-36.373,89.0983)">
            <path d="M239.273,273.222L196.555,257.842L186.81,275.94L247.441,304.419L239.273,273.222Z" style="fill:rgb(180,203,227);stroke:black;stroke-width:3.41px;"/>
        </g>
        <g transform="matrix(0.894353,-0.291273,0.30967,0.950844,-36.373,89.0983)">
            <path d="M284.282,273.309L336.171,255.063L352.137,272.739L274.589,306.381L284.282,273.309Z" style="fill:rgb(180,203,227);stroke:black;stroke-width:3.41px;"/>
        </g>
        <g transform="matrix(0.894353,-0.291273,0.30967,0.950844,-43.3175,78.1669)">
            <ellipse cx="264.895" cy="300.394" rx="19.957" ry="18.532" style="fill:rgb(178,139,123);stroke:black;stroke-width:3.41px;"/>
        </g>
        <g transform="matrix(0.894353,-0.291273,0.30967,0.950844,-36.373,89.0983)">
            <path d="M279.72,276.731C279.72,276.731 300.818,253.352 312.793,260.194C324.767,267.037 309.941,274.45 317.354,292.126C324.767,309.803 296.256,304.671 280.291,295.547C281.664,292.104 282.881,281.984 279.72,276.731Z" style="fill:rgb(178,139,123);stroke:black;stroke-width:3.41px;"/>
        </g>
        <g transform="matrix(-0.894353,0.291273,0.30967,0.950844,432.366,-61.8409)">
            <path d="M279.72,276.731C279.72,276.731 300.818,253.352 312.793,260.194C324.767,267.037 309.941,274.45 317.354,292.126C324.767,309.803 296.256,304.671 280.291,295.547C281.664,292.104 282.881,281.984 279.72,276.731Z" style="fill:rgb(178,139,123);stroke:black;stroke-width:3.41px;"/>
        </g>
        <g transform="matrix(0.894353,-0.291273,0.30967,0.950844,-36.373,89.0983)">
            <path d="M146.248,286.716L171.45,273.585L203.1,342.275L326.719,344.502L366.166,269.543L392.193,273.71L376.835,352.298C376.835,352.298 353.448,434.892 357.903,469.417C327.276,470.053 170.803,469.777 170.803,469.777C170.803,469.777 165.331,400.15 158.552,382.367C149.535,358.709 146.248,286.716 146.248,286.716Z" style="fill:rgb(47,74,102);"/>
        </g>
        <g transform="matrix(0.894353,-0.291273,0.30967,0.950844,-36.373,89.0983)">
            <path d="M226.487,378.47L293.309,378.47L292.195,412.994L268.808,430.813L245.42,417.449L226.487,378.47Z" style="fill:rgb(47,74,102);stroke:black;stroke-width:1.7px;"/>
        </g>
        <g transform="matrix(0.894353,-0.291273,0.30967,0.950844,-36.373,89.0983)">
            <path d="M282.56,283.669C282.56,283.669 291.678,281.427 294.967,276.942" style="fill:none;stroke:black;stroke-width:1.7px;"/>
        </g>
        <g transform="matrix(0.894353,-0.291273,0.30967,0.950844,-36.373,89.0983)">
            <path d="M282.112,289.349C282.112,289.349 292.127,288.303 294.967,291.292" style="fill:none;stroke:black;stroke-width:1.7px;"/>
        </g>
        <g transform="matrix(0.894353,-0.291273,0.30967,0.950844,-36.373,89.0983)">
            <path d="M282.859,286.359L286.746,285.612" style="fill:none;stroke:black;stroke-width:1.7px;"/>
        </g>
        <g transform="matrix(0.894353,-0.291273,0.30967,0.950844,-36.373,89.0983)">
            <path d="M241.753,283.519C241.753,283.519 230.841,279.484 228.898,274.252" style="fill:none;stroke:black;stroke-width:1.7px;"/>
        </g>
        <g transform="matrix(0.894353,-0.291273,0.30967,0.950844,-36.373,89.0983)">
            <path d="M241.604,289.947C241.604,289.947 231.738,288.901 225.909,292.787" style="fill:none;stroke:black;stroke-width:1.7px;"/>
        </g>
        <g transform="matrix(0.894353,-0.291273,0.30967,0.950844,-36.373,89.0983)">
            <path d="M241.155,286.808C241.155,286.808 234.279,285.313 232.785,284.267" style="fill:none;stroke:black;stroke-width:1.7px;"/>
        </g>
        <g transform="matrix(0.894353,-0.291273,0.30967,0.950844,-36.373,89.0983)">
            <path d="M262.093,274.649C266.578,273.752 271.959,277.041 273.603,279.881" style="fill:none;stroke:black;stroke-width:1.7px;"/>
        </g>
        <g transform="matrix(0.894353,-0.291273,0.30967,0.950844,-36.373,89.0983)">
            <ellipse cx="243.507" cy="193.626" rx="7.239" ry="12.251"/>
        </g>
        <g transform="matrix(0.894353,-0.291273,0.30967,0.950844,16.9926,64.522)">
            <ellipse cx="243.507" cy="193.626" rx="7.239" ry="12.251"/>
        </g>
        <g transform="matrix(-0.371548,-0.928109,0.870469,-0.357151,201.76,513.693)">
            <ellipse cx="243.507" cy="193.626" rx="7.239" ry="12.251" style="fill:rgb(229,206,122);stroke:black;stroke-width:1.7px;"/>
        </g>
        <g transform="matrix(1.29502,-0.421763,0.489362,1.50259,-199.572,10.7918)">
            <ellipse cx="309.752" cy="214.513" rx="0.957" ry="0.897" style="fill:rgb(96,59,44);"/>
        </g>
        <g transform="matrix(1.29502,-0.421763,0.489362,1.50259,-191.308,9.38808)">
            <ellipse cx="309.752" cy="214.513" rx="0.957" ry="0.897" style="fill:rgb(96,59,44);"/>
        </g>
        <g transform="matrix(1.29502,-0.421763,0.489362,1.50259,-194.513,14.4241)">
            <ellipse cx="309.752" cy="214.513" rx="0.957" ry="0.897" style="fill:rgb(96,59,44);"/>
        </g>
        <g transform="matrix(-0.959767,0.990844,-1.06762,-1.14031,781.055,165.597)">
            <ellipse cx="309.752" cy="214.513" rx="0.957" ry="0.897" style="fill:rgb(96,59,44);"/>
        </g>
        <g transform="matrix(-0.959767,0.990844,-1.06762,-1.14031,782.034,170.057)">
            <ellipse cx="309.752" cy="214.513" rx="0.957" ry="0.897" style="fill:rgb(96,59,44);"/>
        </g>
        <g transform="matrix(-0.959767,0.990844,-1.06762,-1.14031,772.734,170.404)">
            <ellipse cx="309.752" cy="214.513" rx="0.957" ry="0.897" style="fill:rgb(96,59,44);"/>
        </g>
        <g transform="matrix(-0.959767,0.990844,-1.06762,-1.14031,774.441,164.765)">
            <ellipse cx="309.752" cy="214.513" rx="0.957" ry="0.897" style="fill:rgb(96,59,44);"/>
        </g>
        <g transform="matrix(0.894353,-0.291273,0.30967,0.950844,-36.373,89.0983)">
            <ellipse cx="278.667" cy="249.209" rx="10.834" ry="9.123" style="fill:rgb(118,39,0);stroke:rgb(46,42,25);stroke-width:1.7px;"/>
        </g>
    </g>
</svg>
